<svg xmlns="http://www.w3.org/2000/svg" xmlns:xlink="http://www.w3.org/1999/xlink" version="1.1" class="marks" width="643" height="576" viewBox="0 0 643 576"><rect width="643" height="576" fill="#fff"/><g fill="none" stroke-miterlimit="10" transform="translate(65,33)"><g class="mark-group role-frame root" role="graphics-object" aria-roledescription="group mark container"><g transform="translate(0,0)"><path class="background" aria-hidden="true" d="M0.5,0.5h500v500h-500Z" stroke="#ddd"/><g><g class="mark-group role-axis" aria-hidden="true"><g transform="translate(0.5,500.5)"><path class="background" aria-hidden="true" d="M0,0h0v0h0Z" pointer-events="none"/><g><g class="mark-rule role-axis-grid" pointer-events="none"><line transform="translate(0,-500)" x2="0" y2="500" stroke="#ddd" stroke-width="1" opacity="1"/><line transform="translate(40,-500)" x2="0" y2="500" stroke="#ddd" stroke-width="1" opacity="1"/><line transform="translate(80,-500)" x2="0" y2="500" stroke="#ddd" stroke-width="1" opacity="1"/><line transform="translate(120,-500)" x2="0" y2="500" stroke="#ddd" stroke-width="1" opacity="1"/><line transform="translate(160,-500)" x2="0" y2="500" stroke="#ddd" stroke-width="1" opacity="1"/><line transform="translate(200,-500)" x2="0" y2="500" stroke="#ddd" stroke-width="1" opacity="1"/><line transform="translate(240,-500)" x2="0" y2="500" stroke="#ddd" stroke-width="1" opacity="1"/><line transform="translate(280,-500)" x2="0" y2="500" stroke="#ddd" stroke-width="1" opacity="1"/><line transform="translate(320,-500)" x2="0" y2="500" stroke="#ddd" stroke-width="1" opacity="1"/><line transform="translate(360,-500)" x2="0" y2="500" stroke="#ddd" stroke-width="1" opacity="1"/><line transform="translate(400,-500)" x2="0" y2="500" stroke="#ddd" stroke-width="1" opacity="1"/><line transform="translate(440,-500)" x2="0" y2="500" stroke="#ddd" stroke-width="1" opacity="1"/><line transform="translate(480,-500)" x2="0" y2="500" stroke="#ddd" stroke-width="1" opacity="1"/></g></g><path class="foreground" aria-hidden="true" d="" pointer-events="none" display="none"/></g></g><g class="mark-group role-axis" aria-hidden="true"><g transform="translate(0.5,0.5)"><path class="background" aria-hidden="true" d="M0,0h0v0h0Z" pointer-events="none"/><g><g class="mark-rule role-axis-grid" pointer-events="none"><line transform="translate(0,500)" x2="500" y2="0" stroke="#e1e8f0" stroke-width="1" opacity="1"/><line transform="translate(0,475)" x2="500" y2="0" stroke="#e1e8f0" stroke-width="1" opacity="1"/><line transform="translate(0,450)" x2="500" y2="0" stroke="#e1e8f0" stroke-width="1" opacity="1"/><line transform="translate(0,425)" x2="500" y2="0" stroke="#e1e8f0" stroke-width="1" opacity="1"/><line transform="translate(0,400)" x2="500" y2="0" stroke="#e1e8f0" stroke-width="1" opacity="1"/><line transform="translate(0,375)" x2="500" y2="0" stroke="#e1e8f0" stroke-width="1" opacity="1"/><line transform="translate(0,350)" x2="500" y2="0" stroke="#e1e8f0" stroke-width="1" opacity="1"/><line transform="translate(0,325)" x2="500" y2="0" stroke="#e1e8f0" stroke-width="1" opacity="1"/><line transform="translate(0,300)" x2="500" y2="0" stroke="#e1e8f0" stroke-width="1" opacity="1"/><line transform="translate(0,275)" x2="500" y2="0" stroke="#e1e8f0" stroke-width="1" opacity="1"/><line transform="translate(0,250)" x2="500" y2="0" stroke="#e1e8f0" stroke-width="1" opacity="1"/><line transform="translate(0,225)" x2="500" y2="0" stroke="#e1e8f0" stroke-width="1" opacity="1"/><line transform="translate(0,200)" x2="500" y2="0" stroke="#e1e8f0" stroke-width="1" opacity="1"/><line transform="translate(0,175)" x2="500" y2="0" stroke="#e1e8f0" stroke-width="1" opacity="1"/><line transform="translate(0,150)" x2="500" y2="0" stroke="#e1e8f0" stroke-width="1" opacity="1"/><line transform="translate(0,125)" x2="500" y2="0" stroke="#e1e8f0" stroke-width="1" opacity="1"/><line transform="translate(0,100)" x2="500" y2="0" stroke="#e1e8f0" stroke-width="1" opacity="1"/><line transform="translate(0,75)" x2="500" y2="0" stroke="#e1e8f0" stroke-width="1" opacity="1"/><line transform="translate(0,50)" x2="500" y2="0" stroke="#e1e8f0" stroke-width="1" opacity="1"/><line transform="translate(0,25)" x2="500" y2="0" stroke="#e1e8f0" stroke-width="1" opacity="1"/><line transform="translate(0,0)" x2="500" y2="0" stroke="#e1e8f0" stroke-width="1" opacity="1"/></g></g><path class="foreground" aria-hidden="true" d="" pointer-events="none" display="none"/></g></g><g class="mark-group role-axis" role="graphics-symbol" aria-roledescription="axis" aria-label="X-axis titled 'Sentiment' for a linear scale with values from 0.00 to 0.25"><g transform="translate(0.5,500.5)"><path class="background" aria-hidden="true" d="M0,0h0v0h0Z" pointer-events="none"/><g><g class="mark-rule role-axis-tick" pointer-events="none"><line transform="translate(0,0)" x2="0" y2="5" stroke="#888" stroke-width="1" opacity="1"/><line transform="translate(40,0)" x2="0" y2="5" stroke="#888" stroke-width="1" opacity="1"/><line transform="translate(80,0)" x2="0" y2="5" stroke="#888" stroke-width="1" opacity="1"/><line transform="translate(120,0)" x2="0" y2="5" stroke="#888" stroke-width="1" opacity="1"/><line transform="translate(160,0)" x2="0" y2="5" stroke="#888" stroke-width="1" opacity="1"/><line transform="translate(200,0)" x2="0" y2="5" stroke="#888" stroke-width="1" opacity="1"/><line transform="translate(240,0)" x2="0" y2="5" stroke="#888" stroke-width="1" opacity="1"/><line transform="translate(280,0)" x2="0" y2="5" stroke="#888" stroke-width="1" opacity="1"/><line transform="translate(320,0)" x2="0" y2="5" stroke="#888" stroke-width="1" opacity="1"/><line transform="translate(360,0)" x2="0" y2="5" stroke="#888" stroke-width="1" opacity="1"/><line transform="translate(400,0)" x2="0" y2="5" stroke="#888" stroke-width="1" opacity="1"/><line transform="translate(440,0)" x2="0" y2="5" stroke="#888" stroke-width="1" opacity="1"/><line transform="translate(480,0)" x2="0" y2="5" stroke="#888" stroke-width="1" opacity="1"/></g><g class="mark-text role-axis-label" pointer-events="none"><text text-anchor="start" transform="translate(0,15)" font-family="sans-serif" font-size="10px" fill="#000" opacity="1">0.00</text><text text-anchor="middle" transform="translate(40,15)" font-family="sans-serif" font-size="10px" fill="#000" opacity="1">0.02</text><text text-anchor="middle" transform="translate(80,15)" font-family="sans-serif" font-size="10px" fill="#000" opacity="1">0.04</text><text text-anchor="middle" transform="translate(120,15)" font-family="sans-serif" font-size="10px" fill="#000" opacity="1">0.06</text><text text-anchor="middle" transform="translate(160,15)" font-family="sans-serif" font-size="10px" fill="#000" opacity="1">0.08</text><text text-anchor="middle" transform="translate(200,15)" font-family="sans-serif" font-size="10px" fill="#000" opacity="1">0.10</text><text text-anchor="middle" transform="translate(240,15)" font-family="sans-serif" font-size="10px" fill="#000" opacity="1">0.12</text><text text-anchor="middle" transform="translate(280,15)" font-family="sans-serif" font-size="10px" fill="#000" opacity="1">0.14</text><text text-anchor="middle" transform="translate(320,15)" font-family="sans-serif" font-size="10px" fill="#000" opacity="1">0.16</text><text text-anchor="middle" transform="translate(360,15)" font-family="sans-serif" font-size="10px" fill="#000" opacity="1">0.18</text><text text-anchor="middle" transform="translate(400,15)" font-family="sans-serif" font-size="10px" fill="#000" opacity="1">0.20</text><text text-anchor="middle" transform="translate(440,15)" font-family="sans-serif" font-size="10px" fill="#000" opacity="1">0.22</text><text text-anchor="middle" transform="translate(480,15)" font-family="sans-serif" font-size="10px" fill="#000" opacity="1">0.24</text></g><g class="mark-rule role-axis-domain" pointer-events="none"><line transform="translate(0,0)" x2="500" y2="0" stroke="#e1e8f0" stroke-width="1" opacity="1"/></g><g class="mark-text role-axis-title" pointer-events="none"><text text-anchor="middle" transform="translate(250,36)" font-family="sans-serif" font-size="11px" font-weight="400" fill="#1c2a3a" opacity="1">Sentiment</text></g></g><path class="foreground" aria-hidden="true" d="" pointer-events="none" display="none"/></g></g><g class="mark-group role-axis" role="graphics-symbol" aria-roledescription="axis" aria-label="Y-axis titled 'Poll' for a linear scale with values from 0.0 to 0.4"><g transform="translate(0.5,0.5)"><path class="background" aria-hidden="true" d="M0,0h0v0h0Z" pointer-events="none"/><g><g class="mark-rule role-axis-tick" pointer-events="none"><line transform="translate(0,500)" x2="-5" y2="0" stroke="#888" stroke-width="1" opacity="1"/><line transform="translate(0,475)" x2="-5" y2="0" stroke="#888" stroke-width="1" opacity="1"/><line transform="translate(0,450)" x2="-5" y2="0" stroke="#888" stroke-width="1" opacity="1"/><line transform="translate(0,425)" x2="-5" y2="0" stroke="#888" stroke-width="1" opacity="1"/><line transform="translate(0,400)" x2="-5" y2="0" stroke="#888" stroke-width="1" opacity="1"/><line transform="translate(0,375)" x2="-5" y2="0" stroke="#888" stroke-width="1" opacity="1"/><line transform="translate(0,350)" x2="-5" y2="0" stroke="#888" stroke-width="1" opacity="1"/><line transform="translate(0,325)" x2="-5" y2="0" stroke="#888" stroke-width="1" opacity="1"/><line transform="translate(0,300)" x2="-5" y2="0" stroke="#888" stroke-width="1" opacity="1"/><line transform="translate(0,275)" x2="-5" y2="0" stroke="#888" stroke-width="1" opacity="1"/><line transform="translate(0,250)" x2="-5" y2="0" stroke="#888" stroke-width="1" opacity="1"/><line transform="translate(0,225)" x2="-5" y2="0" stroke="#888" stroke-width="1" opacity="1"/><line transform="translate(0,200)" x2="-5" y2="0" stroke="#888" stroke-width="1" opacity="1"/><line transform="translate(0,175)" x2="-5" y2="0" stroke="#888" stroke-width="1" opacity="1"/><line transform="translate(0,150)" x2="-5" y2="0" stroke="#888" stroke-width="1" opacity="1"/><line transform="translate(0,125)" x2="-5" y2="0" stroke="#888" stroke-width="1" opacity="1"/><line transform="translate(0,100)" x2="-5" y2="0" stroke="#888" stroke-width="1" opacity="1"/><line transform="translate(0,75)" x2="-5" y2="0" stroke="#888" stroke-width="1" opacity="1"/><line transform="translate(0,50)" x2="-5" y2="0" stroke="#888" stroke-width="1" opacity="1"/><line transform="translate(0,25)" x2="-5" y2="0" stroke="#888" stroke-width="1" opacity="1"/><line transform="translate(0,0)" x2="-5" y2="0" stroke="#888" stroke-width="1" opacity="1"/></g><g class="mark-text role-axis-label" pointer-events="none"><text text-anchor="end" transform="translate(-13,504)" font-family="sans-serif" font-size="12px" fill="#000" opacity="1">0.00</text><text text-anchor="end" transform="translate(-13,479)" font-family="sans-serif" font-size="12px" fill="#000" opacity="1">0.02</text><text text-anchor="end" transform="translate(-13,454)" font-family="sans-serif" font-size="12px" fill="#000" opacity="1">0.04</text><text text-anchor="end" transform="translate(-13,429)" font-family="sans-serif" font-size="12px" fill="#000" opacity="1">0.06</text><text text-anchor="end" transform="translate(-13,404)" font-family="sans-serif" font-size="12px" fill="#000" opacity="1">0.08</text><text text-anchor="end" transform="translate(-13,379)" font-family="sans-serif" font-size="12px" fill="#000" opacity="1">0.10</text><text text-anchor="end" transform="translate(-13,354)" font-family="sans-serif" font-size="12px" fill="#000" opacity="1">0.12</text><text text-anchor="end" transform="translate(-13,328.99999999999994)" font-family="sans-serif" font-size="12px" fill="#000" opacity="1">0.14</text><text text-anchor="end" transform="translate(-13,304.00000000000006)" font-family="sans-serif" font-size="12px" fill="#000" opacity="1">0.16</text><text text-anchor="end" transform="translate(-13,279)" font-family="sans-serif" font-size="12px" fill="#000" opacity="1">0.18</text><text text-anchor="end" transform="translate(-13,254)" font-family="sans-serif" font-size="12px" fill="#000" opacity="1">0.20</text><text text-anchor="end" transform="translate(-13,229.00000000000003)" font-family="sans-serif" font-size="12px" fill="#000" opacity="1">0.22</text><text text-anchor="end" transform="translate(-13,204)" font-family="sans-serif" font-size="12px" fill="#000" opacity="1">0.24</text><text text-anchor="end" transform="translate(-13,179)" font-family="sans-serif" font-size="12px" fill="#000" opacity="1">0.26</text><text text-anchor="end" transform="translate(-13,153.99999999999997)" font-family="sans-serif" font-size="12px" fill="#000" opacity="1">0.28</text><text text-anchor="end" transform="translate(-13,129.00000000000006)" font-family="sans-serif" font-size="12px" fill="#000" opacity="1">0.30</text><text text-anchor="end" transform="translate(-13,104.00000000000003)" font-family="sans-serif" font-size="12px" fill="#000" opacity="1">0.32</text><text text-anchor="end" transform="translate(-13,79.00000000000001)" font-family="sans-serif" font-size="12px" fill="#000" opacity="1">0.34</text><text text-anchor="end" transform="translate(-13,54.00000000000004)" font-family="sans-serif" font-size="12px" fill="#000" opacity="1">0.36</text><text text-anchor="end" transform="translate(-13,29.00000000000002)" font-family="sans-serif" font-size="12px" fill="#000" opacity="1">0.38</text><text text-anchor="end" transform="translate(-13,4)" font-family="sans-serif" font-size="12px" fill="#000" opacity="1">0.40</text></g><g class="mark-rule role-axis-domain" pointer-events="none"><line transform="translate(0,500)" x2="0" y2="-500" stroke="#888" stroke-width="1" opacity="1"/></g><g class="mark-text role-axis-title" pointer-events="none"><text text-anchor="middle" transform="translate(-47,250) rotate(-90) translate(0,-3)" font-family="sans-serif" font-size="12px" font-weight="400" fill="#1c2a3a" opacity="1">Poll</text></g></g><path class="foreground" aria-hidden="true" d="" pointer-events="none" display="none"/></g></g><g class="mark-symbol role-mark marks" role="graphics-object" aria-roledescription="symbol mark container"><path aria-label="sentiment: 0.137425294554; poll: 0.14; party: afd" role="graphics-symbol" aria-roledescription="point" transform="translate(274.8505891087704,324.99999999999994)" d="M2.739,0A2.739,2.739,0,1,1,-2.739,0A2.739,2.739,0,1,1,2.739,0" fill-opacity="1" stroke="#6583ff" stroke-width="2" opacity="0.7"/><path aria-label="sentiment: 0.139053182415; poll: 0.13; party: afd" role="graphics-symbol" aria-roledescription="point" transform="translate(278.1063648303514,337.5)" d="M2.739,0A2.739,2.739,0,1,1,-2.739,0A2.739,2.739,0,1,1,2.739,0" fill-opacity="1" stroke="#6583ff" stroke-width="2" opacity="0.7"/><path aria-label="sentiment: 0.170267786114; poll: 0.14; party: afd" role="graphics-symbol" aria-roledescription="point" transform="translate(340.53557222820007,324.99999999999994)" d="M2.739,0A2.739,2.739,0,1,1,-2.739,0A2.739,2.739,0,1,1,2.739,0" fill-opacity="1" stroke="#6583ff" stroke-width="2" opacity="0.7"/><path aria-label="sentiment: 0.133438759963; poll: 0.14; party: afd" role="graphics-symbol" aria-roledescription="point" transform="translate(266.87751992633747,324.99999999999994)" d="M2.739,0A2.739,2.739,0,1,1,-2.739,0A2.739,2.739,0,1,1,2.739,0" fill-opacity="1" stroke="#6583ff" stroke-width="2" opacity="0.7"/><path aria-label="sentiment: 0.139721829801; poll: 0.14; party: afd" role="graphics-symbol" aria-roledescription="point" transform="translate(279.44365960119455,324.99999999999994)" d="M2.739,0A2.739,2.739,0,1,1,-2.739,0A2.739,2.739,0,1,1,2.739,0" fill-opacity="1" stroke="#6583ff" stroke-width="2" opacity="0.7"/><path aria-label="sentiment: 0.156352892158; poll: 0.143; party: afd" role="graphics-symbol" aria-roledescription="point" transform="translate(312.70578431694105,321.25)" d="M2.739,0A2.739,2.739,0,1,1,-2.739,0A2.739,2.739,0,1,1,2.739,0" fill-opacity="1" stroke="#6583ff" stroke-width="2" opacity="0.7"/><path aria-label="sentiment: 0.141482056738; poll: 0.37; party: csu" role="graphics-symbol" aria-roledescription="point" transform="translate(282.96411347571944,37.500000000000036)" d="M-2.739,-2.739h5.477v5.477h-5.477Z" fill-opacity="1" stroke="#ffa83f" stroke-width="2" opacity="0.7"/><path aria-label="sentiment: 0.113680956344; poll: 0.366666666667; party: csu" role="graphics-symbol" aria-roledescription="point" transform="translate(227.36191268732145,41.66666666666674)" d="M-2.739,-2.739h5.477v5.477h-5.477Z" fill-opacity="1" stroke="#ffa83f" stroke-width="2" opacity="0.7"/><path aria-label="sentiment: 0.187275491291; poll: 0.36; party: csu" role="graphics-symbol" aria-roledescription="point" transform="translate(374.550982581818,50.00000000000004)" d="M-2.739,-2.739h5.477v5.477h-5.477Z" fill-opacity="1" stroke="#ffa83f" stroke-width="2" opacity="0.7"/><path aria-label="sentiment: 0.128623864023; poll: 0.36; party: csu" role="graphics-symbol" aria-roledescription="point" transform="translate(257.2477280454198,50.00000000000004)" d="M-2.739,-2.739h5.477v5.477h-5.477Z" fill-opacity="1" stroke="#ffa83f" stroke-width="2" opacity="0.7"/><path aria-label="sentiment: 0.125595881565; poll: 0.36; party: csu" role="graphics-symbol" aria-roledescription="point" transform="translate(251.1917631295621,50.00000000000004)" d="M-2.739,-2.739h5.477v5.477h-5.477Z" fill-opacity="1" stroke="#ffa83f" stroke-width="2" opacity="0.7"/><path aria-label="sentiment: 0.152192937043; poll: 0.37; party: csu" role="graphics-symbol" aria-roledescription="point" transform="translate(304.38587408696503,37.500000000000036)" d="M-2.739,-2.739h5.477v5.477h-5.477Z" fill-opacity="1" stroke="#ffa83f" stroke-width="2" opacity="0.7"/><path aria-label="sentiment: 0.246732226462; poll: 0.04; party: fdp" role="graphics-symbol" aria-roledescription="point" transform="translate(493.4644529249464,450)" d="M0,-2.372L-2.739,2.372L2.739,2.372Z" fill-opacity="1" stroke="#e2474d" stroke-width="2" opacity="0.7"/><path aria-label="sentiment: 0.215098629247; poll: 0.0366666666667; party: fdp" role="graphics-symbol" aria-roledescription="point" transform="translate(430.19725849394496,454.1666666666667)" d="M0,-2.372L-2.739,2.372L2.739,2.372Z" fill-opacity="1" stroke="#e2474d" stroke-width="2" opacity="0.7"/><path aria-label="sentiment: 0.110111605483; poll: 0.03; party: fdp" role="graphics-symbol" aria-roledescription="point" transform="translate(220.22321096527276,462.5)" d="M0,-2.372L-2.739,2.372L2.739,2.372Z" fill-opacity="1" stroke="#e2474d" stroke-width="2" opacity="0.7"/><path aria-label="sentiment: 0.137734809813; poll: 0.03; party: fdp" role="graphics-symbol" aria-roledescription="point" transform="translate(275.4696196262319,462.5)" d="M0,-2.372L-2.739,2.372L2.739,2.372Z" fill-opacity="1" stroke="#e2474d" stroke-width="2" opacity="0.7"/><path aria-label="sentiment: 0.11679787419; poll: 0.04; party: fdp" role="graphics-symbol" aria-roledescription="point" transform="translate(233.59574838037554,450)" d="M0,-2.372L-2.739,2.372L2.739,2.372Z" fill-opacity="1" stroke="#e2474d" stroke-width="2" opacity="0.7"/><path aria-label="sentiment: 0.131874881009; poll: 0.03; party: fdp" role="graphics-symbol" aria-roledescription="point" transform="translate(263.74976201878,462.5)" d="M0,-2.372L-2.739,2.372L2.739,2.372Z" fill-opacity="1" stroke="#e2474d" stroke-width="2" opacity="0.7"/><path aria-label="sentiment: 0.127839290494; poll: 0.15; party: fw" role="graphics-symbol" aria-roledescription="point" transform="translate(255.6785809885163,312.5)" d="M-2.739,-1.095L-2.739,1.095L-1.095,1.095L-1.095,2.739L1.095,2.739L1.095,1.095L2.739,1.095L2.739,-1.095L1.095,-1.095L1.095,-2.739L-1.095,-2.739L-1.095,-1.095Z" fill-opacity="1" stroke="#4aa148" stroke-width="2" opacity="0.7"/><path aria-label="sentiment: 0.12431569345; poll: 0.163333333333; party: fw" role="graphics-symbol" aria-roledescription="point" transform="translate(248.63138689929795,295.8333333333333)" d="M-2.739,-1.095L-2.739,1.095L-1.095,1.095L-1.095,2.739L1.095,2.739L1.095,1.095L2.739,1.095L2.739,-1.095L1.095,-1.095L1.095,-2.739L-1.095,-2.739L-1.095,-1.095Z" fill-opacity="1" stroke="#4aa148" stroke-width="2" opacity="0.7"/><path aria-label="sentiment: 0.148962701736; poll: 0.17; party: fw" role="graphics-symbol" aria-roledescription="point" transform="translate(297.92540347100584,287.5)" d="M-2.739,-1.095L-2.739,1.095L-1.095,1.095L-1.095,2.739L1.095,2.739L1.095,1.095L2.739,1.095L2.739,-1.095L1.095,-1.095L1.095,-2.739L-1.095,-2.739L-1.095,-1.095Z" fill-opacity="1" stroke="#4aa148" stroke-width="2" opacity="0.7"/><path aria-label="sentiment: 0.127401011294; poll: 0.17; party: fw" role="graphics-symbol" aria-roledescription="point" transform="translate(254.80202258733925,287.5)" d="M-2.739,-1.095L-2.739,1.095L-1.095,1.095L-1.095,2.739L1.095,2.739L1.095,1.095L2.739,1.095L2.739,-1.095L1.095,-1.095L1.095,-2.739L-1.095,-2.739L-1.095,-1.095Z" fill-opacity="1" stroke="#4aa148" stroke-width="2" opacity="0.7"/><path aria-label="sentiment: 0.134457083862; poll: 0.153333333333; party: fw" role="graphics-symbol" aria-roledescription="point" transform="translate(268.9141677246601,308.33333333333337)" d="M-2.739,-1.095L-2.739,1.095L-1.095,1.095L-1.095,2.739L1.095,2.739L1.095,1.095L2.739,1.095L2.739,-1.095L1.095,-1.095L1.095,-2.739L-1.095,-2.739L-1.095,-1.095Z" fill-opacity="1" stroke="#4aa148" stroke-width="2" opacity="0.7"/><path aria-label="sentiment: 0.126443651006; poll: 0.154; party: fw" role="graphics-symbol" aria-roledescription="point" transform="translate(252.88730201147297,307.5)" d="M-2.739,-1.095L-2.739,1.095L-1.095,1.095L-1.095,2.739L1.095,2.739L1.095,1.095L2.739,1.095L2.739,-1.095L1.095,-1.095L1.095,-2.739L-1.095,-2.739L-1.095,-1.095Z" fill-opacity="1" stroke="#4aa148" stroke-width="2" opacity="0.7"/><path aria-label="sentiment: 0.215627985562; poll: 0.14; party: gruene" role="graphics-symbol" aria-roledescription="point" transform="translate(431.2559711231498,324.99999999999994)" d="M-2.739,0L0,-2.739L2.739,0L0,2.739Z" fill-opacity="1" stroke="#2d4cdb" stroke-width="2" opacity="0.7"/><path aria-label="sentiment: 0.188368083369; poll: 0.15; party: gruene" role="graphics-symbol" aria-roledescription="point" transform="translate(376.73616673725394,312.5)" d="M-2.739,0L0,-2.739L2.739,0L0,2.739Z" fill-opacity="1" stroke="#2d4cdb" stroke-width="2" opacity="0.7"/><path aria-label="sentiment: 0.213366884001; poll: 0.14; party: gruene" role="graphics-symbol" aria-roledescription="point" transform="translate(426.7337680023745,324.99999999999994)" d="M-2.739,0L0,-2.739L2.739,0L0,2.739Z" fill-opacity="1" stroke="#2d4cdb" stroke-width="2" opacity="0.7"/><path aria-label="sentiment: 0.170412391856; poll: 0.14; party: gruene" role="graphics-symbol" aria-roledescription="point" transform="translate(340.8247837127078,324.99999999999994)" d="M-2.739,0L0,-2.739L2.739,0L0,2.739Z" fill-opacity="1" stroke="#2d4cdb" stroke-width="2" opacity="0.7"/><path aria-label="sentiment: 0.13988860857; poll: 0.153333333333; party: gruene" role="graphics-symbol" aria-roledescription="point" transform="translate(279.77721714074704,308.33333333333337)" d="M-2.739,0L0,-2.739L2.739,0L0,2.739Z" fill-opacity="1" stroke="#2d4cdb" stroke-width="2" opacity="0.7"/><path aria-label="sentiment: 0.206342058798; poll: 0.152; party: gruene" role="graphics-symbol" aria-roledescription="point" transform="translate(412.68411759633517,310.00000000000006)" d="M-2.739,0L0,-2.739L2.739,0L0,2.739Z" fill-opacity="1" stroke="#2d4cdb" stroke-width="2" opacity="0.7"/><path aria-label="sentiment: 0.0182214923446; poll: 0.02; party: linke" role="graphics-symbol" aria-roledescription="point" transform="translate(36.442984689238656,475)" d="M2.372,0L-2.372,-2.739L-2.372,2.739Z" fill-opacity="1" stroke="#b7641f" stroke-width="2" opacity="0.7"/><path aria-label="sentiment: 0.0840735785964; poll: 0.01; party: linke" role="graphics-symbol" aria-roledescription="point" transform="translate(168.14715719285823,487.5)" d="M2.372,0L-2.372,-2.739L-2.372,2.739Z" fill-opacity="1" stroke="#b7641f" stroke-width="2" opacity="0.7"/><path aria-label="sentiment: 0.0114148323244; poll: 0.01; party: linke" role="graphics-symbol" aria-roledescription="point" transform="translate(22.829664648767928,487.5)" d="M2.372,0L-2.372,-2.739L-2.372,2.739Z" fill-opacity="1" stroke="#b7641f" stroke-width="2" opacity="0.7"/><path aria-label="sentiment: 0.204491986764; poll: 0.01; party: linke" role="graphics-symbol" aria-roledescription="point" transform="translate(408.9839735271359,487.5)" d="M2.372,0L-2.372,-2.739L-2.372,2.739Z" fill-opacity="1" stroke="#b7641f" stroke-width="2" opacity="0.7"/><path aria-label="sentiment: 0.198640623004; poll: 0.02; party: linke" role="graphics-symbol" aria-roledescription="point" transform="translate(397.2812460083541,475)" d="M2.372,0L-2.372,-2.739L-2.372,2.739Z" fill-opacity="1" stroke="#b7641f" stroke-width="2" opacity="0.7"/><path aria-label="sentiment: 0.0837277834687; poll: 0.015; party: linke" role="graphics-symbol" aria-roledescription="point" transform="translate(167.45556693744595,481.25)" d="M2.372,0L-2.372,-2.739L-2.372,2.739Z" fill-opacity="1" stroke="#b7641f" stroke-width="2" opacity="0.7"/><path aria-label="sentiment: 0.112671653845; poll: 0.09; party: spd" role="graphics-symbol" aria-roledescription="point" transform="translate(225.34330768965899,387.5)" d="M0,2.372L-2.739,-2.372L2.739,-2.372Z" fill-opacity="1" stroke="#bc1227" stroke-width="2" opacity="0.7"/><path aria-label="sentiment: 0.135409876579; poll: 0.09; party: spd" role="graphics-symbol" aria-roledescription="point" transform="translate(270.8197531589723,387.5)" d="M0,2.372L-2.739,-2.372L2.739,-2.372Z" fill-opacity="1" stroke="#bc1227" stroke-width="2" opacity="0.7"/><path aria-label="sentiment: 0.158600699051; poll: 0.09; party: spd" role="graphics-symbol" aria-roledescription="point" transform="translate(317.20139810256086,387.5)" d="M0,2.372L-2.739,-2.372L2.739,-2.372Z" fill-opacity="1" stroke="#bc1227" stroke-width="2" opacity="0.7"/><path aria-label="sentiment: 0.0978971762874; poll: 0.09; party: spd" role="graphics-symbol" aria-roledescription="point" transform="translate(195.7943525748278,387.5)" d="M0,2.372L-2.739,-2.372L2.739,-2.372Z" fill-opacity="1" stroke="#bc1227" stroke-width="2" opacity="0.7"/><path aria-label="sentiment: 0.144898099008; poll: 0.09; party: spd" role="graphics-symbol" aria-roledescription="point" transform="translate(289.79619801510677,387.5)" d="M0,2.372L-2.739,-2.372L2.739,-2.372Z" fill-opacity="1" stroke="#bc1227" stroke-width="2" opacity="0.7"/><path aria-label="sentiment: 0.143065796516; poll: 0.087; party: spd" role="graphics-symbol" aria-roledescription="point" transform="translate(286.13159303205947,391.25)" d="M0,2.372L-2.739,-2.372L2.739,-2.372Z" fill-opacity="1" stroke="#bc1227" stroke-width="2" opacity="0.7"/></g><g class="mark-group role-legend" role="graphics-symbol" aria-roledescription="legend" aria-label="Symbol legend titled 'party' for shape and stroke color with 7 values: afd, csu, fdp, fw, gruene, linke, spd"><g transform="translate(518,0)"><path class="background" aria-hidden="true" d="M0,0h55v128h-55Z" pointer-events="none"/><g><g class="mark-group role-legend-entry"><g transform="translate(0,23)"><path class="background" aria-hidden="true" d="M0,0h0v0h0Z" pointer-events="none"/><g><g class="mark-group role-scope" role="graphics-object" aria-roledescription="group mark container"><g transform="translate(0,0)"><path class="background" aria-hidden="true" d="M0,0h55v12.5h-55Z" pointer-events="none" opacity="1"/><g><g class="mark-symbol role-legend-symbol" pointer-events="none"><path transform="translate(6,6)" d="M5,0A5,5,0,1,1,-5,0A5,5,0,1,1,5,0" stroke="#6583ff" stroke-width="1.5" opacity="0.7"/></g><g class="mark-text role-legend-label" pointer-events="none"><text text-anchor="start" transform="translate(16,10)" font-family="sans-serif" font-size="12px" fill="#000" opacity="1">afd</text></g></g><path class="foreground" aria-hidden="true" d="" pointer-events="none" display="none"/></g><g transform="translate(0,16)"><path class="background" aria-hidden="true" d="M0,0h55v12.5h-55Z" pointer-events="none" opacity="1"/><g><g class="mark-symbol role-legend-symbol" pointer-events="none"><path transform="translate(6,6)" d="M-5,-5h10v10h-10Z" stroke="#ffa83f" stroke-width="1.5" opacity="0.7"/></g><g class="mark-text role-legend-label" pointer-events="none"><text text-anchor="start" transform="translate(16,10)" font-family="sans-serif" font-size="12px" fill="#000" opacity="1">csu</text></g></g><path class="foreground" aria-hidden="true" d="" pointer-events="none" display="none"/></g><g transform="translate(0,31)"><path class="background" aria-hidden="true" d="M0,0h55v12h-55Z" pointer-events="none" opacity="1"/><g><g class="mark-symbol role-legend-symbol" pointer-events="none"><path transform="translate(6,6)" d="M0,-4.33L-5,4.33L5,4.33Z" stroke="#e2474d" stroke-width="1.5" opacity="0.7"/></g><g class="mark-text role-legend-label" pointer-events="none"><text text-anchor="start" transform="translate(16,10)" font-family="sans-serif" font-size="12px" fill="#000" opacity="1">fdp</text></g></g><path class="foreground" aria-hidden="true" d="" pointer-events="none" display="none"/></g><g transform="translate(0,46)"><path class="background" aria-hidden="true" d="M0,0h55v12.5h-55Z" pointer-events="none" opacity="1"/><g><g class="mark-symbol role-legend-symbol" pointer-events="none"><path transform="translate(6,6)" d="M-5,-2L-5,2L-2,2L-2,5L2,5L2,2L5,2L5,-2L2,-2L2,-5L-2,-5L-2,-2Z" stroke="#4aa148" stroke-width="1.5" opacity="0.7"/></g><g class="mark-text role-legend-label" pointer-events="none"><text text-anchor="start" transform="translate(16,10)" font-family="sans-serif" font-size="12px" fill="#000" opacity="1">fw</text></g></g><path class="foreground" aria-hidden="true" d="" pointer-events="none" display="none"/></g><g transform="translate(0,62)"><path class="background" aria-hidden="true" d="M0,0h55v12.5h-55Z" pointer-events="none" opacity="1"/><g><g class="mark-symbol role-legend-symbol" pointer-events="none"><path transform="translate(6,6)" d="M-5,0L0,-5L5,0L0,5Z" stroke="#2d4cdb" stroke-width="1.5" opacity="0.7"/></g><g class="mark-text role-legend-label" pointer-events="none"><text text-anchor="start" transform="translate(16,10)" font-family="sans-serif" font-size="12px" fill="#000" opacity="1">gruene</text></g></g><path class="foreground" aria-hidden="true" d="" pointer-events="none" display="none"/></g><g transform="translate(0,78)"><path class="background" aria-hidden="true" d="M0,0h55v12.5h-55Z" pointer-events="none" opacity="1"/><g><g class="mark-symbol role-legend-symbol" pointer-events="none"><path transform="translate(6,6)" d="M4.33,0L-4.33,-5L-4.33,5Z" stroke="#b7641f" stroke-width="1.5" opacity="0.7"/></g><g class="mark-text role-legend-label" pointer-events="none"><text text-anchor="start" transform="translate(16,10)" font-family="sans-serif" font-size="12px" fill="#000" opacity="1">linke</text></g></g><path class="foreground" aria-hidden="true" d="" pointer-events="none" display="none"/></g><g transform="translate(0,93)"><path class="background" aria-hidden="true" d="M0,0h55v12h-55Z" pointer-events="none" opacity="1"/><g><g class="mark-symbol role-legend-symbol" pointer-events="none"><path transform="translate(6,6)" d="M0,4.33L-5,-4.33L5,-4.33Z" stroke="#bc1227" stroke-width="1.5" opacity="0.7"/></g><g class="mark-text role-legend-label" pointer-events="none"><text text-anchor="start" transform="translate(16,10)" font-family="sans-serif" font-size="12px" fill="#000" opacity="1">spd</text></g></g><path class="foreground" aria-hidden="true" d="" pointer-events="none" display="none"/></g></g></g><path class="foreground" aria-hidden="true" d="" pointer-events="none" display="none"/></g></g><g class="mark-text role-legend-title" pointer-events="none"><text text-anchor="start" transform="translate(0,10)" font-family="sans-serif" font-size="13px" font-weight="400" fill="#000" opacity="1">party</text></g></g><path class="foreground" aria-hidden="true" d="" pointer-events="none" display="none"/></g></g><g class="mark-group role-title"><g transform="translate(256.5,-28)"><path class="background" aria-hidden="true" d="M0,0h0v0h0Z" pointer-events="none"/><g><g class="mark-text role-title-text" role="graphics-symbol" aria-roledescription="title" aria-label="Title text 'Dependency of Polling Results From Sentiment.'" pointer-events="none"><text text-anchor="middle" transform="translate(0,14)" font-family="Inter" font-size="18px" font-weight="400" fill="#445668" opacity="1">Dependency of Polling Results From Sentiment.</text></g></g><path class="foreground" aria-hidden="true" d="" pointer-events="none" display="none"/></g></g></g><path class="foreground" aria-hidden="true" d="" display="none"/></g></g></g></svg>