<svg xmlns="http://www.w3.org/2000/svg" xmlns:xlink="http://www.w3.org/1999/xlink" version="1.1" class="marks" width="628" height="376" viewBox="0 0 628 376"><rect width="628" height="376" fill="#fff"/><g fill="none" stroke-miterlimit="10" transform="translate(65,33)"><g class="mark-group role-frame root" role="graphics-object" aria-roledescription="group mark container"><g transform="translate(0,0)"><path class="background" aria-hidden="true" d="M0.5,0.5h500v300h-500Z" stroke="#ddd"/><g><g class="mark-group role-axis" aria-hidden="true"><g transform="translate(0.5,300.5)"><path class="background" aria-hidden="true" d="M0,0h0v0h0Z" pointer-events="none"/><g><g class="mark-rule role-axis-grid" pointer-events="none"><line transform="translate(20,-300)" x2="0" y2="300" stroke="#ddd" stroke-width="1" opacity="1"/><line transform="translate(64,-300)" x2="0" y2="300" stroke="#ddd" stroke-width="1" opacity="1"/><line transform="translate(107,-300)" x2="0" y2="300" stroke="#ddd" stroke-width="1" opacity="1"/><line transform="translate(151,-300)" x2="0" y2="300" stroke="#ddd" stroke-width="1" opacity="1"/><line transform="translate(195,-300)" x2="0" y2="300" stroke="#ddd" stroke-width="1" opacity="1"/><line transform="translate(238,-300)" x2="0" y2="300" stroke="#ddd" stroke-width="1" opacity="1"/><line transform="translate(282,-300)" x2="0" y2="300" stroke="#ddd" stroke-width="1" opacity="1"/><line transform="translate(326,-300)" x2="0" y2="300" stroke="#ddd" stroke-width="1" opacity="1"/><line transform="translate(369,-300)" x2="0" y2="300" stroke="#ddd" stroke-width="1" opacity="1"/><line transform="translate(413,-300)" x2="0" y2="300" stroke="#ddd" stroke-width="1" opacity="1"/><line transform="translate(457,-300)" x2="0" y2="300" stroke="#ddd" stroke-width="1" opacity="1"/></g></g><path class="foreground" aria-hidden="true" d="" pointer-events="none" display="none"/></g></g><g class="mark-group role-axis" aria-hidden="true"><g transform="translate(0.5,0.5)"><path class="background" aria-hidden="true" d="M0,0h0v0h0Z" pointer-events="none"/><g><g class="mark-rule role-axis-grid" pointer-events="none"><line transform="translate(0,300)" x2="500" y2="0" stroke="#e1e8f0" stroke-width="1" opacity="1"/><line transform="translate(0,270)" x2="500" y2="0" stroke="#e1e8f0" stroke-width="1" opacity="1"/><line transform="translate(0,240)" x2="500" y2="0" stroke="#e1e8f0" stroke-width="1" opacity="1"/><line transform="translate(0,210)" x2="500" y2="0" stroke="#e1e8f0" stroke-width="1" opacity="1"/><line transform="translate(0,180)" x2="500" y2="0" stroke="#e1e8f0" stroke-width="1" opacity="1"/><line transform="translate(0,150)" x2="500" y2="0" stroke="#e1e8f0" stroke-width="1" opacity="1"/><line transform="translate(0,120)" x2="500" y2="0" stroke="#e1e8f0" stroke-width="1" opacity="1"/><line transform="translate(0,90)" x2="500" y2="0" stroke="#e1e8f0" stroke-width="1" opacity="1"/><line transform="translate(0,60)" x2="500" y2="0" stroke="#e1e8f0" stroke-width="1" opacity="1"/><line transform="translate(0,30)" x2="500" y2="0" stroke="#e1e8f0" stroke-width="1" opacity="1"/><line transform="translate(0,0)" x2="500" y2="0" stroke="#e1e8f0" stroke-width="1" opacity="1"/></g></g><path class="foreground" aria-hidden="true" d="" pointer-events="none" display="none"/></g></g><g class="mark-group role-axis" role="graphics-symbol" aria-roledescription="axis" aria-label="X-axis titled 'date' for a time scale with values from Wednesday, 30 August 2023, 6:16:32 PM to Saturday, 18 November 2023, 10:04:01 PM"><g transform="translate(0.5,300.5)"><path class="background" aria-hidden="true" d="M0,0h0v0h0Z" pointer-events="none"/><g><g class="mark-rule role-axis-tick" pointer-events="none"><line transform="translate(20,0)" x2="0" y2="5" stroke="#888" stroke-width="1" opacity="1"/><line transform="translate(64,0)" x2="0" y2="5" stroke="#888" stroke-width="1" opacity="1"/><line transform="translate(107,0)" x2="0" y2="5" stroke="#888" stroke-width="1" opacity="1"/><line transform="translate(151,0)" x2="0" y2="5" stroke="#888" stroke-width="1" opacity="1"/><line transform="translate(195,0)" x2="0" y2="5" stroke="#888" stroke-width="1" opacity="1"/><line transform="translate(238,0)" x2="0" y2="5" stroke="#888" stroke-width="1" opacity="1"/><line transform="translate(282,0)" x2="0" y2="5" stroke="#888" stroke-width="1" opacity="1"/><line transform="translate(326,0)" x2="0" y2="5" stroke="#888" stroke-width="1" opacity="1"/><line transform="translate(369,0)" x2="0" y2="5" stroke="#888" stroke-width="1" opacity="1"/><line transform="translate(413,0)" x2="0" y2="5" stroke="#888" stroke-width="1" opacity="1"/><line transform="translate(457,0)" x2="0" y2="5" stroke="#888" stroke-width="1" opacity="1"/></g><g class="mark-text role-axis-label" pointer-events="none"><text text-anchor="middle" transform="translate(20.1903554050374,15)" font-family="sans-serif" font-size="10px" fill="#000" opacity="1">Sep 03</text><text text-anchor="middle" transform="translate(63.83144840082959,15)" font-family="sans-serif" font-size="10px" fill="#000" opacity="1">Sep 10</text><text text-anchor="middle" transform="translate(107.47254139662176,15)" font-family="sans-serif" font-size="10px" fill="#000" opacity="1">Sep 17</text><text text-anchor="middle" transform="translate(151.11363439241396,15)" font-family="sans-serif" font-size="10px" fill="#000" opacity="1">Sep 24</text><text text-anchor="middle" transform="translate(194.75472738820616,15)" font-family="sans-serif" font-size="10px" fill="#000" opacity="1">October</text><text text-anchor="middle" transform="translate(238.3958203839983,15)" font-family="sans-serif" font-size="10px" fill="#000" opacity="1">Oct 08</text><text text-anchor="middle" transform="translate(282.0369133797905,15)" font-family="sans-serif" font-size="10px" fill="#000" opacity="1">Oct 15</text><text text-anchor="middle" transform="translate(325.6780063755827,15)" font-family="sans-serif" font-size="10px" fill="#000" opacity="1">Oct 22</text><text text-anchor="middle" transform="translate(369.3190993713749,15)" font-family="sans-serif" font-size="10px" fill="#000" opacity="1">Oct 29</text><text text-anchor="middle" transform="translate(413.2199607778563,15)" font-family="sans-serif" font-size="10px" fill="#000" opacity="1">Nov 05</text><text text-anchor="middle" transform="translate(456.8610537736485,15)" font-family="sans-serif" font-size="10px" fill="#000" opacity="1">Nov 12</text></g><g class="mark-rule role-axis-domain" pointer-events="none"><line transform="translate(0,0)" x2="500" y2="0" stroke="#e1e8f0" stroke-width="1" opacity="1"/></g><g class="mark-text role-axis-title" pointer-events="none"><text text-anchor="middle" transform="translate(250,36)" font-family="sans-serif" font-size="11px" font-weight="400" fill="#1c2a3a" opacity="1">date</text></g></g><path class="foreground" aria-hidden="true" d="" pointer-events="none" display="none"/></g></g><g class="mark-group role-axis" role="graphics-symbol" aria-roledescription="axis" aria-label="Y-axis titled 'sentiment' for a linear scale with values from −1.0 to 1.0"><g transform="translate(0.5,0.5)"><path class="background" aria-hidden="true" d="M0,0h0v0h0Z" pointer-events="none"/><g><g class="mark-rule role-axis-tick" pointer-events="none"><line transform="translate(0,300)" x2="-5" y2="0" stroke="#888" stroke-width="1" opacity="1"/><line transform="translate(0,270)" x2="-5" y2="0" stroke="#888" stroke-width="1" opacity="1"/><line transform="translate(0,240)" x2="-5" y2="0" stroke="#888" stroke-width="1" opacity="1"/><line transform="translate(0,210)" x2="-5" y2="0" stroke="#888" stroke-width="1" opacity="1"/><line transform="translate(0,180)" x2="-5" y2="0" stroke="#888" stroke-width="1" opacity="1"/><line transform="translate(0,150)" x2="-5" y2="0" stroke="#888" stroke-width="1" opacity="1"/><line transform="translate(0,120)" x2="-5" y2="0" stroke="#888" stroke-width="1" opacity="1"/><line transform="translate(0,90)" x2="-5" y2="0" stroke="#888" stroke-width="1" opacity="1"/><line transform="translate(0,60)" x2="-5" y2="0" stroke="#888" stroke-width="1" opacity="1"/><line transform="translate(0,30)" x2="-5" y2="0" stroke="#888" stroke-width="1" opacity="1"/><line transform="translate(0,0)" x2="-5" y2="0" stroke="#888" stroke-width="1" opacity="1"/></g><g class="mark-text role-axis-label" pointer-events="none"><text text-anchor="end" transform="translate(-13,304)" font-family="sans-serif" font-size="12px" fill="#000" opacity="1">−1.0</text><text text-anchor="end" transform="translate(-13,274)" font-family="sans-serif" font-size="12px" fill="#000" opacity="1">−0.8</text><text text-anchor="end" transform="translate(-13,244)" font-family="sans-serif" font-size="12px" fill="#000" opacity="1">−0.6</text><text text-anchor="end" transform="translate(-13,214)" font-family="sans-serif" font-size="12px" fill="#000" opacity="1">−0.4</text><text text-anchor="end" transform="translate(-13,184)" font-family="sans-serif" font-size="12px" fill="#000" opacity="1">−0.2</text><text text-anchor="end" transform="translate(-13,154)" font-family="sans-serif" font-size="12px" fill="#000" opacity="1">0.0</text><text text-anchor="end" transform="translate(-13,124)" font-family="sans-serif" font-size="12px" fill="#000" opacity="1">0.2</text><text text-anchor="end" transform="translate(-13,94.00000000000001)" font-family="sans-serif" font-size="12px" fill="#000" opacity="1">0.4</text><text text-anchor="end" transform="translate(-13,63.999999999999986)" font-family="sans-serif" font-size="12px" fill="#000" opacity="1">0.6</text><text text-anchor="end" transform="translate(-13,33.99999999999999)" font-family="sans-serif" font-size="12px" fill="#000" opacity="1">0.8</text><text text-anchor="end" transform="translate(-13,4)" font-family="sans-serif" font-size="12px" fill="#000" opacity="1">1.0</text></g><g class="mark-rule role-axis-domain" pointer-events="none"><line transform="translate(0,300)" x2="0" y2="-300" stroke="#888" stroke-width="1" opacity="1"/></g><g class="mark-text role-axis-title" pointer-events="none"><text text-anchor="middle" transform="translate(-47,150) rotate(-90) translate(0,-3)" font-family="sans-serif" font-size="12px" font-weight="400" fill="#1c2a3a" opacity="1">sentiment</text></g></g><path class="foreground" aria-hidden="true" d="" pointer-events="none" display="none"/></g></g><g class="mark-symbol role-mark layer_0_marks" role="graphics-object" aria-roledescription="symbol mark container"><path aria-label="date: Aug 30, 2023; sentiment: −0.0176644925959; Region: de" role="graphics-symbol" aria-roledescription="point" transform="translate(0,152.64967388939112)" d="M-2.739,-2.739h5.477v5.477h-5.477Z" stroke="#ffa83f" stroke-width="2" opacity="0.7"/><path aria-label="date: Sep 05, 2023; sentiment: −0.00960184750147; Region: de" role="graphics-symbol" aria-roledescription="point" transform="translate(34.19382100426756,151.44027712522075)" d="M-2.739,-2.739h5.477v5.477h-5.477Z" stroke="#ffa83f" stroke-width="2" opacity="0.7"/><path aria-label="date: Sep 06, 2023; sentiment: −0.0297511499375; Region: de" role="graphics-symbol" aria-roledescription="point" transform="translate(43.764050043518424,154.46267249062657)" d="M-2.739,-2.739h5.477v5.477h-5.477Z" stroke="#ffa83f" stroke-width="2" opacity="0.7"/><path aria-label="date: Sep 12, 2023; sentiment: −0.298542305827; Region: de" role="graphics-symbol" aria-roledescription="point" transform="translate(77.94365594308994,194.78134587407112)" d="M-2.739,-2.739h5.477v5.477h-5.477Z" stroke="#ffa83f" stroke-width="2" opacity="0.7"/><path aria-label="date: Sep 14, 2023; sentiment: −0.970151489135; Region: de" role="graphics-symbol" aria-roledescription="point" transform="translate(93.8209176780918,295.5227233702317)" d="M-2.739,-2.739h5.477v5.477h-5.477Z" stroke="#ffa83f" stroke-width="2" opacity="0.7"/><path aria-label="date: Sep 18, 2023; sentiment: −0.00648542761337; Region: de" role="graphics-symbol" aria-roledescription="point" transform="translate(118.48838164135825,150.97281414200552)" d="M-2.739,-2.739h5.477v5.477h-5.477Z" stroke="#ffa83f" stroke-width="2" opacity="0.7"/><path aria-label="date: Sep 20, 2023; sentiment: −0.993183131795; Region: de" role="graphics-symbol" aria-roledescription="point" transform="translate(128.41687461368468,298.9774697693065)" d="M-2.739,-2.739h5.477v5.477h-5.477Z" stroke="#ffa83f" stroke-width="2" opacity="0.7"/><path aria-label="date: Sep 23, 2023; sentiment: −0.00319876568392; Region: de" role="graphics-symbol" aria-roledescription="point" transform="translate(149.37260877766118,150.47981485258788)" d="M-2.739,-2.739h5.477v5.477h-5.477Z" stroke="#ffa83f" stroke-width="2" opacity="0.7"/><path aria-label="date: Sep 26, 2023; sentiment: −0.920287443325; Region: de" role="graphics-symbol" aria-roledescription="point" transform="translate(166.13416547738436,288.0431164987385)" d="M-2.739,-2.739h5.477v5.477h-5.477Z" stroke="#ffa83f" stroke-width="2" opacity="0.7"/><path aria-label="date: Sep 27, 2023; sentiment: −0.417996287346; Region: de" role="graphics-symbol" aria-roledescription="point" transform="translate(171.38091011017212,212.69944310188293)" d="M-2.739,-2.739h5.477v5.477h-5.477Z" stroke="#ffa83f" stroke-width="2" opacity="0.7"/><path aria-label="date: Oct 01, 2023; sentiment: −0.0133923157118; Region: de" role="graphics-symbol" aria-roledescription="point" transform="translate(196.55600484266046,152.0088473567739)" d="M-2.739,-2.739h5.477v5.477h-5.477Z" stroke="#ffa83f" stroke-width="2" opacity="0.7"/><path aria-label="date: Oct 04, 2023; sentiment: 0.940011158586; Region: de" role="graphics-symbol" aria-roledescription="point" transform="translate(216.2050317429782,8.99832621216774)" d="M-2.739,-2.739h5.477v5.477h-5.477Z" stroke="#ffa83f" stroke-width="2" opacity="0.7"/><path aria-label="date: Oct 05, 2023; sentiment: −0.918235395104; Region: de" role="graphics-symbol" aria-roledescription="point" transform="translate(223.33755072158615,287.73530926555395)" d="M-2.739,-2.739h5.477v5.477h-5.477Z" stroke="#ffa83f" stroke-width="2" opacity="0.7"/><path aria-label="date: Oct 05, 2023; sentiment: −0.928428191692; Region: de" role="graphics-symbol" aria-roledescription="point" transform="translate(224.82869355683422,289.26422875374556)" d="M-2.739,-2.739h5.477v5.477h-5.477Z" stroke="#ffa83f" stroke-width="2" opacity="0.7"/><path aria-label="date: Oct 06, 2023; sentiment: −0.949489606544; Region: de" role="graphics-symbol" aria-roledescription="point" transform="translate(227.49593787147785,292.4234409816563)" d="M-2.739,-2.739h5.477v5.477h-5.477Z" stroke="#ffa83f" stroke-width="2" opacity="0.7"/><path aria-label="date: Oct 07, 2023; sentiment: −0.598396398127; Region: de" role="graphics-symbol" aria-roledescription="point" transform="translate(236.98664891390106,239.75945971906185)" d="M-2.739,-2.739h5.477v5.477h-5.477Z" stroke="#ffa83f" stroke-width="2" opacity="0.7"/><path aria-label="date: Oct 08, 2023; sentiment: −0.911531995982; Region: bav" role="graphics-symbol" aria-roledescription="point" transform="translate(240.5250554569478,286.72979939728975)" d="M2.739,0A2.739,2.739,0,1,1,-2.739,0A2.739,2.739,0,1,1,2.739,0" stroke="#6583ff" stroke-width="2" opacity="0.7"/><path aria-label="date: Oct 08, 2023; sentiment: −0.68423054181; Region: de" role="graphics-symbol" aria-roledescription="point" transform="translate(240.89630781055783,252.634581271559)" d="M-2.739,-2.739h5.477v5.477h-5.477Z" stroke="#ffa83f" stroke-width="2" opacity="0.7"/><path aria-label="date: Oct 08, 2023; sentiment: −0.982073112391; Region: de" role="graphics-symbol" aria-roledescription="point" transform="translate(242.75935242044267,297.3109668586403)" d="M-2.739,-2.739h5.477v5.477h-5.477Z" stroke="#ffa83f" stroke-width="2" opacity="0.7"/><path aria-label="date: Oct 08, 2023; sentiment: −0.0442595956847; Region: de" role="graphics-symbol" aria-roledescription="point" transform="translate(242.62052063650765,156.63893935270607)" d="M-2.739,-2.739h5.477v5.477h-5.477Z" stroke="#ffa83f" stroke-width="2" opacity="0.7"/><path aria-label="date: Oct 08, 2023; sentiment: −0.959588949569; Region: bav" role="graphics-symbol" aria-roledescription="point" transform="translate(243.06400303986766,293.93834243528545)" d="M2.739,0A2.739,2.739,0,1,1,-2.739,0A2.739,2.739,0,1,1,2.739,0" stroke="#6583ff" stroke-width="2" opacity="0.7"/><path aria-label="date: Oct 08, 2023; sentiment: −0.00484531745315; Region: de" role="graphics-symbol" aria-roledescription="point" transform="translate(242.93267567668588,150.7267976179719)" d="M-2.739,-2.739h5.477v5.477h-5.477Z" stroke="#ffa83f" stroke-width="2" opacity="0.7"/><path aria-label="date: Oct 08, 2023; sentiment: −0.915425725281; Region: de" role="graphics-symbol" aria-roledescription="point" transform="translate(243.28964076770802,287.3138587921858)" d="M-2.739,-2.739h5.477v5.477h-5.477Z" stroke="#ffa83f" stroke-width="2" opacity="0.7"/><path aria-label="date: Oct 08, 2023; sentiment: −0.905645936728; Region: bav" role="graphics-symbol" aria-roledescription="point" transform="translate(243.14453124718133,285.84689050912857)" d="M2.739,0A2.739,2.739,0,1,1,-2.739,0A2.739,2.739,0,1,1,2.739,0" stroke="#6583ff" stroke-width="2" opacity="0.7"/><path aria-label="date: Oct 08, 2023; sentiment: −0.951279729605; Region: de" role="graphics-symbol" aria-roledescription="point" transform="translate(243.1011643541746,292.69195944070816)" d="M-2.739,-2.739h5.477v5.477h-5.477Z" stroke="#ffa83f" stroke-width="2" opacity="0.7"/><path aria-label="date: Oct 08, 2023; sentiment: −0.135646313429; Region: de" role="graphics-symbol" aria-roledescription="point" transform="translate(243.07958914450901,170.34694701433182)" d="M-2.739,-2.739h5.477v5.477h-5.477Z" stroke="#ffa83f" stroke-width="2" opacity="0.7"/><path aria-label="date: Oct 08, 2023; sentiment: −0.0000602695690759; Region: de" role="graphics-symbol" aria-roledescription="point" transform="translate(243.5031559697162,150.00904043536138)" d="M-2.739,-2.739h5.477v5.477h-5.477Z" stroke="#ffa83f" stroke-width="2" opacity="0.7"/><path aria-label="date: Oct 08, 2023; sentiment: −0.532961264253; Region: de" role="graphics-symbol" aria-roledescription="point" transform="translate(243.3982383949545,229.9441896378994)" d="M-2.739,-2.739h5.477v5.477h-5.477Z" stroke="#ffa83f" stroke-width="2" opacity="0.7"/><path aria-label="date: Oct 08, 2023; sentiment: −0.0449933512136; Region: bav" role="graphics-symbol" aria-roledescription="point" transform="translate(243.4018462895474,156.7490026820451)" d="M2.739,0A2.739,2.739,0,1,1,-2.739,0A2.739,2.739,0,1,1,2.739,0" stroke="#6583ff" stroke-width="2" opacity="0.7"/><path aria-label="date: Oct 08, 2023; sentiment: −0.0262286122888; Region: de" role="graphics-symbol" aria-roledescription="point" transform="translate(243.72525796085552,153.9342918433249)" d="M-2.739,-2.739h5.477v5.477h-5.477Z" stroke="#ffa83f" stroke-width="2" opacity="0.7"/><path aria-label="date: Oct 08, 2023; sentiment: −0.933040030301; Region: de" role="graphics-symbol" aria-roledescription="point" transform="translate(243.74315311803633,289.9560045450926)" d="M-2.739,-2.739h5.477v5.477h-5.477Z" stroke="#ffa83f" stroke-width="2" opacity="0.7"/><path aria-label="date: Oct 08, 2023; sentiment: −0.0377803659067; Region: de" role="graphics-symbol" aria-roledescription="point" transform="translate(243.87267653392163,155.66705488599837)" d="M-2.739,-2.739h5.477v5.477h-5.477Z" stroke="#ffa83f" stroke-width="2" opacity="0.7"/><path aria-label="date: Oct 08, 2023; sentiment: 0.830320037901; Region: bav" role="graphics-symbol" aria-roledescription="point" transform="translate(243.97340895095556,25.451994314789772)" d="M2.739,0A2.739,2.739,0,1,1,-2.739,0A2.739,2.739,0,1,1,2.739,0" stroke="#6583ff" stroke-width="2" opacity="0.7"/><path aria-label="date: Oct 08, 2023; sentiment: −0.880545563996; Region: de" role="graphics-symbol" aria-roledescription="point" transform="translate(244.1960160473379,282.0818345993757)" d="M-2.739,-2.739h5.477v5.477h-5.477Z" stroke="#ffa83f" stroke-width="2" opacity="0.7"/><path aria-label="date: Oct 08, 2023; sentiment: −0.0288711842149; Region: de" role="graphics-symbol" aria-roledescription="point" transform="translate(244.6114290307651,154.33067763224244)" d="M-2.739,-2.739h5.477v5.477h-5.477Z" stroke="#ffa83f" stroke-width="2" opacity="0.7"/><path aria-label="date: Oct 09, 2023; sentiment: −0.984028407373; Region: de" role="graphics-symbol" aria-roledescription="point" transform="translate(244.84543707406098,297.60426110588014)" d="M-2.739,-2.739h5.477v5.477h-5.477Z" stroke="#ffa83f" stroke-width="2" opacity="0.7"/><path aria-label="date: Oct 09, 2023; sentiment: −0.0159278931096; Region: de" role="graphics-symbol" aria-roledescription="point" transform="translate(245.47811746987298,152.38918396644294)" d="M-2.739,-2.739h5.477v5.477h-5.477Z" stroke="#ffa83f" stroke-width="2" opacity="0.7"/><path aria-label="date: Oct 09, 2023; sentiment: −0.0000133175062729; Region: de" role="graphics-symbol" aria-roledescription="point" transform="translate(245.79438550988715,150.00199762594093)" d="M-2.739,-2.739h5.477v5.477h-5.477Z" stroke="#ffa83f" stroke-width="2" opacity="0.7"/><path aria-label="date: Oct 09, 2023; sentiment: −0.0164497802034; Region: de" role="graphics-symbol" aria-roledescription="point" transform="translate(246.08236765629292,152.4674670305103)" d="M-2.739,-2.739h5.477v5.477h-5.477Z" stroke="#ffa83f" stroke-width="2" opacity="0.7"/><path aria-label="date: Oct 09, 2023; sentiment: −0.00621317606419; Region: de" role="graphics-symbol" aria-roledescription="point" transform="translate(245.92621797831194,150.931976409629)" d="M-2.739,-2.739h5.477v5.477h-5.477Z" stroke="#ffa83f" stroke-width="2" opacity="0.7"/><path aria-label="date: Oct 09, 2023; sentiment: −0.995886410819; Region: de" role="graphics-symbol" aria-roledescription="point" transform="translate(246.16376175830888,299.382961622905)" d="M-2.739,-2.739h5.477v5.477h-5.477Z" stroke="#ffa83f" stroke-width="2" opacity="0.7"/><path aria-label="date: Oct 09, 2023; sentiment: −0.968155211769; Region: de" role="graphics-symbol" aria-roledescription="point" transform="translate(245.96547187148278,295.22328176535666)" d="M-2.739,-2.739h5.477v5.477h-5.477Z" stroke="#ffa83f" stroke-width="2" opacity="0.7"/><path aria-label="date: Oct 09, 2023; sentiment: −0.766152732074; Region: de" role="graphics-symbol" aria-roledescription="point" transform="translate(246.27336959604133,264.9229098111391)" d="M-2.739,-2.739h5.477v5.477h-5.477Z" stroke="#ffa83f" stroke-width="2" opacity="0.7"/><path aria-label="date: Oct 09, 2023; sentiment: −0.00791497738101; Region: de" role="graphics-symbol" aria-roledescription="point" transform="translate(246.21275696688053,151.18724660715088)" d="M-2.739,-2.739h5.477v5.477h-5.477Z" stroke="#ffa83f" stroke-width="2" opacity="0.7"/><path aria-label="date: Oct 09, 2023; sentiment: −0.162448270246; Region: de" role="graphics-symbol" aria-roledescription="point" transform="translate(246.37532869723688,174.36724053695798)" d="M-2.739,-2.739h5.477v5.477h-5.477Z" stroke="#ffa83f" stroke-width="2" opacity="0.7"/><path aria-label="date: Oct 09, 2023; sentiment: −0.267019879073; Region: de" role="graphics-symbol" aria-roledescription="point" transform="translate(247.036439302441,190.0529818609357)" d="M-2.739,-2.739h5.477v5.477h-5.477Z" stroke="#ffa83f" stroke-width="2" opacity="0.7"/><path aria-label="date: Oct 09, 2023; sentiment: −0.729653313756; Region: de" role="graphics-symbol" aria-roledescription="point" transform="translate(247.28242555578532,259.44799706339836)" d="M-2.739,-2.739h5.477v5.477h-5.477Z" stroke="#ffa83f" stroke-width="2" opacity="0.7"/><path aria-label="date: Oct 09, 2023; sentiment: −0.997711212724; Region: de" role="graphics-symbol" aria-roledescription="point" transform="translate(247.521123862052,299.6566819085274)" d="M-2.739,-2.739h5.477v5.477h-5.477Z" stroke="#ffa83f" stroke-width="2" opacity="0.7"/><path aria-label="date: Oct 09, 2023; sentiment: −0.00786119443364; Region: de" role="graphics-symbol" aria-roledescription="point" transform="translate(248.2375795703113,151.17917916504666)" d="M-2.739,-2.739h5.477v5.477h-5.477Z" stroke="#ffa83f" stroke-width="2" opacity="0.7"/><path aria-label="date: Oct 09, 2023; sentiment: −0.956149148755; Region: de" role="graphics-symbol" aria-roledescription="point" transform="translate(248.2131180449714,293.42237231321633)" d="M-2.739,-2.739h5.477v5.477h-5.477Z" stroke="#ffa83f" stroke-width="2" opacity="0.7"/><path aria-label="date: Oct 09, 2023; sentiment: −0.0262448536232; Region: de" role="graphics-symbol" aria-roledescription="point" transform="translate(248.4316121415178,153.9367280434817)" d="M-2.739,-2.739h5.477v5.477h-5.477Z" stroke="#ffa83f" stroke-width="2" opacity="0.7"/><path aria-label="date: Oct 09, 2023; sentiment: −0.985309279524; Region: de" role="graphics-symbol" aria-roledescription="point" transform="translate(248.3655876704676,297.7963919285685)" d="M-2.739,-2.739h5.477v5.477h-5.477Z" stroke="#ffa83f" stroke-width="2" opacity="0.7"/><path aria-label="date: Oct 10, 2023; sentiment: −0.920710783452; Region: de" role="graphics-symbol" aria-roledescription="point" transform="translate(253.52704167507906,288.10661751776934)" d="M-2.739,-2.739h5.477v5.477h-5.477Z" stroke="#ffa83f" stroke-width="2" opacity="0.7"/><path aria-label="date: Oct 10, 2023; sentiment: −0.962651913054; Region: de" role="graphics-symbol" aria-roledescription="point" transform="translate(253.48591167671998,294.3977869581431)" d="M-2.739,-2.739h5.477v5.477h-5.477Z" stroke="#ffa83f" stroke-width="2" opacity="0.7"/><path aria-label="date: Oct 10, 2023; sentiment: −0.0000472955944133; Region: de" role="graphics-symbol" aria-roledescription="point" transform="translate(254.08157507400875,150.007094339162)" d="M-2.739,-2.739h5.477v5.477h-5.477Z" stroke="#ffa83f" stroke-width="2" opacity="0.7"/><path aria-label="date: Oct 14, 2023; sentiment: −0.986814909149; Region: de" role="graphics-symbol" aria-roledescription="point" transform="translate(279.66616584279194,298.0222363723442)" d="M-2.739,-2.739h5.477v5.477h-5.477Z" stroke="#ffa83f" stroke-width="2" opacity="0.7"/><path aria-label="date: Oct 16, 2023; sentiment: −0.0745712323114; Region: de" role="graphics-symbol" aria-roledescription="point" transform="translate(293.319737824402,161.18568484671414)" d="M-2.739,-2.739h5.477v5.477h-5.477Z" stroke="#ffa83f" stroke-width="2" opacity="0.7"/><path aria-label="date: Oct 17, 2023; sentiment: −0.462701842189; Region: de" role="graphics-symbol" aria-roledescription="point" transform="translate(297.38128908342014,219.40527632832527)" d="M-2.739,-2.739h5.477v5.477h-5.477Z" stroke="#ffa83f" stroke-width="2" opacity="0.7"/><path aria-label="date: Oct 17, 2023; sentiment: −0.0368726234883; Region: de" role="graphics-symbol" aria-roledescription="point" transform="translate(299.8211638808188,155.53089352324605)" d="M-2.739,-2.739h5.477v5.477h-5.477Z" stroke="#ffa83f" stroke-width="2" opacity="0.7"/><path aria-label="date: Oct 20, 2023; sentiment: −0.918395826593; Region: de" role="graphics-symbol" aria-roledescription="point" transform="translate(317.3851163380043,287.7593739889562)" d="M-2.739,-2.739h5.477v5.477h-5.477Z" stroke="#ffa83f" stroke-width="2" opacity="0.7"/><path aria-label="date: Oct 21, 2023; sentiment: −0.985709018074; Region: de" role="graphics-symbol" aria-roledescription="point" transform="translate(323.4559762537037,297.8563527110964)" d="M-2.739,-2.739h5.477v5.477h-5.477Z" stroke="#ffa83f" stroke-width="2" opacity="0.7"/><path aria-label="date: Oct 24, 2023; sentiment: −0.0383487856016; Region: de" role="graphics-symbol" aria-roledescription="point" transform="translate(341.5318167957307,155.75231784023345)" d="M-2.739,-2.739h5.477v5.477h-5.477Z" stroke="#ffa83f" stroke-width="2" opacity="0.7"/><path aria-label="date: Oct 31, 2023; sentiment: −0.972002336755; Region: de" role="graphics-symbol" aria-roledescription="point" transform="translate(385.0241202185114,295.80035051330924)" d="M-2.739,-2.739h5.477v5.477h-5.477Z" stroke="#ffa83f" stroke-width="2" opacity="0.7"/><path aria-label="date: Oct 31, 2023; sentiment: −0.845963336527; Region: de" role="graphics-symbol" aria-roledescription="point" transform="translate(383.55007880363365,276.89450047910213)" d="M-2.739,-2.739h5.477v5.477h-5.477Z" stroke="#ffa83f" stroke-width="2" opacity="0.7"/><path aria-label="date: Oct 27, 2023; sentiment: −0.971538763959; Region: de" role="graphics-symbol" aria-roledescription="point" transform="translate(360.1707053679266,295.7308145938441)" d="M-2.739,-2.739h5.477v5.477h-5.477Z" stroke="#ffa83f" stroke-width="2" opacity="0.7"/><path aria-label="date: Nov 01, 2023; sentiment: −0.0225172550417; Region: de" role="graphics-symbol" aria-roledescription="point" transform="translate(390.446930107433,153.37758825626224)" d="M-2.739,-2.739h5.477v5.477h-5.477Z" stroke="#ffa83f" stroke-width="2" opacity="0.7"/><path aria-label="date: Nov 01, 2023; sentiment: −0.96084664762; Region: de" role="graphics-symbol" aria-roledescription="point" transform="translate(391.42935980508133,294.12699714303017)" d="M-2.739,-2.739h5.477v5.477h-5.477Z" stroke="#ffa83f" stroke-width="2" opacity="0.7"/><path aria-label="date: Nov 01, 2023; sentiment: −0.0250934618525; Region: de" role="graphics-symbol" aria-roledescription="point" transform="translate(392.529623340134,153.7640192778781)" d="M-2.739,-2.739h5.477v5.477h-5.477Z" stroke="#ffa83f" stroke-width="2" opacity="0.7"/><path aria-label="date: Nov 01, 2023; sentiment: −0.996062062099; Region: de" role="graphics-symbol" aria-roledescription="point" transform="translate(393.3964560950256,299.4093093147967)" d="M-2.739,-2.739h5.477v5.477h-5.477Z" stroke="#ffa83f" stroke-width="2" opacity="0.7"/><path aria-label="date: Nov 02, 2023; sentiment: −0.00261924695224; Region: de" role="graphics-symbol" aria-roledescription="point" transform="translate(396.02588967433553,150.39288704283535)" d="M-2.739,-2.739h5.477v5.477h-5.477Z" stroke="#ffa83f" stroke-width="2" opacity="0.7"/><path aria-label="date: Nov 02, 2023; sentiment: −0.976857332513; Region: de" role="graphics-symbol" aria-roledescription="point" transform="translate(397.5033225101306,296.52859987691045)" d="M-2.739,-2.739h5.477v5.477h-5.477Z" stroke="#ffa83f" stroke-width="2" opacity="0.7"/><path aria-label="date: Nov 02, 2023; sentiment: −0.0260542994365; Region: de" role="graphics-symbol" aria-roledescription="point" transform="translate(399.6435255826425,153.90814491547644)" d="M-2.739,-2.739h5.477v5.477h-5.477Z" stroke="#ffa83f" stroke-width="2" opacity="0.7"/><path aria-label="date: Nov 02, 2023; sentiment: −0.00523402239196; Region: de" role="graphics-symbol" aria-roledescription="point" transform="translate(399.603622268445,150.785103358794)" d="M-2.739,-2.739h5.477v5.477h-5.477Z" stroke="#ffa83f" stroke-width="2" opacity="0.7"/><path aria-label="date: Nov 03, 2023; sentiment: −0.980916101485; Region: de" role="graphics-symbol" aria-roledescription="point" transform="translate(404.3972874982556,297.1374152228236)" d="M-2.739,-2.739h5.477v5.477h-5.477Z" stroke="#ffa83f" stroke-width="2" opacity="0.7"/><path aria-label="date: Nov 11, 2023; sentiment: −0.966450763866; Region: de" role="graphics-symbol" aria-roledescription="point" transform="translate(453.3961039645134,294.9676145799458)" d="M-2.739,-2.739h5.477v5.477h-5.477Z" stroke="#ffa83f" stroke-width="2" opacity="0.7"/><path aria-label="date: Nov 16, 2023; sentiment: −0.952180542052; Region: de" role="graphics-symbol" aria-roledescription="point" transform="translate(484.2964223107006,292.8270813077688)" d="M-2.739,-2.739h5.477v5.477h-5.477Z" stroke="#ffa83f" stroke-width="2" opacity="0.7"/><path aria-label="date: Nov 17, 2023; sentiment: −0.974388314411; Region: de" role="graphics-symbol" aria-roledescription="point" transform="translate(491.88764900785065,296.1582471616566)" d="M-2.739,-2.739h5.477v5.477h-5.477Z" stroke="#ffa83f" stroke-width="2" opacity="0.7"/><path aria-label="date: Nov 18, 2023; sentiment: −0.0104974731803; Region: bav" role="graphics-symbol" aria-roledescription="point" transform="translate(500,151.5746209770441)" d="M2.739,0A2.739,2.739,0,1,1,-2.739,0A2.739,2.739,0,1,1,2.739,0" stroke="#6583ff" stroke-width="2" opacity="0.7"/></g><g class="mark-line role-mark layer_1_marks" role="graphics-object" aria-roledescription="line mark container"><path aria-label="date: Aug 30, 2023; sentiment: −0.0261202594167" role="graphics-symbol" aria-roledescription="line mark" d="M0,153.918L34.194,172.033L43.764,176.733L77.944,192.173L93.821,199.069L118.488,211.077L128.417,216.028L149.373,217.503L166.134,211.555L171.381,211.241L196.556,211.077L216.205,203.39L223.338,228.827L224.829,233.935L227.496,246.315L236.987,259.096L240.525,231.245L240.896,229.805L242.621,223.787L242.759,223.343L242.933,222.797L243.064,222.388L243.08,222.34L243.101,222.273L243.145,222.14L243.29,221.698L243.398,221.371L243.402,221.36L243.503,221.058L243.725,220.407L243.743,220.355L243.873,219.984L243.973,219.7L244.196,219.09L244.611,218.053L244.845,217.555L245.478,216.853L245.794,216.772L245.926,216.792L245.965,216.808L246.082,216.886L246.164,216.969L246.213,217.03L246.273,217.119L246.375,217.302L247.036,219.507L247.282,220.715L247.521,222.439L248.213,226.933L248.238,227.047L248.366,227.609L248.432,227.88L253.486,246.415L253.527,246.577L254.082,248.754L279.666,222.85L293.32,227.821L297.381,230.232L299.821,230.267L317.385,232.362L323.456,235.202L341.532,233.418L360.171,233.788L383.55,237.908L385.024,238.256L390.447,239.395L391.429,239.577L392.53,239.774L393.396,239.923L396.026,240.346L397.503,240.567L399.604,240.862L399.644,240.867L404.397,241.467L453.396,246.401L484.296,250.21L491.888,251.242L500,252.358" stroke="firebrick" stroke-width="2" opacity="0.5"/></g><g class="mark-group role-legend" role="graphics-symbol" aria-roledescription="legend" aria-label="Symbol legend titled 'Region' for shape and stroke color with 2 values: bav, de"><g transform="translate(518,0)"><path class="background" aria-hidden="true" d="M0,0h40v52h-40Z" pointer-events="none"/><g><g class="mark-group role-legend-entry"><g transform="translate(0,23)"><path class="background" aria-hidden="true" d="M0,0h0v0h0Z" pointer-events="none"/><g><g class="mark-group role-scope" role="graphics-object" aria-roledescription="group mark container"><g transform="translate(0,0)"><path class="background" aria-hidden="true" d="M0,0h35v12.5h-35Z" pointer-events="none" opacity="1"/><g><g class="mark-symbol role-legend-symbol" pointer-events="none"><path transform="translate(6,6)" d="M5,0A5,5,0,1,1,-5,0A5,5,0,1,1,5,0" stroke="#6583ff" stroke-width="1.5" opacity="0.7"/></g><g class="mark-text role-legend-label" pointer-events="none"><text text-anchor="start" transform="translate(16,10)" font-family="sans-serif" font-size="12px" fill="#000" opacity="1">bav</text></g></g><path class="foreground" aria-hidden="true" d="" pointer-events="none" display="none"/></g><g transform="translate(0,16)"><path class="background" aria-hidden="true" d="M0,0h35v12.5h-35Z" pointer-events="none" opacity="1"/><g><g class="mark-symbol role-legend-symbol" pointer-events="none"><path transform="translate(6,6)" d="M-5,-5h10v10h-10Z" stroke="#ffa83f" stroke-width="1.5" opacity="0.7"/></g><g class="mark-text role-legend-label" pointer-events="none"><text text-anchor="start" transform="translate(16,10)" font-family="sans-serif" font-size="12px" fill="#000" opacity="1">de</text></g></g><path class="foreground" aria-hidden="true" d="" pointer-events="none" display="none"/></g></g></g><path class="foreground" aria-hidden="true" d="" pointer-events="none" display="none"/></g></g><g class="mark-text role-legend-title" pointer-events="none"><text text-anchor="start" transform="translate(0,10)" font-family="sans-serif" font-size="13px" font-weight="400" fill="#000" opacity="1">Region</text></g></g><path class="foreground" aria-hidden="true" d="" pointer-events="none" display="none"/></g></g><g class="mark-group role-title"><g transform="translate(249,-28)"><path class="background" aria-hidden="true" d="M0,0h0v0h0Z" pointer-events="none"/><g><g class="mark-text role-title-text" role="graphics-symbol" aria-roledescription="title" aria-label="Title text 'Sentiments for the FDP'" pointer-events="none"><text text-anchor="middle" transform="translate(0,14)" font-family="Inter" font-size="18px" font-weight="400" fill="#445668" opacity="1">Sentiments for the FDP</text></g></g><path class="foreground" aria-hidden="true" d="" pointer-events="none" display="none"/></g></g></g><path class="foreground" aria-hidden="true" d="" display="none"/></g></g></g></svg>