<svg xmlns="http://www.w3.org/2000/svg" xmlns:xlink="http://www.w3.org/1999/xlink" version="1.1" class="marks" width="628" height="376" viewBox="0 0 628 376"><rect width="628" height="376" fill="#fff"/><g fill="none" stroke-miterlimit="10" transform="translate(65,33)"><g class="mark-group role-frame root" role="graphics-object" aria-roledescription="group mark container"><g transform="translate(0,0)"><path class="background" aria-hidden="true" d="M0.5,0.5h500v300h-500Z" stroke="#ddd"/><g><g class="mark-group role-axis" aria-hidden="true"><g transform="translate(0.5,300.5)"><path class="background" aria-hidden="true" d="M0,0h0v0h0Z" pointer-events="none"/><g><g class="mark-rule role-axis-grid" pointer-events="none"><line transform="translate(7,-300)" x2="0" y2="300" stroke="#ddd" stroke-width="1" opacity="1"/><line transform="translate(43,-300)" x2="0" y2="300" stroke="#ddd" stroke-width="1" opacity="1"/><line transform="translate(79,-300)" x2="0" y2="300" stroke="#ddd" stroke-width="1" opacity="1"/><line transform="translate(116,-300)" x2="0" y2="300" stroke="#ddd" stroke-width="1" opacity="1"/><line transform="translate(152,-300)" x2="0" y2="300" stroke="#ddd" stroke-width="1" opacity="1"/><line transform="translate(188,-300)" x2="0" y2="300" stroke="#ddd" stroke-width="1" opacity="1"/><line transform="translate(225,-300)" x2="0" y2="300" stroke="#ddd" stroke-width="1" opacity="1"/><line transform="translate(261,-300)" x2="0" y2="300" stroke="#ddd" stroke-width="1" opacity="1"/><line transform="translate(297,-300)" x2="0" y2="300" stroke="#ddd" stroke-width="1" opacity="1"/><line transform="translate(334,-300)" x2="0" y2="300" stroke="#ddd" stroke-width="1" opacity="1"/><line transform="translate(370,-300)" x2="0" y2="300" stroke="#ddd" stroke-width="1" opacity="1"/><line transform="translate(406,-300)" x2="0" y2="300" stroke="#ddd" stroke-width="1" opacity="1"/><line transform="translate(443,-300)" x2="0" y2="300" stroke="#ddd" stroke-width="1" opacity="1"/><line transform="translate(479,-300)" x2="0" y2="300" stroke="#ddd" stroke-width="1" opacity="1"/></g></g><path class="foreground" aria-hidden="true" d="" pointer-events="none" display="none"/></g></g><g class="mark-group role-axis" aria-hidden="true"><g transform="translate(0.5,0.5)"><path class="background" aria-hidden="true" d="M0,0h0v0h0Z" pointer-events="none"/><g><g class="mark-rule role-axis-grid" pointer-events="none"><line transform="translate(0,300)" x2="500" y2="0" stroke="#e1e8f0" stroke-width="1" opacity="1"/><line transform="translate(0,270)" x2="500" y2="0" stroke="#e1e8f0" stroke-width="1" opacity="1"/><line transform="translate(0,240)" x2="500" y2="0" stroke="#e1e8f0" stroke-width="1" opacity="1"/><line transform="translate(0,210)" x2="500" y2="0" stroke="#e1e8f0" stroke-width="1" opacity="1"/><line transform="translate(0,180)" x2="500" y2="0" stroke="#e1e8f0" stroke-width="1" opacity="1"/><line transform="translate(0,150)" x2="500" y2="0" stroke="#e1e8f0" stroke-width="1" opacity="1"/><line transform="translate(0,120)" x2="500" y2="0" stroke="#e1e8f0" stroke-width="1" opacity="1"/><line transform="translate(0,90)" x2="500" y2="0" stroke="#e1e8f0" stroke-width="1" opacity="1"/><line transform="translate(0,60)" x2="500" y2="0" stroke="#e1e8f0" stroke-width="1" opacity="1"/><line transform="translate(0,30)" x2="500" y2="0" stroke="#e1e8f0" stroke-width="1" opacity="1"/><line transform="translate(0,0)" x2="500" y2="0" stroke="#e1e8f0" stroke-width="1" opacity="1"/></g></g><path class="foreground" aria-hidden="true" d="" pointer-events="none" display="none"/></g></g><g class="mark-group role-axis" role="graphics-symbol" aria-roledescription="axis" aria-label="X-axis titled 'date' for a time scale with values from Wednesday, 06 September 2023, 10:55:10 AM to Saturday, 09 September 2023, 9:25:51 PM"><g transform="translate(0.5,300.5)"><path class="background" aria-hidden="true" d="M0,0h0v0h0Z" pointer-events="none"/><g><g class="mark-rule role-axis-tick" pointer-events="none"><line transform="translate(7,0)" x2="0" y2="5" stroke="#888" stroke-width="1" opacity="1"/><line transform="translate(43,0)" x2="0" y2="5" stroke="#888" stroke-width="1" opacity="1"/><line transform="translate(79,0)" x2="0" y2="5" stroke="#888" stroke-width="1" opacity="1"/><line transform="translate(116,0)" x2="0" y2="5" stroke="#888" stroke-width="1" opacity="1"/><line transform="translate(152,0)" x2="0" y2="5" stroke="#888" stroke-width="1" opacity="1"/><line transform="translate(188,0)" x2="0" y2="5" stroke="#888" stroke-width="1" opacity="1"/><line transform="translate(225,0)" x2="0" y2="5" stroke="#888" stroke-width="1" opacity="1"/><line transform="translate(261,0)" x2="0" y2="5" stroke="#888" stroke-width="1" opacity="1"/><line transform="translate(297,0)" x2="0" y2="5" stroke="#888" stroke-width="1" opacity="1"/><line transform="translate(334,0)" x2="0" y2="5" stroke="#888" stroke-width="1" opacity="1"/><line transform="translate(370,0)" x2="0" y2="5" stroke="#888" stroke-width="1" opacity="1"/><line transform="translate(406,0)" x2="0" y2="5" stroke="#888" stroke-width="1" opacity="1"/><line transform="translate(443,0)" x2="0" y2="5" stroke="#888" stroke-width="1" opacity="1"/><line transform="translate(479,0)" x2="0" y2="5" stroke="#888" stroke-width="1" opacity="1"/></g><g class="mark-text role-axis-label" pointer-events="none"><text text-anchor="middle" transform="translate(6.547917627532899,15)" font-family="sans-serif" font-size="10px" fill="#000" opacity="1">12 PM</text><text text-anchor="middle" transform="translate(42.90653478812689,15)" font-family="sans-serif" font-size="10px" fill="#000" opacity="1">06 PM</text><text text-anchor="middle" transform="translate(79.26515194872088,15)" font-family="sans-serif" font-size="10px" fill="#000" opacity="1">Thu 07</text><text text-anchor="middle" transform="translate(115.62376910931488,15)" font-family="sans-serif" font-size="10px" fill="#000" opacity="1">06 AM</text><text text-anchor="middle" transform="translate(151.98238626990886,15)" font-family="sans-serif" font-size="10px" fill="#000" opacity="1">12 PM</text><text text-anchor="middle" transform="translate(188.34100343050287,15)" font-family="sans-serif" font-size="10px" fill="#000" opacity="1">06 PM</text><text text-anchor="middle" transform="translate(224.69962059109685,15)" font-family="sans-serif" font-size="10px" fill="#000" opacity="1">Fri 08</text><text text-anchor="middle" transform="translate(261.05823775169085,15)" font-family="sans-serif" font-size="10px" fill="#000" opacity="1">06 AM</text><text text-anchor="middle" transform="translate(297.4168549122848,15)" font-family="sans-serif" font-size="10px" fill="#000" opacity="1">12 PM</text><text text-anchor="middle" transform="translate(333.7754720728788,15)" font-family="sans-serif" font-size="10px" fill="#000" opacity="1">06 PM</text><text text-anchor="middle" transform="translate(370.1340892334728,15)" font-family="sans-serif" font-size="10px" fill="#000" opacity="1">Sat 09</text><text text-anchor="middle" transform="translate(406.49270639406683,15)" font-family="sans-serif" font-size="10px" fill="#000" opacity="1">06 AM</text><text text-anchor="middle" transform="translate(442.8513235546608,15)" font-family="sans-serif" font-size="10px" fill="#000" opacity="1">12 PM</text><text text-anchor="middle" transform="translate(479.2099407152548,15)" font-family="sans-serif" font-size="10px" fill="#000" opacity="1">06 PM</text></g><g class="mark-rule role-axis-domain" pointer-events="none"><line transform="translate(0,0)" x2="500" y2="0" stroke="#e1e8f0" stroke-width="1" opacity="1"/></g><g class="mark-text role-axis-title" pointer-events="none"><text text-anchor="middle" transform="translate(250,36)" font-family="sans-serif" font-size="11px" font-weight="400" fill="#1c2a3a" opacity="1">date</text></g></g><path class="foreground" aria-hidden="true" d="" pointer-events="none" display="none"/></g></g><g class="mark-group role-axis" role="graphics-symbol" aria-roledescription="axis" aria-label="Y-axis titled 'sentiment' for a linear scale with values from −1.0 to 1.0"><g transform="translate(0.5,0.5)"><path class="background" aria-hidden="true" d="M0,0h0v0h0Z" pointer-events="none"/><g><g class="mark-rule role-axis-tick" pointer-events="none"><line transform="translate(0,300)" x2="-5" y2="0" stroke="#888" stroke-width="1" opacity="1"/><line transform="translate(0,270)" x2="-5" y2="0" stroke="#888" stroke-width="1" opacity="1"/><line transform="translate(0,240)" x2="-5" y2="0" stroke="#888" stroke-width="1" opacity="1"/><line transform="translate(0,210)" x2="-5" y2="0" stroke="#888" stroke-width="1" opacity="1"/><line transform="translate(0,180)" x2="-5" y2="0" stroke="#888" stroke-width="1" opacity="1"/><line transform="translate(0,150)" x2="-5" y2="0" stroke="#888" stroke-width="1" opacity="1"/><line transform="translate(0,120)" x2="-5" y2="0" stroke="#888" stroke-width="1" opacity="1"/><line transform="translate(0,90)" x2="-5" y2="0" stroke="#888" stroke-width="1" opacity="1"/><line transform="translate(0,60)" x2="-5" y2="0" stroke="#888" stroke-width="1" opacity="1"/><line transform="translate(0,30)" x2="-5" y2="0" stroke="#888" stroke-width="1" opacity="1"/><line transform="translate(0,0)" x2="-5" y2="0" stroke="#888" stroke-width="1" opacity="1"/></g><g class="mark-text role-axis-label" pointer-events="none"><text text-anchor="end" transform="translate(-13,304)" font-family="sans-serif" font-size="12px" fill="#000" opacity="1">−1.0</text><text text-anchor="end" transform="translate(-13,274)" font-family="sans-serif" font-size="12px" fill="#000" opacity="1">−0.8</text><text text-anchor="end" transform="translate(-13,244)" font-family="sans-serif" font-size="12px" fill="#000" opacity="1">−0.6</text><text text-anchor="end" transform="translate(-13,214)" font-family="sans-serif" font-size="12px" fill="#000" opacity="1">−0.4</text><text text-anchor="end" transform="translate(-13,184)" font-family="sans-serif" font-size="12px" fill="#000" opacity="1">−0.2</text><text text-anchor="end" transform="translate(-13,154)" font-family="sans-serif" font-size="12px" fill="#000" opacity="1">0.0</text><text text-anchor="end" transform="translate(-13,124)" font-family="sans-serif" font-size="12px" fill="#000" opacity="1">0.2</text><text text-anchor="end" transform="translate(-13,94.00000000000001)" font-family="sans-serif" font-size="12px" fill="#000" opacity="1">0.4</text><text text-anchor="end" transform="translate(-13,63.999999999999986)" font-family="sans-serif" font-size="12px" fill="#000" opacity="1">0.6</text><text text-anchor="end" transform="translate(-13,33.99999999999999)" font-family="sans-serif" font-size="12px" fill="#000" opacity="1">0.8</text><text text-anchor="end" transform="translate(-13,4)" font-family="sans-serif" font-size="12px" fill="#000" opacity="1">1.0</text></g><g class="mark-rule role-axis-domain" pointer-events="none"><line transform="translate(0,300)" x2="0" y2="-300" stroke="#888" stroke-width="1" opacity="1"/></g><g class="mark-text role-axis-title" pointer-events="none"><text text-anchor="middle" transform="translate(-47,150) rotate(-90) translate(0,-3)" font-family="sans-serif" font-size="12px" font-weight="400" fill="#1c2a3a" opacity="1">sentiment</text></g></g><path class="foreground" aria-hidden="true" d="" pointer-events="none" display="none"/></g></g><g class="mark-symbol role-mark layer_0_marks" role="graphics-object" aria-roledescription="symbol mark container"><path aria-label="date: Sep 06, 2023; sentiment: −0.00000389702381653; Region: de" role="graphics-symbol" aria-roledescription="point" transform="translate(0,150.00058455357248)" d="M2.739,0A2.739,2.739,0,1,1,-2.739,0A2.739,2.739,0,1,1,2.739,0" stroke="#6583ff" stroke-width="2" opacity="0.7"/><path aria-label="date: Sep 06, 2023; sentiment: −0.000152648244693; Region: de" role="graphics-symbol" aria-roledescription="point" transform="translate(2.4138081948283236,150.022897236704)" d="M2.739,0A2.739,2.739,0,1,1,-2.739,0A2.739,2.739,0,1,1,2.739,0" stroke="#6583ff" stroke-width="2" opacity="0.7"/><path aria-label="date: Sep 09, 2023; sentiment: −0.00512779771816; Region: de" role="graphics-symbol" aria-roledescription="point" transform="translate(500,150.76916965772398)" d="M2.739,0A2.739,2.739,0,1,1,-2.739,0A2.739,2.739,0,1,1,2.739,0" stroke="#6583ff" stroke-width="2" opacity="0.7"/></g><g class="mark-line role-mark layer_1_marks" role="graphics-object" aria-roledescription="line mark container"><path aria-label="date: Sep 06, 2023; sentiment: −0.00000389702381653" role="graphics-symbol" aria-roledescription="line mark" d="M0,150.001L2.414,150.023L500,150.769" stroke="firebrick" stroke-width="2" opacity="0.5"/></g><g class="mark-group role-legend" role="graphics-symbol" aria-roledescription="legend" aria-label="Symbol legend titled 'Region' for shape and stroke color with 1 value: de"><g transform="translate(518,0)"><path class="background" aria-hidden="true" d="M0,0h40v36h-40Z" pointer-events="none"/><g><g class="mark-group role-legend-entry"><g transform="translate(0,23)"><path class="background" aria-hidden="true" d="M0,0h0v0h0Z" pointer-events="none"/><g><g class="mark-group role-scope" role="graphics-object" aria-roledescription="group mark container"><g transform="translate(0,0)"><path class="background" aria-hidden="true" d="M0,0h30v12.5h-30Z" pointer-events="none" opacity="1"/><g><g class="mark-symbol role-legend-symbol" pointer-events="none"><path transform="translate(6,6)" d="M5,0A5,5,0,1,1,-5,0A5,5,0,1,1,5,0" stroke="#6583ff" stroke-width="1.5" opacity="0.7"/></g><g class="mark-text role-legend-label" pointer-events="none"><text text-anchor="start" transform="translate(16,10)" font-family="sans-serif" font-size="12px" fill="#000" opacity="1">de</text></g></g><path class="foreground" aria-hidden="true" d="" pointer-events="none" display="none"/></g></g></g><path class="foreground" aria-hidden="true" d="" pointer-events="none" display="none"/></g></g><g class="mark-text role-legend-title" pointer-events="none"><text text-anchor="start" transform="translate(0,10)" font-family="sans-serif" font-size="13px" font-weight="400" fill="#000" opacity="1">Region</text></g></g><path class="foreground" aria-hidden="true" d="" pointer-events="none" display="none"/></g></g><g class="mark-group role-title"><g transform="translate(249,-28)"><path class="background" aria-hidden="true" d="M0,0h0v0h0Z" pointer-events="none"/><g><g class="mark-text role-title-text" role="graphics-symbol" aria-roledescription="title" aria-label="Title text 'Sentiments for the Buendnis90/Gruene'" pointer-events="none"><text text-anchor="middle" transform="translate(0,14)" font-family="Inter" font-size="18px" font-weight="400" fill="#445668" opacity="1">Sentiments for the Buendnis90/Gruene</text></g></g><path class="foreground" aria-hidden="true" d="" pointer-events="none" display="none"/></g></g></g><path class="foreground" aria-hidden="true" d="" display="none"/></g></g></g></svg>