<svg xmlns="http://www.w3.org/2000/svg" xmlns:xlink="http://www.w3.org/1999/xlink" version="1.1" class="marks" width="628" height="376" viewBox="0 0 628 376"><rect width="628" height="376" fill="#fff"/><g fill="none" stroke-miterlimit="10" transform="translate(65,33)"><g class="mark-group role-frame root" role="graphics-object" aria-roledescription="group mark container"><g transform="translate(0,0)"><path class="background" aria-hidden="true" d="M0.5,0.5h500v300h-500Z" stroke="#ddd"/><g><g class="mark-group role-axis" aria-hidden="true"><g transform="translate(0.5,300.5)"><path class="background" aria-hidden="true" d="M0,0h0v0h0Z" pointer-events="none"/><g><g class="mark-rule role-axis-grid" pointer-events="none"><line transform="translate(13,-300)" x2="0" y2="300" stroke="#ddd" stroke-width="1" opacity="1"/><line transform="translate(56,-300)" x2="0" y2="300" stroke="#ddd" stroke-width="1" opacity="1"/><line transform="translate(98,-300)" x2="0" y2="300" stroke="#ddd" stroke-width="1" opacity="1"/><line transform="translate(141,-300)" x2="0" y2="300" stroke="#ddd" stroke-width="1" opacity="1"/><line transform="translate(184,-300)" x2="0" y2="300" stroke="#ddd" stroke-width="1" opacity="1"/><line transform="translate(226,-300)" x2="0" y2="300" stroke="#ddd" stroke-width="1" opacity="1"/><line transform="translate(269,-300)" x2="0" y2="300" stroke="#ddd" stroke-width="1" opacity="1"/><line transform="translate(312,-300)" x2="0" y2="300" stroke="#ddd" stroke-width="1" opacity="1"/><line transform="translate(354,-300)" x2="0" y2="300" stroke="#ddd" stroke-width="1" opacity="1"/><line transform="translate(397,-300)" x2="0" y2="300" stroke="#ddd" stroke-width="1" opacity="1"/><line transform="translate(440,-300)" x2="0" y2="300" stroke="#ddd" stroke-width="1" opacity="1"/><line transform="translate(483,-300)" x2="0" y2="300" stroke="#ddd" stroke-width="1" opacity="1"/></g></g><path class="foreground" aria-hidden="true" d="" pointer-events="none" display="none"/></g></g><g class="mark-group role-axis" aria-hidden="true"><g transform="translate(0.5,0.5)"><path class="background" aria-hidden="true" d="M0,0h0v0h0Z" pointer-events="none"/><g><g class="mark-rule role-axis-grid" pointer-events="none"><line transform="translate(0,300)" x2="500" y2="0" stroke="#e1e8f0" stroke-width="1" opacity="1"/><line transform="translate(0,270)" x2="500" y2="0" stroke="#e1e8f0" stroke-width="1" opacity="1"/><line transform="translate(0,240)" x2="500" y2="0" stroke="#e1e8f0" stroke-width="1" opacity="1"/><line transform="translate(0,210)" x2="500" y2="0" stroke="#e1e8f0" stroke-width="1" opacity="1"/><line transform="translate(0,180)" x2="500" y2="0" stroke="#e1e8f0" stroke-width="1" opacity="1"/><line transform="translate(0,150)" x2="500" y2="0" stroke="#e1e8f0" stroke-width="1" opacity="1"/><line transform="translate(0,120)" x2="500" y2="0" stroke="#e1e8f0" stroke-width="1" opacity="1"/><line transform="translate(0,90)" x2="500" y2="0" stroke="#e1e8f0" stroke-width="1" opacity="1"/><line transform="translate(0,60)" x2="500" y2="0" stroke="#e1e8f0" stroke-width="1" opacity="1"/><line transform="translate(0,30)" x2="500" y2="0" stroke="#e1e8f0" stroke-width="1" opacity="1"/><line transform="translate(0,0)" x2="500" y2="0" stroke="#e1e8f0" stroke-width="1" opacity="1"/></g></g><path class="foreground" aria-hidden="true" d="" pointer-events="none" display="none"/></g></g><g class="mark-group role-axis" role="graphics-symbol" aria-roledescription="axis" aria-label="X-axis titled 'date' for a time scale with values from Tuesday, 29 August 2023, 4:43:50 PM to Sunday, 10 September 2023, 9:49:23 AM"><g transform="translate(0.5,300.5)"><path class="background" aria-hidden="true" d="M0,0h0v0h0Z" pointer-events="none"/><g><g class="mark-rule role-axis-tick" pointer-events="none"><line transform="translate(13,0)" x2="0" y2="5" stroke="#888" stroke-width="1" opacity="1"/><line transform="translate(56,0)" x2="0" y2="5" stroke="#888" stroke-width="1" opacity="1"/><line transform="translate(98,0)" x2="0" y2="5" stroke="#888" stroke-width="1" opacity="1"/><line transform="translate(141,0)" x2="0" y2="5" stroke="#888" stroke-width="1" opacity="1"/><line transform="translate(184,0)" x2="0" y2="5" stroke="#888" stroke-width="1" opacity="1"/><line transform="translate(226,0)" x2="0" y2="5" stroke="#888" stroke-width="1" opacity="1"/><line transform="translate(269,0)" x2="0" y2="5" stroke="#888" stroke-width="1" opacity="1"/><line transform="translate(312,0)" x2="0" y2="5" stroke="#888" stroke-width="1" opacity="1"/><line transform="translate(354,0)" x2="0" y2="5" stroke="#888" stroke-width="1" opacity="1"/><line transform="translate(397,0)" x2="0" y2="5" stroke="#888" stroke-width="1" opacity="1"/><line transform="translate(440,0)" x2="0" y2="5" stroke="#888" stroke-width="1" opacity="1"/><line transform="translate(483,0)" x2="0" y2="5" stroke="#888" stroke-width="1" opacity="1"/></g><g class="mark-text role-axis-label" pointer-events="none"><text text-anchor="middle" transform="translate(12.930697980992813,15)" font-family="sans-serif" font-size="10px" fill="#000" opacity="1">Wed 30</text><text text-anchor="middle" transform="translate(55.62127136875663,15)" font-family="sans-serif" font-size="10px" fill="#000" opacity="0">Thu 31</text><text text-anchor="middle" transform="translate(98.31184475652044,15)" font-family="sans-serif" font-size="10px" fill="#000" opacity="1">September</text><text text-anchor="middle" transform="translate(141.00241814428426,15)" font-family="sans-serif" font-size="10px" fill="#000" opacity="0">Sat 02</text><text text-anchor="middle" transform="translate(183.69299153204807,15)" font-family="sans-serif" font-size="10px" fill="#000" opacity="1">Sep 03</text><text text-anchor="middle" transform="translate(226.38356491981187,15)" font-family="sans-serif" font-size="10px" fill="#000" opacity="0">Mon 04</text><text text-anchor="middle" transform="translate(269.0741383075757,15)" font-family="sans-serif" font-size="10px" fill="#000" opacity="1">Tue 05</text><text text-anchor="middle" transform="translate(311.76471169533954,15)" font-family="sans-serif" font-size="10px" fill="#000" opacity="0">Wed 06</text><text text-anchor="middle" transform="translate(354.4552850831033,15)" font-family="sans-serif" font-size="10px" fill="#000" opacity="1">Thu 07</text><text text-anchor="middle" transform="translate(397.14585847086715,15)" font-family="sans-serif" font-size="10px" fill="#000" opacity="0">Fri 08</text><text text-anchor="middle" transform="translate(439.836431858631,15)" font-family="sans-serif" font-size="10px" fill="#000" opacity="1">Sat 09</text><text text-anchor="middle" transform="translate(482.52700524639476,15)" font-family="sans-serif" font-size="10px" fill="#000" opacity="0">Sep 10</text></g><g class="mark-rule role-axis-domain" pointer-events="none"><line transform="translate(0,0)" x2="500" y2="0" stroke="#e1e8f0" stroke-width="1" opacity="1"/></g><g class="mark-text role-axis-title" pointer-events="none"><text text-anchor="middle" transform="translate(250,36)" font-family="sans-serif" font-size="11px" font-weight="400" fill="#1c2a3a" opacity="1">date</text></g></g><path class="foreground" aria-hidden="true" d="" pointer-events="none" display="none"/></g></g><g class="mark-group role-axis" role="graphics-symbol" aria-roledescription="axis" aria-label="Y-axis titled 'sentiment' for a linear scale with values from −1.0 to 1.0"><g transform="translate(0.5,0.5)"><path class="background" aria-hidden="true" d="M0,0h0v0h0Z" pointer-events="none"/><g><g class="mark-rule role-axis-tick" pointer-events="none"><line transform="translate(0,300)" x2="-5" y2="0" stroke="#888" stroke-width="1" opacity="1"/><line transform="translate(0,270)" x2="-5" y2="0" stroke="#888" stroke-width="1" opacity="1"/><line transform="translate(0,240)" x2="-5" y2="0" stroke="#888" stroke-width="1" opacity="1"/><line transform="translate(0,210)" x2="-5" y2="0" stroke="#888" stroke-width="1" opacity="1"/><line transform="translate(0,180)" x2="-5" y2="0" stroke="#888" stroke-width="1" opacity="1"/><line transform="translate(0,150)" x2="-5" y2="0" stroke="#888" stroke-width="1" opacity="1"/><line transform="translate(0,120)" x2="-5" y2="0" stroke="#888" stroke-width="1" opacity="1"/><line transform="translate(0,90)" x2="-5" y2="0" stroke="#888" stroke-width="1" opacity="1"/><line transform="translate(0,60)" x2="-5" y2="0" stroke="#888" stroke-width="1" opacity="1"/><line transform="translate(0,30)" x2="-5" y2="0" stroke="#888" stroke-width="1" opacity="1"/><line transform="translate(0,0)" x2="-5" y2="0" stroke="#888" stroke-width="1" opacity="1"/></g><g class="mark-text role-axis-label" pointer-events="none"><text text-anchor="end" transform="translate(-13,304)" font-family="sans-serif" font-size="12px" fill="#000" opacity="1">−1.0</text><text text-anchor="end" transform="translate(-13,274)" font-family="sans-serif" font-size="12px" fill="#000" opacity="1">−0.8</text><text text-anchor="end" transform="translate(-13,244)" font-family="sans-serif" font-size="12px" fill="#000" opacity="1">−0.6</text><text text-anchor="end" transform="translate(-13,214)" font-family="sans-serif" font-size="12px" fill="#000" opacity="1">−0.4</text><text text-anchor="end" transform="translate(-13,184)" font-family="sans-serif" font-size="12px" fill="#000" opacity="1">−0.2</text><text text-anchor="end" transform="translate(-13,154)" font-family="sans-serif" font-size="12px" fill="#000" opacity="1">0.0</text><text text-anchor="end" transform="translate(-13,124)" font-family="sans-serif" font-size="12px" fill="#000" opacity="1">0.2</text><text text-anchor="end" transform="translate(-13,94.00000000000001)" font-family="sans-serif" font-size="12px" fill="#000" opacity="1">0.4</text><text text-anchor="end" transform="translate(-13,63.999999999999986)" font-family="sans-serif" font-size="12px" fill="#000" opacity="1">0.6</text><text text-anchor="end" transform="translate(-13,33.99999999999999)" font-family="sans-serif" font-size="12px" fill="#000" opacity="1">0.8</text><text text-anchor="end" transform="translate(-13,4)" font-family="sans-serif" font-size="12px" fill="#000" opacity="1">1.0</text></g><g class="mark-rule role-axis-domain" pointer-events="none"><line transform="translate(0,300)" x2="0" y2="-300" stroke="#888" stroke-width="1" opacity="1"/></g><g class="mark-text role-axis-title" pointer-events="none"><text text-anchor="middle" transform="translate(-47,150) rotate(-90) translate(0,-3)" font-family="sans-serif" font-size="12px" font-weight="400" fill="#1c2a3a" opacity="1">sentiment</text></g></g><path class="foreground" aria-hidden="true" d="" pointer-events="none" display="none"/></g></g><g class="mark-symbol role-mark layer_0_marks" role="graphics-object" aria-roledescription="symbol mark container"><path aria-label="date: Aug 29, 2023; sentiment: −0.00175372208469; Region: de" role="graphics-symbol" aria-roledescription="point" transform="translate(0,150.26305831270292)" d="M-2.739,-2.739h5.477v5.477h-5.477Z" stroke="#ffa83f" stroke-width="2" opacity="0.7"/><path aria-label="date: Aug 29, 2023; sentiment: −0.000205606433155; Region: de" role="graphics-symbol" aria-roledescription="point" transform="translate(3.698861485888888,150.03084096497332)" d="M-2.739,-2.739h5.477v5.477h-5.477Z" stroke="#ffa83f" stroke-width="2" opacity="0.7"/><path aria-label="date: Aug 29, 2023; sentiment: −0.955212716013; Region: de" role="graphics-symbol" aria-roledescription="point" transform="translate(4.450393454902646,293.28190740197897)" d="M-2.739,-2.739h5.477v5.477h-5.477Z" stroke="#ffa83f" stroke-width="2" opacity="0.7"/><path aria-label="date: Aug 29, 2023; sentiment: −0.0048567475751; Region: de" role="graphics-symbol" aria-roledescription="point" transform="translate(7.78510039696304,150.72851213626564)" d="M-2.739,-2.739h5.477v5.477h-5.477Z" stroke="#ffa83f" stroke-width="2" opacity="0.7"/><path aria-label="date: Aug 30, 2023; sentiment: −0.0166548732668; Region: de" role="graphics-symbol" aria-roledescription="point" transform="translate(40.98245634839461,152.49823099002242)" d="M-2.739,-2.739h5.477v5.477h-5.477Z" stroke="#ffa83f" stroke-width="2" opacity="0.7"/><path aria-label="date: Aug 30, 2023; sentiment: −0.889742544852; Region: de" role="graphics-symbol" aria-roledescription="point" transform="translate(45.611221296271594,283.4613817278296)" d="M-2.739,-2.739h5.477v5.477h-5.477Z" stroke="#ffa83f" stroke-width="2" opacity="0.7"/><path aria-label="date: Aug 31, 2023; sentiment: −0.0108632710762; Region: de" role="graphics-symbol" aria-roledescription="point" transform="translate(70.74183765130695,151.62949066143483)" d="M-2.739,-2.739h5.477v5.477h-5.477Z" stroke="#ffa83f" stroke-width="2" opacity="0.7"/><path aria-label="date: Aug 31, 2023; sentiment: −0.04636421334; Region: de" role="graphics-symbol" aria-roledescription="point" transform="translate(74.0661684123356,156.95463200099766)" d="M-2.739,-2.739h5.477v5.477h-5.477Z" stroke="#ffa83f" stroke-width="2" opacity="0.7"/><path aria-label="date: Aug 31, 2023; sentiment: −0.00298826070502; Region: de" role="graphics-symbol" aria-roledescription="point" transform="translate(78.56350173381044,150.4482391057536)" d="M-2.739,-2.739h5.477v5.477h-5.477Z" stroke="#ffa83f" stroke-width="2" opacity="0.7"/><path aria-label="date: Aug 31, 2023; sentiment: −0.00187148759142; Region: de" role="graphics-symbol" aria-roledescription="point" transform="translate(78.88368103421867,150.28072313871235)" d="M-2.739,-2.739h5.477v5.477h-5.477Z" stroke="#ffa83f" stroke-width="2" opacity="0.7"/><path aria-label="date: Sep 01, 2023; sentiment: −0.00372813118156; Region: de" role="graphics-symbol" aria-roledescription="point" transform="translate(108.34956464509014,150.55921967723407)" d="M-2.739,-2.739h5.477v5.477h-5.477Z" stroke="#ffa83f" stroke-width="2" opacity="0.7"/><path aria-label="date: Sep 01, 2023; sentiment: −0.0000481033548567; Region: de" role="graphics-symbol" aria-roledescription="point" transform="translate(111.46933640863575,150.0072155032285)" d="M-2.739,-2.739h5.477v5.477h-5.477Z" stroke="#ffa83f" stroke-width="2" opacity="0.7"/><path aria-label="date: Sep 01, 2023; sentiment: −0.981010925025; Region: de" role="graphics-symbol" aria-roledescription="point" transform="translate(115.13509293599478,297.1516387537122)" d="M-2.739,-2.739h5.477v5.477h-5.477Z" stroke="#ffa83f" stroke-width="2" opacity="0.7"/><path aria-label="date: Sep 01, 2023; sentiment: −0.921900749207; Region: de" role="graphics-symbol" aria-roledescription="point" transform="translate(118.5740557922313,288.28511238098145)" d="M-2.739,-2.739h5.477v5.477h-5.477Z" stroke="#ffa83f" stroke-width="2" opacity="0.7"/><path aria-label="date: Sep 01, 2023; sentiment: −0.950489165261; Region: de" role="graphics-symbol" aria-roledescription="point" transform="translate(136.48383835688728,292.5733747892082)" d="M-2.739,-2.739h5.477v5.477h-5.477Z" stroke="#ffa83f" stroke-width="2" opacity="0.7"/><path aria-label="date: Sep 01, 2023; sentiment: −0.939134649001; Region: de" role="graphics-symbol" aria-roledescription="point" transform="translate(136.1913288725637,290.8701973501593)" d="M-2.739,-2.739h5.477v5.477h-5.477Z" stroke="#ffa83f" stroke-width="2" opacity="0.7"/><path aria-label="date: Sep 02, 2023; sentiment: −0.000202713468752; Region: de" role="graphics-symbol" aria-roledescription="point" transform="translate(155.10463637414728,150.03040702031285)" d="M-2.739,-2.739h5.477v5.477h-5.477Z" stroke="#ffa83f" stroke-width="2" opacity="0.7"/><path aria-label="date: Sep 02, 2023; sentiment: −0.882408928126; Region: de" role="graphics-symbol" aria-roledescription="point" transform="translate(161.5764087148062,282.3613392189145)" d="M-2.739,-2.739h5.477v5.477h-5.477Z" stroke="#ffa83f" stroke-width="2" opacity="0.7"/><path aria-label="date: Sep 02, 2023; sentiment: −0.983553480823; Region: de" role="graphics-symbol" aria-roledescription="point" transform="translate(164.72730902144707,297.53302212338895)" d="M-2.739,-2.739h5.477v5.477h-5.477Z" stroke="#ffa83f" stroke-width="2" opacity="0.7"/><path aria-label="date: Sep 03, 2023; sentiment: −0.938931344077; Region: de" role="graphics-symbol" aria-roledescription="point" transform="translate(212.18549054136983,290.83970161154866)" d="M-2.739,-2.739h5.477v5.477h-5.477Z" stroke="#ffa83f" stroke-width="2" opacity="0.7"/><path aria-label="date: Sep 03, 2023; sentiment: −0.978080811445; Region: de" role="graphics-symbol" aria-roledescription="point" transform="translate(220.11141053804945,296.7121217167005)" d="M-2.739,-2.739h5.477v5.477h-5.477Z" stroke="#ffa83f" stroke-width="2" opacity="0.7"/><path aria-label="date: Sep 04, 2023; sentiment: −0.026684969198; Region: de" role="graphics-symbol" aria-roledescription="point" transform="translate(240.07320642769827,154.0027453796938)" d="M-2.739,-2.739h5.477v5.477h-5.477Z" stroke="#ffa83f" stroke-width="2" opacity="0.7"/><path aria-label="date: Sep 04, 2023; sentiment: −0.00000413091811424; Region: de" role="graphics-symbol" aria-roledescription="point" transform="translate(239.99266749873757,150.00061963771714)" d="M-2.739,-2.739h5.477v5.477h-5.477Z" stroke="#ffa83f" stroke-width="2" opacity="0.7"/><path aria-label="date: Sep 04, 2023; sentiment: −0.00962550728582; Region: bav" role="graphics-symbol" aria-roledescription="point" transform="translate(244.62637348520107,151.44382609287277)" d="M2.739,0A2.739,2.739,0,1,1,-2.739,0A2.739,2.739,0,1,1,2.739,0" stroke="#6583ff" stroke-width="2" opacity="0.7"/><path aria-label="date: Sep 04, 2023; sentiment: −0.994355795672; Region: de" role="graphics-symbol" aria-roledescription="point" transform="translate(254.75747900305652,299.1533693508245)" d="M-2.739,-2.739h5.477v5.477h-5.477Z" stroke="#ffa83f" stroke-width="2" opacity="0.7"/><path aria-label="date: Sep 04, 2023; sentiment: −0.0207628640346; Region: de" role="graphics-symbol" aria-roledescription="point" transform="translate(253.60177007766328,153.11442960519344)" d="M-2.739,-2.739h5.477v5.477h-5.477Z" stroke="#ffa83f" stroke-width="2" opacity="0.7"/><path aria-label="date: Sep 04, 2023; sentiment: −0.07506794855; Region: de" role="graphics-symbol" aria-roledescription="point" transform="translate(260.16742215146655,161.26019228249788)" d="M-2.739,-2.739h5.477v5.477h-5.477Z" stroke="#ffa83f" stroke-width="2" opacity="0.7"/><path aria-label="date: Sep 05, 2023; sentiment: −0.985973767936; Region: de" role="graphics-symbol" aria-roledescription="point" transform="translate(269.31229636744723,297.89606519043446)" d="M-2.739,-2.739h5.477v5.477h-5.477Z" stroke="#ffa83f" stroke-width="2" opacity="0.7"/><path aria-label="date: Sep 06, 2023; sentiment: −0.000897784193512; Region: bav" role="graphics-symbol" aria-roledescription="point" transform="translate(326.6085798170432,150.1346676290268)" d="M2.739,0A2.739,2.739,0,1,1,-2.739,0A2.739,2.739,0,1,1,2.739,0" stroke="#6583ff" stroke-width="2" opacity="0.7"/><path aria-label="date: Sep 06, 2023; sentiment: 0.952349342406; Region: de" role="graphics-symbol" aria-roledescription="point" transform="translate(340.8031954684747,7.147598639130592)" d="M-2.739,-2.739h5.477v5.477h-5.477Z" stroke="#ffa83f" stroke-width="2" opacity="0.7"/><path aria-label="date: Sep 06, 2023; sentiment: −0.982225641143; Region: de" role="graphics-symbol" aria-roledescription="point" transform="translate(348.8743819995988,297.33384617138654)" d="M-2.739,-2.739h5.477v5.477h-5.477Z" stroke="#ffa83f" stroke-width="2" opacity="0.7"/><path aria-label="date: Sep 06, 2023; sentiment: −0.207078861073; Region: de" role="graphics-symbol" aria-roledescription="point" transform="translate(349.38380307787173,181.06182916089892)" d="M-2.739,-2.739h5.477v5.477h-5.477Z" stroke="#ffa83f" stroke-width="2" opacity="0.7"/><path aria-label="date: Sep 07, 2023; sentiment: −0.944884878118; Region: de" role="graphics-symbol" aria-roledescription="point" transform="translate(370.9855296743955,291.73273171763867)" d="M-2.739,-2.739h5.477v5.477h-5.477Z" stroke="#ffa83f" stroke-width="2" opacity="0.7"/><path aria-label="date: Sep 07, 2023; sentiment: −0.0534675586969; Region: de" role="graphics-symbol" aria-roledescription="point" transform="translate(372.3230688197736,158.0201338045299)" d="M-2.739,-2.739h5.477v5.477h-5.477Z" stroke="#ffa83f" stroke-width="2" opacity="0.7"/><path aria-label="date: Sep 07, 2023; sentiment: −0.962883903645; Region: de" role="graphics-symbol" aria-roledescription="point" transform="translate(372.1120864721281,294.43258554674685)" d="M-2.739,-2.739h5.477v5.477h-5.477Z" stroke="#ffa83f" stroke-width="2" opacity="0.7"/><path aria-label="date: Sep 07, 2023; sentiment: −0.989074341021; Region: de" role="graphics-symbol" aria-roledescription="point" transform="translate(372.1066513296829,298.3611511532217)" d="M-2.739,-2.739h5.477v5.477h-5.477Z" stroke="#ffa83f" stroke-width="2" opacity="0.7"/><path aria-label="date: Sep 07, 2023; sentiment: −0.00816800980829; Region: de" role="graphics-symbol" aria-roledescription="point" transform="translate(388.97288654486016,151.22520147124305)" d="M-2.739,-2.739h5.477v5.477h-5.477Z" stroke="#ffa83f" stroke-width="2" opacity="0.7"/><path aria-label="date: Sep 08, 2023; sentiment: −0.019009870477; Region: de" role="graphics-symbol" aria-roledescription="point" transform="translate(421.18796402528625,152.8514805715531)" d="M-2.739,-2.739h5.477v5.477h-5.477Z" stroke="#ffa83f" stroke-width="2" opacity="0.7"/><path aria-label="date: Sep 08, 2023; sentiment: −0.883416522294; Region: de" role="graphics-symbol" aria-roledescription="point" transform="translate(432.33247655724244,282.51247834414244)" d="M-2.739,-2.739h5.477v5.477h-5.477Z" stroke="#ffa83f" stroke-width="2" opacity="0.7"/><path aria-label="date: Sep 09, 2023; sentiment: −0.00000496375969306; Region: de" role="graphics-symbol" aria-roledescription="point" transform="translate(460.58879392212725,150.00074456395396)" d="M-2.739,-2.739h5.477v5.477h-5.477Z" stroke="#ffa83f" stroke-width="2" opacity="0.7"/><path aria-label="date: Sep 09, 2023; sentiment: −0.925075767562; Region: de" role="graphics-symbol" aria-roledescription="point" transform="translate(471.16113418576134,288.761365134269)" d="M-2.739,-2.739h5.477v5.477h-5.477Z" stroke="#ffa83f" stroke-width="2" opacity="0.7"/><path aria-label="date: Sep 09, 2023; sentiment: −0.991748888278; Region: de" role="graphics-symbol" aria-roledescription="point" transform="translate(474.47014772717165,298.762333241757)" d="M-2.739,-2.739h5.477v5.477h-5.477Z" stroke="#ffa83f" stroke-width="2" opacity="0.7"/><path aria-label="date: Sep 09, 2023; sentiment: −0.00765796820633; Region: de" role="graphics-symbol" aria-roledescription="point" transform="translate(473.82781271092057,151.14869523094967)" d="M-2.739,-2.739h5.477v5.477h-5.477Z" stroke="#ffa83f" stroke-width="2" opacity="0.7"/><path aria-label="date: Sep 10, 2023; sentiment: −0.0237500756048; Region: de" role="graphics-symbol" aria-roledescription="point" transform="translate(498.56314597903224,153.562511340715)" d="M-2.739,-2.739h5.477v5.477h-5.477Z" stroke="#ffa83f" stroke-width="2" opacity="0.7"/><path aria-label="date: Sep 10, 2023; sentiment: −0.991714761127; Region: de" role="graphics-symbol" aria-roledescription="point" transform="translate(500,298.75721416901797)" d="M-2.739,-2.739h5.477v5.477h-5.477Z" stroke="#ffa83f" stroke-width="2" opacity="0.7"/></g><g class="mark-line role-mark layer_1_marks" role="graphics-object" aria-roledescription="line mark container"><path aria-label="date: Aug 29, 2023; sentiment: −0.100141666383" role="graphics-symbol" aria-roledescription="line mark" d="M0,165.021L3.699,166.572L4.45,166.89L7.785,168.315L40.982,183.626L45.611,185.911L70.742,198.733L74.066,200.444L78.564,202.747L78.884,202.91L108.35,217.726L111.469,219.528L115.135,221.954L118.574,224.642L136.191,238.249L136.484,238.517L155.105,246.898L161.576,246.67L164.727,248.256L212.185,228.171L220.111,225.732L239.993,215.743L240.073,215.699L244.626,213.165L253.602,207.607L254.757,206.944L260.167,206.101L269.312,208.064L326.609,210.059L340.803,211.037L348.874,211.984L349.384,212.015L370.986,212.647L372.107,212.663L372.112,212.664L372.323,212.672L388.973,215.354L421.188,220.38L432.332,221.914L460.589,225.457L471.161,226.678L473.828,226.982L474.47,227.055L498.563,229.755L500,229.914" stroke="firebrick" stroke-width="2" opacity="0.5"/></g><g class="mark-group role-legend" role="graphics-symbol" aria-roledescription="legend" aria-label="Symbol legend titled 'Region' for shape and stroke color with 2 values: bav, de"><g transform="translate(518,0)"><path class="background" aria-hidden="true" d="M0,0h40v52h-40Z" pointer-events="none"/><g><g class="mark-group role-legend-entry"><g transform="translate(0,23)"><path class="background" aria-hidden="true" d="M0,0h0v0h0Z" pointer-events="none"/><g><g class="mark-group role-scope" role="graphics-object" aria-roledescription="group mark container"><g transform="translate(0,0)"><path class="background" aria-hidden="true" d="M0,0h35v12.5h-35Z" pointer-events="none" opacity="1"/><g><g class="mark-symbol role-legend-symbol" pointer-events="none"><path transform="translate(6,6)" d="M5,0A5,5,0,1,1,-5,0A5,5,0,1,1,5,0" stroke="#6583ff" stroke-width="1.5" opacity="0.7"/></g><g class="mark-text role-legend-label" pointer-events="none"><text text-anchor="start" transform="translate(16,10)" font-family="sans-serif" font-size="12px" fill="#000" opacity="1">bav</text></g></g><path class="foreground" aria-hidden="true" d="" pointer-events="none" display="none"/></g><g transform="translate(0,16)"><path class="background" aria-hidden="true" d="M0,0h35v12.5h-35Z" pointer-events="none" opacity="1"/><g><g class="mark-symbol role-legend-symbol" pointer-events="none"><path transform="translate(6,6)" d="M-5,-5h10v10h-10Z" stroke="#ffa83f" stroke-width="1.5" opacity="0.7"/></g><g class="mark-text role-legend-label" pointer-events="none"><text text-anchor="start" transform="translate(16,10)" font-family="sans-serif" font-size="12px" fill="#000" opacity="1">de</text></g></g><path class="foreground" aria-hidden="true" d="" pointer-events="none" display="none"/></g></g></g><path class="foreground" aria-hidden="true" d="" pointer-events="none" display="none"/></g></g><g class="mark-text role-legend-title" pointer-events="none"><text text-anchor="start" transform="translate(0,10)" font-family="sans-serif" font-size="13px" font-weight="400" fill="#000" opacity="1">Region</text></g></g><path class="foreground" aria-hidden="true" d="" pointer-events="none" display="none"/></g></g><g class="mark-group role-title"><g transform="translate(249,-28)"><path class="background" aria-hidden="true" d="M0,0h0v0h0Z" pointer-events="none"/><g><g class="mark-text role-title-text" role="graphics-symbol" aria-roledescription="title" aria-label="Title text 'Sentiments for the AFD'" pointer-events="none"><text text-anchor="middle" transform="translate(0,14)" font-family="Inter" font-size="18px" font-weight="400" fill="#445668" opacity="1">Sentiments for the AFD</text></g></g><path class="foreground" aria-hidden="true" d="" pointer-events="none" display="none"/></g></g></g><path class="foreground" aria-hidden="true" d="" display="none"/></g></g></g></svg>