<svg xmlns="http://www.w3.org/2000/svg" xmlns:xlink="http://www.w3.org/1999/xlink" version="1.1" class="marks" width="628" height="376" viewBox="0 0 628 376"><rect width="628" height="376" fill="#fff"/><g fill="none" stroke-miterlimit="10" transform="translate(65,33)"><g class="mark-group role-frame root" role="graphics-object" aria-roledescription="group mark container"><g transform="translate(0,0)"><path class="background" aria-hidden="true" d="M0.5,0.5h500v300h-500Z" stroke="#ddd"/><g><g class="mark-group role-axis" aria-hidden="true"><g transform="translate(0.5,300.5)"><path class="background" aria-hidden="true" d="M0,0h0v0h0Z" pointer-events="none"/><g><g class="mark-rule role-axis-grid" pointer-events="none"><line transform="translate(13,-300)" x2="0" y2="300" stroke="#ddd" stroke-width="1" opacity="1"/><line transform="translate(63,-300)" x2="0" y2="300" stroke="#ddd" stroke-width="1" opacity="1"/><line transform="translate(112,-300)" x2="0" y2="300" stroke="#ddd" stroke-width="1" opacity="1"/><line transform="translate(161,-300)" x2="0" y2="300" stroke="#ddd" stroke-width="1" opacity="1"/><line transform="translate(211,-300)" x2="0" y2="300" stroke="#ddd" stroke-width="1" opacity="1"/><line transform="translate(260,-300)" x2="0" y2="300" stroke="#ddd" stroke-width="1" opacity="1"/><line transform="translate(309,-300)" x2="0" y2="300" stroke="#ddd" stroke-width="1" opacity="1"/><line transform="translate(359,-300)" x2="0" y2="300" stroke="#ddd" stroke-width="1" opacity="1"/><line transform="translate(408,-300)" x2="0" y2="300" stroke="#ddd" stroke-width="1" opacity="1"/><line transform="translate(458,-300)" x2="0" y2="300" stroke="#ddd" stroke-width="1" opacity="1"/></g></g><path class="foreground" aria-hidden="true" d="" pointer-events="none" display="none"/></g></g><g class="mark-group role-axis" aria-hidden="true"><g transform="translate(0.5,0.5)"><path class="background" aria-hidden="true" d="M0,0h0v0h0Z" pointer-events="none"/><g><g class="mark-rule role-axis-grid" pointer-events="none"><line transform="translate(0,300)" x2="500" y2="0" stroke="#e1e8f0" stroke-width="1" opacity="1"/><line transform="translate(0,270)" x2="500" y2="0" stroke="#e1e8f0" stroke-width="1" opacity="1"/><line transform="translate(0,240)" x2="500" y2="0" stroke="#e1e8f0" stroke-width="1" opacity="1"/><line transform="translate(0,210)" x2="500" y2="0" stroke="#e1e8f0" stroke-width="1" opacity="1"/><line transform="translate(0,180)" x2="500" y2="0" stroke="#e1e8f0" stroke-width="1" opacity="1"/><line transform="translate(0,150)" x2="500" y2="0" stroke="#e1e8f0" stroke-width="1" opacity="1"/><line transform="translate(0,120)" x2="500" y2="0" stroke="#e1e8f0" stroke-width="1" opacity="1"/><line transform="translate(0,90)" x2="500" y2="0" stroke="#e1e8f0" stroke-width="1" opacity="1"/><line transform="translate(0,60)" x2="500" y2="0" stroke="#e1e8f0" stroke-width="1" opacity="1"/><line transform="translate(0,30)" x2="500" y2="0" stroke="#e1e8f0" stroke-width="1" opacity="1"/><line transform="translate(0,0)" x2="500" y2="0" stroke="#e1e8f0" stroke-width="1" opacity="1"/></g></g><path class="foreground" aria-hidden="true" d="" pointer-events="none" display="none"/></g></g><g class="mark-group role-axis" role="graphics-symbol" aria-roledescription="axis" aria-label="X-axis titled 'date' for a time scale with values from Saturday, 02 September 2023, 8:45:50 AM to Thursday, 07 September 2023, 10:18:31 AM"><g transform="translate(0.5,300.5)"><path class="background" aria-hidden="true" d="M0,0h0v0h0Z" pointer-events="none"/><g><g class="mark-rule role-axis-tick" pointer-events="none"><line transform="translate(13,0)" x2="0" y2="5" stroke="#888" stroke-width="1" opacity="1"/><line transform="translate(63,0)" x2="0" y2="5" stroke="#888" stroke-width="1" opacity="1"/><line transform="translate(112,0)" x2="0" y2="5" stroke="#888" stroke-width="1" opacity="1"/><line transform="translate(161,0)" x2="0" y2="5" stroke="#888" stroke-width="1" opacity="1"/><line transform="translate(211,0)" x2="0" y2="5" stroke="#888" stroke-width="1" opacity="1"/><line transform="translate(260,0)" x2="0" y2="5" stroke="#888" stroke-width="1" opacity="1"/><line transform="translate(309,0)" x2="0" y2="5" stroke="#888" stroke-width="1" opacity="1"/><line transform="translate(359,0)" x2="0" y2="5" stroke="#888" stroke-width="1" opacity="1"/><line transform="translate(408,0)" x2="0" y2="5" stroke="#888" stroke-width="1" opacity="1"/><line transform="translate(458,0)" x2="0" y2="5" stroke="#888" stroke-width="1" opacity="1"/></g><g class="mark-text role-axis-label" pointer-events="none"><text text-anchor="middle" transform="translate(13.312429581246958,15)" font-family="sans-serif" font-size="10px" fill="#000" opacity="1">12 PM</text><text text-anchor="middle" transform="translate(62.67697532458332,15)" font-family="sans-serif" font-size="10px" fill="#000" opacity="1">Sep 03</text><text text-anchor="middle" transform="translate(112.04152106791967,15)" font-family="sans-serif" font-size="10px" fill="#000" opacity="1">12 PM</text><text text-anchor="middle" transform="translate(161.406066811256,15)" font-family="sans-serif" font-size="10px" fill="#000" opacity="1">Mon 04</text><text text-anchor="middle" transform="translate(210.7706125545924,15)" font-family="sans-serif" font-size="10px" fill="#000" opacity="1">12 PM</text><text text-anchor="middle" transform="translate(260.1351582979288,15)" font-family="sans-serif" font-size="10px" fill="#000" opacity="1">Tue 05</text><text text-anchor="middle" transform="translate(309.4997040412651,15)" font-family="sans-serif" font-size="10px" fill="#000" opacity="1">12 PM</text><text text-anchor="middle" transform="translate(358.86424978460144,15)" font-family="sans-serif" font-size="10px" fill="#000" opacity="1">Wed 06</text><text text-anchor="middle" transform="translate(408.22879552793785,15)" font-family="sans-serif" font-size="10px" fill="#000" opacity="1">12 PM</text><text text-anchor="middle" transform="translate(457.59334127127414,15)" font-family="sans-serif" font-size="10px" fill="#000" opacity="1">Thu 07</text></g><g class="mark-rule role-axis-domain" pointer-events="none"><line transform="translate(0,0)" x2="500" y2="0" stroke="#e1e8f0" stroke-width="1" opacity="1"/></g><g class="mark-text role-axis-title" pointer-events="none"><text text-anchor="middle" transform="translate(250,36)" font-family="sans-serif" font-size="11px" font-weight="400" fill="#1c2a3a" opacity="1">date</text></g></g><path class="foreground" aria-hidden="true" d="" pointer-events="none" display="none"/></g></g><g class="mark-group role-axis" role="graphics-symbol" aria-roledescription="axis" aria-label="Y-axis titled 'sentiment' for a linear scale with values from −1.0 to 1.0"><g transform="translate(0.5,0.5)"><path class="background" aria-hidden="true" d="M0,0h0v0h0Z" pointer-events="none"/><g><g class="mark-rule role-axis-tick" pointer-events="none"><line transform="translate(0,300)" x2="-5" y2="0" stroke="#888" stroke-width="1" opacity="1"/><line transform="translate(0,270)" x2="-5" y2="0" stroke="#888" stroke-width="1" opacity="1"/><line transform="translate(0,240)" x2="-5" y2="0" stroke="#888" stroke-width="1" opacity="1"/><line transform="translate(0,210)" x2="-5" y2="0" stroke="#888" stroke-width="1" opacity="1"/><line transform="translate(0,180)" x2="-5" y2="0" stroke="#888" stroke-width="1" opacity="1"/><line transform="translate(0,150)" x2="-5" y2="0" stroke="#888" stroke-width="1" opacity="1"/><line transform="translate(0,120)" x2="-5" y2="0" stroke="#888" stroke-width="1" opacity="1"/><line transform="translate(0,90)" x2="-5" y2="0" stroke="#888" stroke-width="1" opacity="1"/><line transform="translate(0,60)" x2="-5" y2="0" stroke="#888" stroke-width="1" opacity="1"/><line transform="translate(0,30)" x2="-5" y2="0" stroke="#888" stroke-width="1" opacity="1"/><line transform="translate(0,0)" x2="-5" y2="0" stroke="#888" stroke-width="1" opacity="1"/></g><g class="mark-text role-axis-label" pointer-events="none"><text text-anchor="end" transform="translate(-13,304)" font-family="sans-serif" font-size="12px" fill="#000" opacity="1">−1.0</text><text text-anchor="end" transform="translate(-13,274)" font-family="sans-serif" font-size="12px" fill="#000" opacity="1">−0.8</text><text text-anchor="end" transform="translate(-13,244)" font-family="sans-serif" font-size="12px" fill="#000" opacity="1">−0.6</text><text text-anchor="end" transform="translate(-13,214)" font-family="sans-serif" font-size="12px" fill="#000" opacity="1">−0.4</text><text text-anchor="end" transform="translate(-13,184)" font-family="sans-serif" font-size="12px" fill="#000" opacity="1">−0.2</text><text text-anchor="end" transform="translate(-13,154)" font-family="sans-serif" font-size="12px" fill="#000" opacity="1">0.0</text><text text-anchor="end" transform="translate(-13,124)" font-family="sans-serif" font-size="12px" fill="#000" opacity="1">0.2</text><text text-anchor="end" transform="translate(-13,94.00000000000001)" font-family="sans-serif" font-size="12px" fill="#000" opacity="1">0.4</text><text text-anchor="end" transform="translate(-13,63.999999999999986)" font-family="sans-serif" font-size="12px" fill="#000" opacity="1">0.6</text><text text-anchor="end" transform="translate(-13,33.99999999999999)" font-family="sans-serif" font-size="12px" fill="#000" opacity="1">0.8</text><text text-anchor="end" transform="translate(-13,4)" font-family="sans-serif" font-size="12px" fill="#000" opacity="1">1.0</text></g><g class="mark-rule role-axis-domain" pointer-events="none"><line transform="translate(0,300)" x2="0" y2="-300" stroke="#888" stroke-width="1" opacity="1"/></g><g class="mark-text role-axis-title" pointer-events="none"><text text-anchor="middle" transform="translate(-47,150) rotate(-90) translate(0,-3)" font-family="sans-serif" font-size="12px" font-weight="400" fill="#1c2a3a" opacity="1">sentiment</text></g></g><path class="foreground" aria-hidden="true" d="" pointer-events="none" display="none"/></g></g><g class="mark-symbol role-mark layer_0_marks" role="graphics-object" aria-roledescription="symbol mark container"><path aria-label="date: Sep 02, 2023; sentiment: −0.00506282132119; Region: de" role="graphics-symbol" aria-roledescription="point" transform="translate(0,150.7594231981784)" d="M2.739,0A2.739,2.739,0,1,1,-2.739,0A2.739,2.739,0,1,1,2.739,0" stroke="#6583ff" stroke-width="2" opacity="0.7"/><path aria-label="date: Sep 02, 2023; sentiment: −0.725928373635; Region: de" role="graphics-symbol" aria-roledescription="point" transform="translate(26.476308446136652,258.8892560452223)" d="M2.739,0A2.739,2.739,0,1,1,-2.739,0A2.739,2.739,0,1,1,2.739,0" stroke="#6583ff" stroke-width="2" opacity="0.7"/><path aria-label="date: Sep 05, 2023; sentiment: −0.00105876935413; Region: de" role="graphics-symbol" aria-roledescription="point" transform="translate(285.70073658301357,150.15881540311966)" d="M2.739,0A2.739,2.739,0,1,1,-2.739,0A2.739,2.739,0,1,1,2.739,0" stroke="#6583ff" stroke-width="2" opacity="0.7"/><path aria-label="date: Sep 05, 2023; sentiment: −0.00000470797340313; Region: de" role="graphics-symbol" aria-roledescription="point" transform="translate(298.00759208430367,150.00070619601047)" d="M2.739,0A2.739,2.739,0,1,1,-2.739,0A2.739,2.739,0,1,1,2.739,0" stroke="#6583ff" stroke-width="2" opacity="0.7"/><path aria-label="date: Sep 05, 2023; sentiment: 0.00242901104502; Region: de" role="graphics-symbol" aria-roledescription="point" transform="translate(321.6934324585601,149.63564834324643)" d="M2.739,0A2.739,2.739,0,1,1,-2.739,0A2.739,2.739,0,1,1,2.739,0" stroke="#6583ff" stroke-width="2" opacity="0.7"/><path aria-label="date: Sep 06, 2023; sentiment: −0.973230903037; Region: de" role="graphics-symbol" aria-roledescription="point" transform="translate(385.5233898816394,295.98463545553386)" d="M2.739,0A2.739,2.739,0,1,1,-2.739,0A2.739,2.739,0,1,1,2.739,0" stroke="#6583ff" stroke-width="2" opacity="0.7"/><path aria-label="date: Sep 06, 2023; sentiment: −0.979812168051; Region: de" role="graphics-symbol" aria-roledescription="point" transform="translate(388.03275429025894,296.9718252075836)" d="M2.739,0A2.739,2.739,0,1,1,-2.739,0A2.739,2.739,0,1,1,2.739,0" stroke="#6583ff" stroke-width="2" opacity="0.7"/><path aria-label="date: Sep 06, 2023; sentiment: −0.849538426846; Region: de" role="graphics-symbol" aria-roledescription="point" transform="translate(392.9760650515014,277.43076402693987)" d="M2.739,0A2.739,2.739,0,1,1,-2.739,0A2.739,2.739,0,1,1,2.739,0" stroke="#6583ff" stroke-width="2" opacity="0.7"/><path aria-label="date: Sep 06, 2023; sentiment: −0.978148983791; Region: de" role="graphics-symbol" aria-roledescription="point" transform="translate(410.2502279682147,296.7223475687206)" d="M2.739,0A2.739,2.739,0,1,1,-2.739,0A2.739,2.739,0,1,1,2.739,0" stroke="#6583ff" stroke-width="2" opacity="0.7"/><path aria-label="date: Sep 07, 2023; sentiment: −0.0000584439821978; Region: de" role="graphics-symbol" aria-roledescription="point" transform="translate(500,150.00876659732967)" d="M2.739,0A2.739,2.739,0,1,1,-2.739,0A2.739,2.739,0,1,1,2.739,0" stroke="#6583ff" stroke-width="2" opacity="0.7"/><path aria-label="date: Sep 07, 2023; sentiment: −0.0000584439821978; Region: de" role="graphics-symbol" aria-roledescription="point" transform="translate(499.91086957018564,150.00876659732967)" d="M2.739,0A2.739,2.739,0,1,1,-2.739,0A2.739,2.739,0,1,1,2.739,0" stroke="#6583ff" stroke-width="2" opacity="0.7"/></g><g class="mark-line role-mark layer_1_marks" role="graphics-object" aria-roledescription="line mark container"><path aria-label="date: Sep 02, 2023; sentiment: −0.00506313537902" role="graphics-symbol" aria-roledescription="line mark" d="M0,150.759L26.476,150.701L285.701,150.081L298.008,149.98L321.693,150.152L385.523,296.407L388.033,296.444L392.976,296.517L410.25,296.766L499.911,150.082L500,149.936" stroke="firebrick" stroke-width="2" opacity="0.5"/></g><g class="mark-group role-legend" role="graphics-symbol" aria-roledescription="legend" aria-label="Symbol legend titled 'Region' for shape and stroke color with 1 value: de"><g transform="translate(518,0)"><path class="background" aria-hidden="true" d="M0,0h40v36h-40Z" pointer-events="none"/><g><g class="mark-group role-legend-entry"><g transform="translate(0,23)"><path class="background" aria-hidden="true" d="M0,0h0v0h0Z" pointer-events="none"/><g><g class="mark-group role-scope" role="graphics-object" aria-roledescription="group mark container"><g transform="translate(0,0)"><path class="background" aria-hidden="true" d="M0,0h30v12.5h-30Z" pointer-events="none" opacity="1"/><g><g class="mark-symbol role-legend-symbol" pointer-events="none"><path transform="translate(6,6)" d="M5,0A5,5,0,1,1,-5,0A5,5,0,1,1,5,0" stroke="#6583ff" stroke-width="1.5" opacity="0.7"/></g><g class="mark-text role-legend-label" pointer-events="none"><text text-anchor="start" transform="translate(16,10)" font-family="sans-serif" font-size="12px" fill="#000" opacity="1">de</text></g></g><path class="foreground" aria-hidden="true" d="" pointer-events="none" display="none"/></g></g></g><path class="foreground" aria-hidden="true" d="" pointer-events="none" display="none"/></g></g><g class="mark-text role-legend-title" pointer-events="none"><text text-anchor="start" transform="translate(0,10)" font-family="sans-serif" font-size="13px" font-weight="400" fill="#000" opacity="1">Region</text></g></g><path class="foreground" aria-hidden="true" d="" pointer-events="none" display="none"/></g></g><g class="mark-group role-title"><g transform="translate(249,-28)"><path class="background" aria-hidden="true" d="M0,0h0v0h0Z" pointer-events="none"/><g><g class="mark-text role-title-text" role="graphics-symbol" aria-roledescription="title" aria-label="Title text 'Sentiments for the SPD'" pointer-events="none"><text text-anchor="middle" transform="translate(0,14)" font-family="Inter" font-size="18px" font-weight="400" fill="#445668" opacity="1">Sentiments for the SPD</text></g></g><path class="foreground" aria-hidden="true" d="" pointer-events="none" display="none"/></g></g></g><path class="foreground" aria-hidden="true" d="" display="none"/></g></g></g></svg>