<svg xmlns="http://www.w3.org/2000/svg" xmlns:xlink="http://www.w3.org/1999/xlink" version="1.1" class="marks" width="628" height="376" viewBox="0 0 628 376"><rect width="628" height="376" fill="#fff"/><g fill="none" stroke-miterlimit="10" transform="translate(65,33)"><g class="mark-group role-frame root" role="graphics-object" aria-roledescription="group mark container"><g transform="translate(0,0)"><path class="background" aria-hidden="true" d="M0.5,0.5h500v300h-500Z" stroke="#ddd"/><g><g class="mark-group role-axis" aria-hidden="true"><g transform="translate(0.5,300.5)"><path class="background" aria-hidden="true" d="M0,0h0v0h0Z" pointer-events="none"/><g><g class="mark-rule role-axis-grid" pointer-events="none"><line transform="translate(24,-300)" x2="0" y2="300" stroke="#ddd" stroke-width="1" opacity="1"/><line transform="translate(72,-300)" x2="0" y2="300" stroke="#ddd" stroke-width="1" opacity="1"/><line transform="translate(120,-300)" x2="0" y2="300" stroke="#ddd" stroke-width="1" opacity="1"/><line transform="translate(168,-300)" x2="0" y2="300" stroke="#ddd" stroke-width="1" opacity="1"/><line transform="translate(216,-300)" x2="0" y2="300" stroke="#ddd" stroke-width="1" opacity="1"/><line transform="translate(264,-300)" x2="0" y2="300" stroke="#ddd" stroke-width="1" opacity="1"/><line transform="translate(312,-300)" x2="0" y2="300" stroke="#ddd" stroke-width="1" opacity="1"/><line transform="translate(360,-300)" x2="0" y2="300" stroke="#ddd" stroke-width="1" opacity="1"/><line transform="translate(408,-300)" x2="0" y2="300" stroke="#ddd" stroke-width="1" opacity="1"/><line transform="translate(456,-300)" x2="0" y2="300" stroke="#ddd" stroke-width="1" opacity="1"/></g></g><path class="foreground" aria-hidden="true" d="" pointer-events="none" display="none"/></g></g><g class="mark-group role-axis" aria-hidden="true"><g transform="translate(0.5,0.5)"><path class="background" aria-hidden="true" d="M0,0h0v0h0Z" pointer-events="none"/><g><g class="mark-rule role-axis-grid" pointer-events="none"><line transform="translate(0,300)" x2="500" y2="0" stroke="#e1e8f0" stroke-width="1" opacity="1"/><line transform="translate(0,270)" x2="500" y2="0" stroke="#e1e8f0" stroke-width="1" opacity="1"/><line transform="translate(0,240)" x2="500" y2="0" stroke="#e1e8f0" stroke-width="1" opacity="1"/><line transform="translate(0,210)" x2="500" y2="0" stroke="#e1e8f0" stroke-width="1" opacity="1"/><line transform="translate(0,180)" x2="500" y2="0" stroke="#e1e8f0" stroke-width="1" opacity="1"/><line transform="translate(0,150)" x2="500" y2="0" stroke="#e1e8f0" stroke-width="1" opacity="1"/><line transform="translate(0,120)" x2="500" y2="0" stroke="#e1e8f0" stroke-width="1" opacity="1"/><line transform="translate(0,90)" x2="500" y2="0" stroke="#e1e8f0" stroke-width="1" opacity="1"/><line transform="translate(0,60)" x2="500" y2="0" stroke="#e1e8f0" stroke-width="1" opacity="1"/><line transform="translate(0,30)" x2="500" y2="0" stroke="#e1e8f0" stroke-width="1" opacity="1"/><line transform="translate(0,0)" x2="500" y2="0" stroke="#e1e8f0" stroke-width="1" opacity="1"/></g></g><path class="foreground" aria-hidden="true" d="" pointer-events="none" display="none"/></g></g><g class="mark-group role-axis" role="graphics-symbol" aria-roledescription="axis" aria-label="X-axis titled 'date' for a time scale with values from Wednesday, 06 September 2023, 10:55:10 AM to Saturday, 18 November 2023, 11:35:21 AM"><g transform="translate(0.5,300.5)"><path class="background" aria-hidden="true" d="M0,0h0v0h0Z" pointer-events="none"/><g><g class="mark-rule role-axis-tick" pointer-events="none"><line transform="translate(24,0)" x2="0" y2="5" stroke="#888" stroke-width="1" opacity="1"/><line transform="translate(72,0)" x2="0" y2="5" stroke="#888" stroke-width="1" opacity="1"/><line transform="translate(120,0)" x2="0" y2="5" stroke="#888" stroke-width="1" opacity="1"/><line transform="translate(168,0)" x2="0" y2="5" stroke="#888" stroke-width="1" opacity="1"/><line transform="translate(216,0)" x2="0" y2="5" stroke="#888" stroke-width="1" opacity="1"/><line transform="translate(264,0)" x2="0" y2="5" stroke="#888" stroke-width="1" opacity="1"/><line transform="translate(312,0)" x2="0" y2="5" stroke="#888" stroke-width="1" opacity="1"/><line transform="translate(360,0)" x2="0" y2="5" stroke="#888" stroke-width="1" opacity="1"/><line transform="translate(408,0)" x2="0" y2="5" stroke="#888" stroke-width="1" opacity="1"/><line transform="translate(456,0)" x2="0" y2="5" stroke="#888" stroke-width="1" opacity="1"/></g><g class="mark-text role-axis-label" pointer-events="none"><text text-anchor="middle" transform="translate(24.25786180756512,15)" font-family="sans-serif" font-size="10px" fill="#000" opacity="1">Sep 10</text><text text-anchor="middle" transform="translate(72.15741720021714,15)" font-family="sans-serif" font-size="10px" fill="#000" opacity="1">Sep 17</text><text text-anchor="middle" transform="translate(120.05697259286914,15)" font-family="sans-serif" font-size="10px" fill="#000" opacity="1">Sep 24</text><text text-anchor="middle" transform="translate(167.95652798552115,15)" font-family="sans-serif" font-size="10px" fill="#000" opacity="1">October</text><text text-anchor="middle" transform="translate(215.85608337817317,15)" font-family="sans-serif" font-size="10px" fill="#000" opacity="1">Oct 08</text><text text-anchor="middle" transform="translate(263.7556387708252,15)" font-family="sans-serif" font-size="10px" fill="#000" opacity="1">Oct 15</text><text text-anchor="middle" transform="translate(311.6551941634772,15)" font-family="sans-serif" font-size="10px" fill="#000" opacity="1">Oct 22</text><text text-anchor="middle" transform="translate(359.5547495561292,15)" font-family="sans-serif" font-size="10px" fill="#000" opacity="1">Oct 29</text><text text-anchor="middle" transform="translate(407.73942134992797,15)" font-family="sans-serif" font-size="10px" fill="#000" opacity="1">Nov 05</text><text text-anchor="middle" transform="translate(455.63897674258,15)" font-family="sans-serif" font-size="10px" fill="#000" opacity="1">Nov 12</text></g><g class="mark-rule role-axis-domain" pointer-events="none"><line transform="translate(0,0)" x2="500" y2="0" stroke="#e1e8f0" stroke-width="1" opacity="1"/></g><g class="mark-text role-axis-title" pointer-events="none"><text text-anchor="middle" transform="translate(250,36)" font-family="sans-serif" font-size="11px" font-weight="400" fill="#1c2a3a" opacity="1">date</text></g></g><path class="foreground" aria-hidden="true" d="" pointer-events="none" display="none"/></g></g><g class="mark-group role-axis" role="graphics-symbol" aria-roledescription="axis" aria-label="Y-axis titled 'sentiment' for a linear scale with values from −1.0 to 1.0"><g transform="translate(0.5,0.5)"><path class="background" aria-hidden="true" d="M0,0h0v0h0Z" pointer-events="none"/><g><g class="mark-rule role-axis-tick" pointer-events="none"><line transform="translate(0,300)" x2="-5" y2="0" stroke="#888" stroke-width="1" opacity="1"/><line transform="translate(0,270)" x2="-5" y2="0" stroke="#888" stroke-width="1" opacity="1"/><line transform="translate(0,240)" x2="-5" y2="0" stroke="#888" stroke-width="1" opacity="1"/><line transform="translate(0,210)" x2="-5" y2="0" stroke="#888" stroke-width="1" opacity="1"/><line transform="translate(0,180)" x2="-5" y2="0" stroke="#888" stroke-width="1" opacity="1"/><line transform="translate(0,150)" x2="-5" y2="0" stroke="#888" stroke-width="1" opacity="1"/><line transform="translate(0,120)" x2="-5" y2="0" stroke="#888" stroke-width="1" opacity="1"/><line transform="translate(0,90)" x2="-5" y2="0" stroke="#888" stroke-width="1" opacity="1"/><line transform="translate(0,60)" x2="-5" y2="0" stroke="#888" stroke-width="1" opacity="1"/><line transform="translate(0,30)" x2="-5" y2="0" stroke="#888" stroke-width="1" opacity="1"/><line transform="translate(0,0)" x2="-5" y2="0" stroke="#888" stroke-width="1" opacity="1"/></g><g class="mark-text role-axis-label" pointer-events="none"><text text-anchor="end" transform="translate(-13,304)" font-family="sans-serif" font-size="12px" fill="#000" opacity="1">−1.0</text><text text-anchor="end" transform="translate(-13,274)" font-family="sans-serif" font-size="12px" fill="#000" opacity="1">−0.8</text><text text-anchor="end" transform="translate(-13,244)" font-family="sans-serif" font-size="12px" fill="#000" opacity="1">−0.6</text><text text-anchor="end" transform="translate(-13,214)" font-family="sans-serif" font-size="12px" fill="#000" opacity="1">−0.4</text><text text-anchor="end" transform="translate(-13,184)" font-family="sans-serif" font-size="12px" fill="#000" opacity="1">−0.2</text><text text-anchor="end" transform="translate(-13,154)" font-family="sans-serif" font-size="12px" fill="#000" opacity="1">0.0</text><text text-anchor="end" transform="translate(-13,124)" font-family="sans-serif" font-size="12px" fill="#000" opacity="1">0.2</text><text text-anchor="end" transform="translate(-13,94.00000000000001)" font-family="sans-serif" font-size="12px" fill="#000" opacity="1">0.4</text><text text-anchor="end" transform="translate(-13,63.999999999999986)" font-family="sans-serif" font-size="12px" fill="#000" opacity="1">0.6</text><text text-anchor="end" transform="translate(-13,33.99999999999999)" font-family="sans-serif" font-size="12px" fill="#000" opacity="1">0.8</text><text text-anchor="end" transform="translate(-13,4)" font-family="sans-serif" font-size="12px" fill="#000" opacity="1">1.0</text></g><g class="mark-rule role-axis-domain" pointer-events="none"><line transform="translate(0,300)" x2="0" y2="-300" stroke="#888" stroke-width="1" opacity="1"/></g><g class="mark-text role-axis-title" pointer-events="none"><text text-anchor="middle" transform="translate(-47,150) rotate(-90) translate(0,-3)" font-family="sans-serif" font-size="12px" font-weight="400" fill="#1c2a3a" opacity="1">sentiment</text></g></g><path class="foreground" aria-hidden="true" d="" pointer-events="none" display="none"/></g></g><g class="mark-symbol role-mark layer_0_marks" role="graphics-object" aria-roledescription="symbol mark container"><path aria-label="date: Sep 06, 2023; sentiment: −0.00000389703200199; Region: de" role="graphics-symbol" aria-roledescription="point" transform="translate(0,150.0005845548003)" d="M-2.739,-2.739h5.477v5.477h-5.477Z" stroke="#ffa83f" stroke-width="2" opacity="0.7"/><path aria-label="date: Sep 06, 2023; sentiment: −0.000152648099174; Region: de" role="graphics-symbol" aria-roledescription="point" transform="translate(0.11357136645678403,150.02289721487614)" d="M-2.739,-2.739h5.477v5.477h-5.477Z" stroke="#ffa83f" stroke-width="2" opacity="0.7"/><path aria-label="date: Sep 09, 2023; sentiment: −0.0051277927123; Region: de" role="graphics-symbol" aria-roledescription="point" transform="translate(23.52535025361896,150.76916890684515)" d="M-2.739,-2.739h5.477v5.477h-5.477Z" stroke="#ffa83f" stroke-width="2" opacity="0.7"/><path aria-label="date: Sep 10, 2023; sentiment: −0.00173415662721; Region: de" role="graphics-symbol" aria-roledescription="point" transform="translate(29.266564985710122,150.2601234940812)" d="M-2.739,-2.739h5.477v5.477h-5.477Z" stroke="#ffa83f" stroke-width="2" opacity="0.7"/><path aria-label="date: Sep 11, 2023; sentiment: −0.0256575648673; Region: de" role="graphics-symbol" aria-roledescription="point" transform="translate(36.20780297062778,153.84863473009318)" d="M-2.739,-2.739h5.477v5.477h-5.477Z" stroke="#ffa83f" stroke-width="2" opacity="0.7"/><path aria-label="date: Sep 13, 2023; sentiment: −0.00356825860217; Region: de" role="graphics-symbol" aria-roledescription="point" transform="translate(46.64369684460095,150.53523879032582)" d="M-2.739,-2.739h5.477v5.477h-5.477Z" stroke="#ffa83f" stroke-width="2" opacity="0.7"/><path aria-label="date: Sep 13, 2023; sentiment: −0.460178352892; Region: de" role="graphics-symbol" aria-roledescription="point" transform="translate(47.11453490149466,219.02675293385983)" d="M-2.739,-2.739h5.477v5.477h-5.477Z" stroke="#ffa83f" stroke-width="2" opacity="0.7"/><path aria-label="date: Sep 18, 2023; sentiment: −0.847664497793; Region: de" role="graphics-symbol" aria-roledescription="point" transform="translate(81.61266905224615,277.1496746689081)" d="M-2.739,-2.739h5.477v5.477h-5.477Z" stroke="#ffa83f" stroke-width="2" opacity="0.7"/><path aria-label="date: Sep 18, 2023; sentiment: −0.00644493522123; Region: de" role="graphics-symbol" aria-roledescription="point" transform="translate(82.49154035878098,150.96674028318375)" d="M-2.739,-2.739h5.477v5.477h-5.477Z" stroke="#ffa83f" stroke-width="2" opacity="0.7"/><path aria-label="date: Sep 18, 2023; sentiment: −0.00059551250888; Region: de" role="graphics-symbol" aria-roledescription="point" transform="translate(83.58163539916534,150.08932687633205)" d="M-2.739,-2.739h5.477v5.477h-5.477Z" stroke="#ffa83f" stroke-width="2" opacity="0.7"/><path aria-label="date: Sep 20, 2023; sentiment: −0.0199914975092; Region: de" role="graphics-symbol" aria-roledescription="point" transform="translate(98.81382073242918,152.99872462637722)" d="M-2.739,-2.739h5.477v5.477h-5.477Z" stroke="#ffa83f" stroke-width="2" opacity="0.7"/><path aria-label="date: Sep 22, 2023; sentiment: −0.000996344984742; Region: bav" role="graphics-symbol" aria-roledescription="point" transform="translate(112.49489364445446,150.14945174771128)" d="M2.739,0A2.739,2.739,0,1,1,-2.739,0A2.739,2.739,0,1,1,2.739,0" stroke="#6583ff" stroke-width="2" opacity="0.7"/><path aria-label="date: Sep 29, 2023; sentiment: −0.0417796894908; Region: de" role="graphics-symbol" aria-roledescription="point" transform="translate(156.7000532692476,156.26695342361927)" d="M-2.739,-2.739h5.477v5.477h-5.477Z" stroke="#ffa83f" stroke-width="2" opacity="0.7"/><path aria-label="date: Sep 30, 2023; sentiment: −0.697446199134; Region: de" role="graphics-symbol" aria-roledescription="point" transform="translate(163.62275868809073,254.61692987009883)" d="M-2.739,-2.739h5.477v5.477h-5.477Z" stroke="#ffa83f" stroke-width="2" opacity="0.7"/><path aria-label="date: Oct 01, 2023; sentiment: −0.96218431741; Region: de" role="graphics-symbol" aria-roledescription="point" transform="translate(171.33880049312467,294.32764761149883)" d="M-2.739,-2.739h5.477v5.477h-5.477Z" stroke="#ffa83f" stroke-width="2" opacity="0.7"/><path aria-label="date: Oct 01, 2023; sentiment: −0.000606544606853; Region: de" role="graphics-symbol" aria-roledescription="point" transform="translate(170.998007194754,150.090981691028)" d="M-2.739,-2.739h5.477v5.477h-5.477Z" stroke="#ffa83f" stroke-width="2" opacity="0.7"/><path aria-label="date: Oct 01, 2023; sentiment: −0.00765874725766; Region: de" role="graphics-symbol" aria-roledescription="point" transform="translate(173.11135331925388,151.14881208864972)" d="M-2.739,-2.739h5.477v5.477h-5.477Z" stroke="#ffa83f" stroke-width="2" opacity="0.7"/><path aria-label="date: Oct 03, 2023; sentiment: −0.0436207219027; Region: bav" role="graphics-symbol" aria-roledescription="point" transform="translate(186.55704680233245,156.54310828540474)" d="M2.739,0A2.739,2.739,0,1,1,-2.739,0A2.739,2.739,0,1,1,2.739,0" stroke="#6583ff" stroke-width="2" opacity="0.7"/><path aria-label="date: Oct 03, 2023; sentiment: 0.0202947296202; Region: de" role="graphics-symbol" aria-roledescription="point" transform="translate(187.740675862093,146.95579055696726)" d="M-2.739,-2.739h5.477v5.477h-5.477Z" stroke="#ffa83f" stroke-width="2" opacity="0.7"/><path aria-label="date: Oct 06, 2023; sentiment: −0.0142939791549; Region: de" role="graphics-symbol" aria-roledescription="point" transform="translate(206.44724214033081,152.14409687323496)" d="M-2.739,-2.739h5.477v5.477h-5.477Z" stroke="#ffa83f" stroke-width="2" opacity="0.7"/><path aria-label="date: Sep 18, 2023; sentiment: −0.0025966000976; Region: de" role="graphics-symbol" aria-roledescription="point" transform="translate(80.29162972693294,150.38949001464061)" d="M-2.739,-2.739h5.477v5.477h-5.477Z" stroke="#ffa83f" stroke-width="2" opacity="0.7"/><path aria-label="date: Sep 10, 2023; sentiment: −0.0572865260765; Region: de" role="graphics-symbol" aria-roledescription="point" transform="translate(29.515645841711926,158.59297891147435)" d="M-2.739,-2.739h5.477v5.477h-5.477Z" stroke="#ffa83f" stroke-width="2" opacity="0.7"/><path aria-label="date: Sep 08, 2023; sentiment: −0.897569622844; Region: de" role="graphics-symbol" aria-roledescription="point" transform="translate(13.98701865025579,284.63544342666864)" d="M-2.739,-2.739h5.477v5.477h-5.477Z" stroke="#ffa83f" stroke-width="2" opacity="0.7"/><path aria-label="date: Oct 07, 2023; sentiment: −0.991642665584; Region: de" role="graphics-symbol" aria-roledescription="point" transform="translate(211.7788396427745,298.74639983754605)" d="M-2.739,-2.739h5.477v5.477h-5.477Z" stroke="#ffa83f" stroke-width="2" opacity="0.7"/><path aria-label="date: Oct 07, 2023; sentiment: −0.946408929303; Region: de" role="graphics-symbol" aria-roledescription="point" transform="translate(211.64277576022724,291.96133939549327)" d="M-2.739,-2.739h5.477v5.477h-5.477Z" stroke="#ffa83f" stroke-width="2" opacity="0.7"/><path aria-label="date: Sep 09, 2023; sentiment: −0.0286420900375; Region: de" role="graphics-symbol" aria-roledescription="point" transform="translate(21.471878573359895,154.29631350561976)" d="M-2.739,-2.739h5.477v5.477h-5.477Z" stroke="#ffa83f" stroke-width="2" opacity="0.7"/><path aria-label="date: Oct 07, 2023; sentiment: 0.596139445901; Region: de" role="graphics-symbol" aria-roledescription="point" transform="translate(213.94120994847154,60.57908311486244)" d="M-2.739,-2.739h5.477v5.477h-5.477Z" stroke="#ffa83f" stroke-width="2" opacity="0.7"/><path aria-label="date: Oct 08, 2023; sentiment: 0.965052458458; Region: de" role="graphics-symbol" aria-roledescription="point" transform="translate(218.70225785262048,5.242131231352687)" d="M-2.739,-2.739h5.477v5.477h-5.477Z" stroke="#ffa83f" stroke-width="2" opacity="0.7"/><path aria-label="date: Oct 06, 2023; sentiment: −0.00196371169295; Region: de" role="graphics-symbol" aria-roledescription="point" transform="translate(204.6585327181366,150.29455675394274)" d="M-2.739,-2.739h5.477v5.477h-5.477Z" stroke="#ffa83f" stroke-width="2" opacity="0.7"/><path aria-label="date: Sep 15, 2023; sentiment: −0.676443591714; Region: de" role="graphics-symbol" aria-roledescription="point" transform="translate(64.05694344763702,251.4665387570858)" d="M-2.739,-2.739h5.477v5.477h-5.477Z" stroke="#ffa83f" stroke-width="2" opacity="0.7"/><path aria-label="date: Sep 23, 2023; sentiment: −0.0159026903566; Region: de" role="graphics-symbol" aria-roledescription="point" transform="translate(117.63213680011646,152.3854035534896)" d="M-2.739,-2.739h5.477v5.477h-5.477Z" stroke="#ffa83f" stroke-width="2" opacity="0.7"/><path aria-label="date: Sep 22, 2023; sentiment: −0.516601577401; Region: de" role="graphics-symbol" aria-roledescription="point" transform="translate(108.29568344856524,227.49023661017418)" d="M-2.739,-2.739h5.477v5.477h-5.477Z" stroke="#ffa83f" stroke-width="2" opacity="0.7"/><path aria-label="date: Oct 02, 2023; sentiment: −0.853804484941; Region: de" role="graphics-symbol" aria-roledescription="point" transform="translate(180.36907050944438,278.0706727411598)" d="M-2.739,-2.739h5.477v5.477h-5.477Z" stroke="#ffa83f" stroke-width="2" opacity="0.7"/><path aria-label="date: Oct 09, 2023; sentiment: −0.00203152658651; Region: de" role="graphics-symbol" aria-roledescription="point" transform="translate(225.1152385054135,150.30472898797598)" d="M-2.739,-2.739h5.477v5.477h-5.477Z" stroke="#ffa83f" stroke-width="2" opacity="0.7"/><path aria-label="date: Oct 08, 2023; sentiment: 0.00427746400237; Region: de" role="graphics-symbol" aria-roledescription="point" transform="translate(221.04813224205557,149.35838039964437)" d="M-2.739,-2.739h5.477v5.477h-5.477Z" stroke="#ffa83f" stroke-width="2" opacity="0.7"/><path aria-label="date: Oct 12, 2023; sentiment: −0.00896322913468; Region: de" role="graphics-symbol" aria-roledescription="point" transform="translate(245.05572520861412,151.34448437020183)" d="M-2.739,-2.739h5.477v5.477h-5.477Z" stroke="#ffa83f" stroke-width="2" opacity="0.7"/><path aria-label="date: Oct 15, 2023; sentiment: −0.0000799810550234; Region: de" role="graphics-symbol" aria-roledescription="point" transform="translate(268.3791972104211,150.0119971582535)" d="M-2.739,-2.739h5.477v5.477h-5.477Z" stroke="#ffa83f" stroke-width="2" opacity="0.7"/><path aria-label="date: Oct 17, 2023; sentiment: −0.00000425166808782; Region: de" role="graphics-symbol" aria-roledescription="point" transform="translate(281.59869834858995,150.00063775021317)" d="M-2.739,-2.739h5.477v5.477h-5.477Z" stroke="#ffa83f" stroke-width="2" opacity="0.7"/><path aria-label="date: Oct 17, 2023; sentiment: 0.235876381397; Region: bav" role="graphics-symbol" aria-roledescription="point" transform="translate(283.2724900213219,114.6185427904129)" d="M2.739,0A2.739,2.739,0,1,1,-2.739,0A2.739,2.739,0,1,1,2.739,0" stroke="#6583ff" stroke-width="2" opacity="0.7"/><path aria-label="date: Oct 18, 2023; sentiment: −0.0273408582434; Region: de" role="graphics-symbol" aria-roledescription="point" transform="translate(286.30652452452483,154.10112873651087)" d="M-2.739,-2.739h5.477v5.477h-5.477Z" stroke="#ffa83f" stroke-width="2" opacity="0.7"/><path aria-label="date: Oct 31, 2023; sentiment: −0.0112512456253; Region: de" role="graphics-symbol" aria-roledescription="point" transform="translate(377.3573384447312,151.68768684379756)" d="M-2.739,-2.739h5.477v5.477h-5.477Z" stroke="#ffa83f" stroke-width="2" opacity="0.7"/><path aria-label="date: Oct 30, 2023; sentiment: −0.000120664401038; Region: de" role="graphics-symbol" aria-roledescription="point" transform="translate(371.1304754426868,150.0180996601557)" d="M-2.739,-2.739h5.477v5.477h-5.477Z" stroke="#ffa83f" stroke-width="2" opacity="0.7"/><path aria-label="date: Nov 12, 2023; sentiment: −0.961193876341; Region: de" role="graphics-symbol" aria-roledescription="point" transform="translate(461.2027857139576,294.1790814511478)" d="M-2.739,-2.739h5.477v5.477h-5.477Z" stroke="#ffa83f" stroke-width="2" opacity="0.7"/><path aria-label="date: Nov 13, 2023; sentiment: −0.137562289834; Region: de" role="graphics-symbol" aria-roledescription="point" transform="translate(466.846348078656,170.63434347510338)" d="M-2.739,-2.739h5.477v5.477h-5.477Z" stroke="#ffa83f" stroke-width="2" opacity="0.7"/><path aria-label="date: Nov 04, 2023; sentiment: −0.0220825732686; Region: de" role="graphics-symbol" aria-roledescription="point" transform="translate(404.7053868467251,153.31238599028438)" d="M-2.739,-2.739h5.477v5.477h-5.477Z" stroke="#ffa83f" stroke-width="2" opacity="0.7"/><path aria-label="date: Nov 03, 2023; sentiment: 0.0735366977751; Region: de" role="graphics-symbol" aria-roledescription="point" transform="translate(399.4977357797799,138.96949533373117)" d="M-2.739,-2.739h5.477v5.477h-5.477Z" stroke="#ffa83f" stroke-width="2" opacity="0.7"/><path aria-label="date: Nov 16, 2023; sentiment: −0.0000545564471395; Region: de" role="graphics-symbol" aria-roledescription="point" transform="translate(486.9121276003606,150.00818346707092)" d="M-2.739,-2.739h5.477v5.477h-5.477Z" stroke="#ffa83f" stroke-width="2" opacity="0.7"/><path aria-label="date: Nov 18, 2023; sentiment: 0.936362214386; Region: de" role="graphics-symbol" aria-roledescription="point" transform="translate(500,9.545667842030525)" d="M-2.739,-2.739h5.477v5.477h-5.477Z" stroke="#ffa83f" stroke-width="2" opacity="0.7"/></g><g class="mark-line role-mark layer_1_marks" role="graphics-object" aria-roledescription="line mark container"><path aria-label="date: Sep 06, 2023; sentiment: −0.0287814627885" role="graphics-symbol" aria-roledescription="line mark" d="M0,154.317L0.114,154.339L13.987,156.932L21.472,158.246L23.525,158.596L29.267,159.55L29.516,159.591L36.208,160.658L46.644,162.25L47.115,162.32L64.057,164.815L80.292,167.013L81.613,167.154L82.492,167.241L83.582,167.341L98.814,168.045L108.296,168.136L112.495,168.134L117.632,167.735L156.7,165.562L163.623,163.867L170.998,161.992L171.339,161.908L173.111,161.473L180.369,159.79L186.557,158.657L187.741,158.457L204.659,154.746L206.447,154.442L211.643,153.536L211.779,153.512L213.941,153.118L218.702,152.226L221.048,151.777L225.115,150.993L245.056,147.175L268.379,144.999L281.599,144.961L283.272,144.951L286.307,145.18L371.13,149.543L377.357,149.968L399.498,151.407L404.705,151.737L461.203,155.466L466.846,155.866L486.912,157.328L500,158.304" stroke="firebrick" stroke-width="2" opacity="0.5"/></g><g class="mark-group role-legend" role="graphics-symbol" aria-roledescription="legend" aria-label="Symbol legend titled 'Region' for shape and stroke color with 2 values: bav, de"><g transform="translate(518,0)"><path class="background" aria-hidden="true" d="M0,0h40v52h-40Z" pointer-events="none"/><g><g class="mark-group role-legend-entry"><g transform="translate(0,23)"><path class="background" aria-hidden="true" d="M0,0h0v0h0Z" pointer-events="none"/><g><g class="mark-group role-scope" role="graphics-object" aria-roledescription="group mark container"><g transform="translate(0,0)"><path class="background" aria-hidden="true" d="M0,0h35v12.5h-35Z" pointer-events="none" opacity="1"/><g><g class="mark-symbol role-legend-symbol" pointer-events="none"><path transform="translate(6,6)" d="M5,0A5,5,0,1,1,-5,0A5,5,0,1,1,5,0" stroke="#6583ff" stroke-width="1.5" opacity="0.7"/></g><g class="mark-text role-legend-label" pointer-events="none"><text text-anchor="start" transform="translate(16,10)" font-family="sans-serif" font-size="12px" fill="#000" opacity="1">bav</text></g></g><path class="foreground" aria-hidden="true" d="" pointer-events="none" display="none"/></g><g transform="translate(0,16)"><path class="background" aria-hidden="true" d="M0,0h35v12.5h-35Z" pointer-events="none" opacity="1"/><g><g class="mark-symbol role-legend-symbol" pointer-events="none"><path transform="translate(6,6)" d="M-5,-5h10v10h-10Z" stroke="#ffa83f" stroke-width="1.5" opacity="0.7"/></g><g class="mark-text role-legend-label" pointer-events="none"><text text-anchor="start" transform="translate(16,10)" font-family="sans-serif" font-size="12px" fill="#000" opacity="1">de</text></g></g><path class="foreground" aria-hidden="true" d="" pointer-events="none" display="none"/></g></g></g><path class="foreground" aria-hidden="true" d="" pointer-events="none" display="none"/></g></g><g class="mark-text role-legend-title" pointer-events="none"><text text-anchor="start" transform="translate(0,10)" font-family="sans-serif" font-size="13px" font-weight="400" fill="#000" opacity="1">Region</text></g></g><path class="foreground" aria-hidden="true" d="" pointer-events="none" display="none"/></g></g><g class="mark-group role-title"><g transform="translate(249,-28)"><path class="background" aria-hidden="true" d="M0,0h0v0h0Z" pointer-events="none"/><g><g class="mark-text role-title-text" role="graphics-symbol" aria-roledescription="title" aria-label="Title text 'Sentiments for the Buendnis90/Gruene'" pointer-events="none"><text text-anchor="middle" transform="translate(0,14)" font-family="Inter" font-size="18px" font-weight="400" fill="#445668" opacity="1">Sentiments for the Buendnis90/Gruene</text></g></g><path class="foreground" aria-hidden="true" d="" pointer-events="none" display="none"/></g></g></g><path class="foreground" aria-hidden="true" d="" display="none"/></g></g></g></svg>