<svg xmlns="http://www.w3.org/2000/svg" xmlns:xlink="http://www.w3.org/1999/xlink" version="1.1" class="marks" width="628" height="376" viewBox="0 0 628 376"><rect width="628" height="376" fill="#fff"/><g fill="none" stroke-miterlimit="10" transform="translate(65,33)"><g class="mark-group role-frame root" role="graphics-object" aria-roledescription="group mark container"><g transform="translate(0,0)"><path class="background" aria-hidden="true" d="M0.5,0.5h500v300h-500Z" stroke="#ddd"/><g><g class="mark-group role-axis" aria-hidden="true"><g transform="translate(0.5,300.5)"><path class="background" aria-hidden="true" d="M0,0h0v0h0Z" pointer-events="none"/><g><g class="mark-rule role-axis-grid" pointer-events="none"><line transform="translate(15,-300)" x2="0" y2="300" stroke="#ddd" stroke-width="1" opacity="1"/><line transform="translate(59,-300)" x2="0" y2="300" stroke="#ddd" stroke-width="1" opacity="1"/><line transform="translate(103,-300)" x2="0" y2="300" stroke="#ddd" stroke-width="1" opacity="1"/><line transform="translate(147,-300)" x2="0" y2="300" stroke="#ddd" stroke-width="1" opacity="1"/><line transform="translate(190,-300)" x2="0" y2="300" stroke="#ddd" stroke-width="1" opacity="1"/><line transform="translate(234,-300)" x2="0" y2="300" stroke="#ddd" stroke-width="1" opacity="1"/><line transform="translate(278,-300)" x2="0" y2="300" stroke="#ddd" stroke-width="1" opacity="1"/><line transform="translate(322,-300)" x2="0" y2="300" stroke="#ddd" stroke-width="1" opacity="1"/><line transform="translate(366,-300)" x2="0" y2="300" stroke="#ddd" stroke-width="1" opacity="1"/><line transform="translate(410,-300)" x2="0" y2="300" stroke="#ddd" stroke-width="1" opacity="1"/><line transform="translate(454,-300)" x2="0" y2="300" stroke="#ddd" stroke-width="1" opacity="1"/><line transform="translate(498,-300)" x2="0" y2="300" stroke="#ddd" stroke-width="1" opacity="1"/></g></g><path class="foreground" aria-hidden="true" d="" pointer-events="none" display="none"/></g></g><g class="mark-group role-axis" aria-hidden="true"><g transform="translate(0.5,0.5)"><path class="background" aria-hidden="true" d="M0,0h0v0h0Z" pointer-events="none"/><g><g class="mark-rule role-axis-grid" pointer-events="none"><line transform="translate(0,300)" x2="500" y2="0" stroke="#e1e8f0" stroke-width="1" opacity="1"/><line transform="translate(0,270)" x2="500" y2="0" stroke="#e1e8f0" stroke-width="1" opacity="1"/><line transform="translate(0,240)" x2="500" y2="0" stroke="#e1e8f0" stroke-width="1" opacity="1"/><line transform="translate(0,210)" x2="500" y2="0" stroke="#e1e8f0" stroke-width="1" opacity="1"/><line transform="translate(0,180)" x2="500" y2="0" stroke="#e1e8f0" stroke-width="1" opacity="1"/><line transform="translate(0,150)" x2="500" y2="0" stroke="#e1e8f0" stroke-width="1" opacity="1"/><line transform="translate(0,120)" x2="500" y2="0" stroke="#e1e8f0" stroke-width="1" opacity="1"/><line transform="translate(0,90)" x2="500" y2="0" stroke="#e1e8f0" stroke-width="1" opacity="1"/><line transform="translate(0,60)" x2="500" y2="0" stroke="#e1e8f0" stroke-width="1" opacity="1"/><line transform="translate(0,30)" x2="500" y2="0" stroke="#e1e8f0" stroke-width="1" opacity="1"/><line transform="translate(0,0)" x2="500" y2="0" stroke="#e1e8f0" stroke-width="1" opacity="1"/></g></g><path class="foreground" aria-hidden="true" d="" pointer-events="none" display="none"/></g></g><g class="mark-group role-axis" role="graphics-symbol" aria-roledescription="axis" aria-label="X-axis titled 'date' for a time scale with values from Thursday, 31 August 2023, 3:23:50 PM to Sunday, 19 November 2023, 6:58:14 AM"><g transform="translate(0.5,300.5)"><path class="background" aria-hidden="true" d="M0,0h0v0h0Z" pointer-events="none"/><g><g class="mark-rule role-axis-tick" pointer-events="none"><line transform="translate(15,0)" x2="0" y2="5" stroke="#888" stroke-width="1" opacity="1"/><line transform="translate(59,0)" x2="0" y2="5" stroke="#888" stroke-width="1" opacity="1"/><line transform="translate(103,0)" x2="0" y2="5" stroke="#888" stroke-width="1" opacity="1"/><line transform="translate(147,0)" x2="0" y2="5" stroke="#888" stroke-width="1" opacity="1"/><line transform="translate(190,0)" x2="0" y2="5" stroke="#888" stroke-width="1" opacity="1"/><line transform="translate(234,0)" x2="0" y2="5" stroke="#888" stroke-width="1" opacity="1"/><line transform="translate(278,0)" x2="0" y2="5" stroke="#888" stroke-width="1" opacity="1"/><line transform="translate(322,0)" x2="0" y2="5" stroke="#888" stroke-width="1" opacity="1"/><line transform="translate(366,0)" x2="0" y2="5" stroke="#888" stroke-width="1" opacity="1"/><line transform="translate(410,0)" x2="0" y2="5" stroke="#888" stroke-width="1" opacity="1"/><line transform="translate(454,0)" x2="0" y2="5" stroke="#888" stroke-width="1" opacity="1"/><line transform="translate(498,0)" x2="0" y2="5" stroke="#888" stroke-width="1" opacity="1"/></g><g class="mark-text role-axis-label" pointer-events="none"><text text-anchor="middle" transform="translate(14.797544436930814,15)" font-family="sans-serif" font-size="10px" fill="#000" opacity="1">Sep 03</text><text text-anchor="middle" transform="translate(58.71742899037713,15)" font-family="sans-serif" font-size="10px" fill="#000" opacity="1">Sep 10</text><text text-anchor="middle" transform="translate(102.63731354382345,15)" font-family="sans-serif" font-size="10px" fill="#000" opacity="1">Sep 17</text><text text-anchor="middle" transform="translate(146.55719809726978,15)" font-family="sans-serif" font-size="10px" fill="#000" opacity="1">Sep 24</text><text text-anchor="middle" transform="translate(190.47708265071608,15)" font-family="sans-serif" font-size="10px" fill="#000" opacity="1">October</text><text text-anchor="middle" transform="translate(234.3969672041624,15)" font-family="sans-serif" font-size="10px" fill="#000" opacity="1">Oct 08</text><text text-anchor="middle" transform="translate(278.31685175760873,15)" font-family="sans-serif" font-size="10px" fill="#000" opacity="1">Oct 15</text><text text-anchor="middle" transform="translate(322.23673631105504,15)" font-family="sans-serif" font-size="10px" fill="#000" opacity="1">Oct 22</text><text text-anchor="middle" transform="translate(366.15662086450135,15)" font-family="sans-serif" font-size="10px" fill="#000" opacity="1">Oct 29</text><text text-anchor="middle" transform="translate(410.33793330219436,15)" font-family="sans-serif" font-size="10px" fill="#000" opacity="1">Nov 05</text><text text-anchor="middle" transform="translate(454.25781785564067,15)" font-family="sans-serif" font-size="10px" fill="#000" opacity="1">Nov 12</text><text text-anchor="middle" transform="translate(498.177702409087,15)" font-family="sans-serif" font-size="10px" fill="#000" opacity="1">Nov 19</text></g><g class="mark-rule role-axis-domain" pointer-events="none"><line transform="translate(0,0)" x2="500" y2="0" stroke="#e1e8f0" stroke-width="1" opacity="1"/></g><g class="mark-text role-axis-title" pointer-events="none"><text text-anchor="middle" transform="translate(250,36)" font-family="sans-serif" font-size="11px" font-weight="400" fill="#1c2a3a" opacity="1">date</text></g></g><path class="foreground" aria-hidden="true" d="" pointer-events="none" display="none"/></g></g><g class="mark-group role-axis" role="graphics-symbol" aria-roledescription="axis" aria-label="Y-axis titled 'sentiment' for a linear scale with values from −1.0 to 1.0"><g transform="translate(0.5,0.5)"><path class="background" aria-hidden="true" d="M0,0h0v0h0Z" pointer-events="none"/><g><g class="mark-rule role-axis-tick" pointer-events="none"><line transform="translate(0,300)" x2="-5" y2="0" stroke="#888" stroke-width="1" opacity="1"/><line transform="translate(0,270)" x2="-5" y2="0" stroke="#888" stroke-width="1" opacity="1"/><line transform="translate(0,240)" x2="-5" y2="0" stroke="#888" stroke-width="1" opacity="1"/><line transform="translate(0,210)" x2="-5" y2="0" stroke="#888" stroke-width="1" opacity="1"/><line transform="translate(0,180)" x2="-5" y2="0" stroke="#888" stroke-width="1" opacity="1"/><line transform="translate(0,150)" x2="-5" y2="0" stroke="#888" stroke-width="1" opacity="1"/><line transform="translate(0,120)" x2="-5" y2="0" stroke="#888" stroke-width="1" opacity="1"/><line transform="translate(0,90)" x2="-5" y2="0" stroke="#888" stroke-width="1" opacity="1"/><line transform="translate(0,60)" x2="-5" y2="0" stroke="#888" stroke-width="1" opacity="1"/><line transform="translate(0,30)" x2="-5" y2="0" stroke="#888" stroke-width="1" opacity="1"/><line transform="translate(0,0)" x2="-5" y2="0" stroke="#888" stroke-width="1" opacity="1"/></g><g class="mark-text role-axis-label" pointer-events="none"><text text-anchor="end" transform="translate(-13,304)" font-family="sans-serif" font-size="12px" fill="#000" opacity="1">−1.0</text><text text-anchor="end" transform="translate(-13,274)" font-family="sans-serif" font-size="12px" fill="#000" opacity="1">−0.8</text><text text-anchor="end" transform="translate(-13,244)" font-family="sans-serif" font-size="12px" fill="#000" opacity="1">−0.6</text><text text-anchor="end" transform="translate(-13,214)" font-family="sans-serif" font-size="12px" fill="#000" opacity="1">−0.4</text><text text-anchor="end" transform="translate(-13,184)" font-family="sans-serif" font-size="12px" fill="#000" opacity="1">−0.2</text><text text-anchor="end" transform="translate(-13,154)" font-family="sans-serif" font-size="12px" fill="#000" opacity="1">0.0</text><text text-anchor="end" transform="translate(-13,124)" font-family="sans-serif" font-size="12px" fill="#000" opacity="1">0.2</text><text text-anchor="end" transform="translate(-13,94.00000000000001)" font-family="sans-serif" font-size="12px" fill="#000" opacity="1">0.4</text><text text-anchor="end" transform="translate(-13,63.999999999999986)" font-family="sans-serif" font-size="12px" fill="#000" opacity="1">0.6</text><text text-anchor="end" transform="translate(-13,33.99999999999999)" font-family="sans-serif" font-size="12px" fill="#000" opacity="1">0.8</text><text text-anchor="end" transform="translate(-13,4)" font-family="sans-serif" font-size="12px" fill="#000" opacity="1">1.0</text></g><g class="mark-rule role-axis-domain" pointer-events="none"><line transform="translate(0,300)" x2="0" y2="-300" stroke="#888" stroke-width="1" opacity="1"/></g><g class="mark-text role-axis-title" pointer-events="none"><text text-anchor="middle" transform="translate(-47,150) rotate(-90) translate(0,-3)" font-family="sans-serif" font-size="12px" font-weight="400" fill="#1c2a3a" opacity="1">sentiment</text></g></g><path class="foreground" aria-hidden="true" d="" pointer-events="none" display="none"/></g></g><g class="mark-symbol role-mark layer_0_marks" role="graphics-object" aria-roledescription="symbol mark container"><path aria-label="date: Aug 31, 2023; sentiment: −0.901583408937; Region: de" role="graphics-symbol" aria-roledescription="point" transform="translate(0,285.2375113405287)" d="M-2.739,-2.739h5.477v5.477h-5.477Z" stroke="#ffa83f" stroke-width="2" opacity="0.7"/><path aria-label="date: Sep 03, 2023; sentiment: −0.953323109075; Region: bav" role="graphics-symbol" aria-roledescription="point" transform="translate(17.544570549509793,292.99846636131406)" d="M2.739,0A2.739,2.739,0,1,1,-2.739,0A2.739,2.739,0,1,1,2.739,0" stroke="#6583ff" stroke-width="2" opacity="0.7"/><path aria-label="date: Sep 04, 2023; sentiment: −0.0130099356174; Region: bav" role="graphics-symbol" aria-roledescription="point" transform="translate(23.94163825816991,151.95149034261703)" d="M2.739,0A2.739,2.739,0,1,1,-2.739,0A2.739,2.739,0,1,1,2.739,0" stroke="#6583ff" stroke-width="2" opacity="0.7"/><path aria-label="date: Sep 06, 2023; sentiment: −0.88796521537; Region: de" role="graphics-symbol" aria-roledescription="point" transform="translate(38.72553035003451,283.19478230550885)" d="M-2.739,-2.739h5.477v5.477h-5.477Z" stroke="#ffa83f" stroke-width="2" opacity="0.7"/><path aria-label="date: Sep 07, 2023; sentiment: −0.949515362736; Region: de" role="graphics-symbol" aria-roledescription="point" transform="translate(44.208036176971575,292.42730441037565)" d="M-2.739,-2.739h5.477v5.477h-5.477Z" stroke="#ffa83f" stroke-width="2" opacity="0.7"/><path aria-label="date: Sep 13, 2023; sentiment: −0.946880263276; Region: bav" role="graphics-symbol" aria-roledescription="point" transform="translate(80.4865289116002,292.0320394914597)" d="M2.739,0A2.739,2.739,0,1,1,-2.739,0A2.739,2.739,0,1,1,2.739,0" stroke="#6583ff" stroke-width="2" opacity="0.7"/><path aria-label="date: Sep 14, 2023; sentiment: −0.973188835196; Region: bav" role="graphics-symbol" aria-roledescription="point" transform="translate(86.78744925394291,295.97832527942955)" d="M2.739,0A2.739,2.739,0,1,1,-2.739,0A2.739,2.739,0,1,1,2.739,0" stroke="#6583ff" stroke-width="2" opacity="0.7"/><path aria-label="date: Sep 16, 2023; sentiment: −0.966213491745; Region: de" role="graphics-symbol" aria-roledescription="point" transform="translate(101.47316065150153,294.93202376179397)" d="M-2.739,-2.739h5.477v5.477h-5.477Z" stroke="#ffa83f" stroke-width="2" opacity="0.7"/><path aria-label="date: Sep 20, 2023; sentiment: −0.0123114874586; Region: de" role="graphics-symbol" aria-roledescription="point" transform="translate(124.01928233979119,151.84672311879694)" d="M-2.739,-2.739h5.477v5.477h-5.477Z" stroke="#ffa83f" stroke-width="2" opacity="0.7"/><path aria-label="date: Sep 24, 2023; sentiment: −0.0109544824809; Region: de" role="graphics-symbol" aria-roledescription="point" transform="translate(151.63202166249545,151.64317237213254)" d="M-2.739,-2.739h5.477v5.477h-5.477Z" stroke="#ffa83f" stroke-width="2" opacity="0.7"/><path aria-label="date: Sep 27, 2023; sentiment: −0.0655534919351; Region: de" role="graphics-symbol" aria-roledescription="point" transform="translate(167.81854697220032,159.8330237902701)" d="M-2.739,-2.739h5.477v5.477h-5.477Z" stroke="#ffa83f" stroke-width="2" opacity="0.7"/><path aria-label="date: Oct 05, 2023; sentiment: −0.0000022285405521; Region: de" role="graphics-symbol" aria-roledescription="point" transform="translate(220.2054997455435,150.00033428108281)" d="M-2.739,-2.739h5.477v5.477h-5.477Z" stroke="#ffa83f" stroke-width="2" opacity="0.7"/><path aria-label="date: Oct 07, 2023; sentiment: −0.990506521892; Region: de" role="graphics-symbol" aria-roledescription="point" transform="translate(230.0616214570712,298.5759782837704)" d="M-2.739,-2.739h5.477v5.477h-5.477Z" stroke="#ffa83f" stroke-width="2" opacity="0.7"/><path aria-label="date: Oct 07, 2023; sentiment: −0.934283724986; Region: bav" role="graphics-symbol" aria-roledescription="point" transform="translate(232.3297988283383,290.1425587479025)" d="M2.739,0A2.739,2.739,0,1,1,-2.739,0A2.739,2.739,0,1,1,2.739,0" stroke="#6583ff" stroke-width="2" opacity="0.7"/><path aria-label="date: Oct 08, 2023; sentiment: −0.972684348933; Region: de" role="graphics-symbol" aria-roledescription="point" transform="translate(235.35589920735063,295.9026523400098)" d="M-2.739,-2.739h5.477v5.477h-5.477Z" stroke="#ffa83f" stroke-width="2" opacity="0.7"/><path aria-label="date: Oct 08, 2023; sentiment: 0.00395484268665; Region: de" role="graphics-symbol" aria-roledescription="point" transform="translate(236.9969401318526,149.40677359700203)" d="M-2.739,-2.739h5.477v5.477h-5.477Z" stroke="#ffa83f" stroke-width="2" opacity="0.7"/><path aria-label="date: Oct 08, 2023; sentiment: −0.980064400472; Region: de" role="graphics-symbol" aria-roledescription="point" transform="translate(239.9010408315498,297.00966007076204)" d="M-2.739,-2.739h5.477v5.477h-5.477Z" stroke="#ffa83f" stroke-width="2" opacity="0.7"/><path aria-label="date: Oct 09, 2023; sentiment: −0.987244851422; Region: de" role="graphics-symbol" aria-roledescription="point" transform="translate(242.40058188037526,298.0867277132347)" d="M-2.739,-2.739h5.477v5.477h-5.477Z" stroke="#ffa83f" stroke-width="2" opacity="0.7"/><path aria-label="date: Oct 09, 2023; sentiment: −0.993646071292; Region: de" role="graphics-symbol" aria-roledescription="point" transform="translate(243.19895359132198,299.046910693869)" d="M-2.739,-2.739h5.477v5.477h-5.477Z" stroke="#ffa83f" stroke-width="2" opacity="0.7"/><path aria-label="date: Oct 09, 2023; sentiment: −0.000485183292767; Region: de" role="graphics-symbol" aria-roledescription="point" transform="translate(245.51985225257883,150.07277749391505)" d="M-2.739,-2.739h5.477v5.477h-5.477Z" stroke="#ffa83f" stroke-width="2" opacity="0.7"/><path aria-label="date: Oct 10, 2023; sentiment: −0.941999223083; Region: de" role="graphics-symbol" aria-roledescription="point" transform="translate(250.73642782615164,291.29988346248865)" d="M-2.739,-2.739h5.477v5.477h-5.477Z" stroke="#ffa83f" stroke-width="2" opacity="0.7"/><path aria-label="date: Oct 11, 2023; sentiment: −0.925625618547; Region: de" role="graphics-symbol" aria-roledescription="point" transform="translate(255.18084709605904,288.8438427820802)" d="M-2.739,-2.739h5.477v5.477h-5.477Z" stroke="#ffa83f" stroke-width="2" opacity="0.7"/><path aria-label="date: Oct 11, 2023; sentiment: −0.117426203564; Region: de" role="graphics-symbol" aria-roledescription="point" transform="translate(256.801046408678,167.6139305345714)" d="M-2.739,-2.739h5.477v5.477h-5.477Z" stroke="#ffa83f" stroke-width="2" opacity="0.7"/><path aria-label="date: Oct 12, 2023; sentiment: −0.97551609762; Region: de" role="graphics-symbol" aria-roledescription="point" transform="translate(263.1324666708495,296.32741464301944)" d="M-2.739,-2.739h5.477v5.477h-5.477Z" stroke="#ffa83f" stroke-width="2" opacity="0.7"/><path aria-label="date: Oct 13, 2023; sentiment: −0.0252847978845; Region: de" role="graphics-symbol" aria-roledescription="point" transform="translate(269.43026440235263,153.79271968267858)" d="M-2.739,-2.739h5.477v5.477h-5.477Z" stroke="#ffa83f" stroke-width="2" opacity="0.7"/><path aria-label="date: Oct 14, 2023; sentiment: −0.955727567431; Region: de" role="graphics-symbol" aria-roledescription="point" transform="translate(274.67930060488607,293.35913511458784)" d="M-2.739,-2.739h5.477v5.477h-5.477Z" stroke="#ffa83f" stroke-width="2" opacity="0.7"/><path aria-label="date: Oct 14, 2023; sentiment: −0.936326157302; Region: de" role="graphics-symbol" aria-roledescription="point" transform="translate(277.3481888276179,290.44892359524965)" d="M-2.739,-2.739h5.477v5.477h-5.477Z" stroke="#ffa83f" stroke-width="2" opacity="0.7"/><path aria-label="date: Oct 17, 2023; sentiment: −0.953304860741; Region: de" role="graphics-symbol" aria-roledescription="point" transform="translate(293.0134559836776,292.995729111135)" d="M-2.739,-2.739h5.477v5.477h-5.477Z" stroke="#ffa83f" stroke-width="2" opacity="0.7"/><path aria-label="date: Oct 17, 2023; sentiment: −0.0243316087872; Region: de" role="graphics-symbol" aria-roledescription="point" transform="translate(295.915305498816,153.64974131807685)" d="M-2.739,-2.739h5.477v5.477h-5.477Z" stroke="#ffa83f" stroke-width="2" opacity="0.7"/><path aria-label="date: Oct 19, 2023; sentiment: −0.954085159115; Region: de" role="graphics-symbol" aria-roledescription="point" transform="translate(304.927813951651,293.112773867324)" d="M-2.739,-2.739h5.477v5.477h-5.477Z" stroke="#ffa83f" stroke-width="2" opacity="0.7"/><path aria-label="date: Oct 19, 2023; sentiment: −0.986565822037; Region: de" role="graphics-symbol" aria-roledescription="point" transform="translate(305.5259754745788,297.98487330554053)" d="M-2.739,-2.739h5.477v5.477h-5.477Z" stroke="#ffa83f" stroke-width="2" opacity="0.7"/><path aria-label="date: Oct 19, 2023; sentiment: −0.949671767186; Region: de" role="graphics-symbol" aria-roledescription="point" transform="translate(305.57571939144236,292.450765077956)" d="M-2.739,-2.739h5.477v5.477h-5.477Z" stroke="#ffa83f" stroke-width="2" opacity="0.7"/><path aria-label="date: Oct 20, 2023; sentiment: −0.970179558732; Region: de" role="graphics-symbol" aria-roledescription="point" transform="translate(312.45962391565524,295.52693380974233)" d="M-2.739,-2.739h5.477v5.477h-5.477Z" stroke="#ffa83f" stroke-width="2" opacity="0.7"/><path aria-label="date: Oct 21, 2023; sentiment: −0.990092222113; Region: de" role="graphics-symbol" aria-roledescription="point" transform="translate(321.58149636673335,298.51383331697434)" d="M-2.739,-2.739h5.477v5.477h-5.477Z" stroke="#ffa83f" stroke-width="2" opacity="0.7"/><path aria-label="date: Oct 22, 2023; sentiment: −0.92318543978; Region: de" role="graphics-symbol" aria-roledescription="point" transform="translate(324.7469523318205,288.4778159670532)" d="M-2.739,-2.739h5.477v5.477h-5.477Z" stroke="#ffa83f" stroke-width="2" opacity="0.7"/><path aria-label="date: Oct 23, 2023; sentiment: −0.958846940659; Region: de" role="graphics-symbol" aria-roledescription="point" transform="translate(331.873113362102,293.827041098848)" d="M-2.739,-2.739h5.477v5.477h-5.477Z" stroke="#ffa83f" stroke-width="2" opacity="0.7"/><path aria-label="date: Oct 24, 2023; sentiment: −0.928726644255; Region: de" role="graphics-symbol" aria-roledescription="point" transform="translate(336.93740719310114,289.30899663828313)" d="M-2.739,-2.739h5.477v5.477h-5.477Z" stroke="#ffa83f" stroke-width="2" opacity="0.7"/><path aria-label="date: Oct 24, 2023; sentiment: −0.0165611798875; Region: de" role="graphics-symbol" aria-roledescription="point" transform="translate(336.48215958022814,152.4841769831255)" d="M-2.739,-2.739h5.477v5.477h-5.477Z" stroke="#ffa83f" stroke-width="2" opacity="0.7"/><path aria-label="date: Oct 24, 2023; sentiment: −0.888508215547; Region: de" role="graphics-symbol" aria-roledescription="point" transform="translate(340.1084548101569,283.2762323319912)" d="M-2.739,-2.739h5.477v5.477h-5.477Z" stroke="#ffa83f" stroke-width="2" opacity="0.7"/><path aria-label="date: Oct 29, 2023; sentiment: −0.983969932888; Region: de" role="graphics-symbol" aria-roledescription="point" transform="translate(370.2653957785787,297.5954899331555)" d="M-2.739,-2.739h5.477v5.477h-5.477Z" stroke="#ffa83f" stroke-width="2" opacity="0.7"/><path aria-label="date: Nov 01, 2023; sentiment: −0.391819268465; Region: de" role="graphics-symbol" aria-roledescription="point" transform="translate(389.0379511954807,208.77289026975632)" d="M-2.739,-2.739h5.477v5.477h-5.477Z" stroke="#ffa83f" stroke-width="2" opacity="0.7"/><path aria-label="date: Nov 01, 2023; sentiment: −0.924162097275; Region: de" role="graphics-symbol" aria-roledescription="point" transform="translate(388.9733204129863,288.62431459128857)" d="M-2.739,-2.739h5.477v5.477h-5.477Z" stroke="#ffa83f" stroke-width="2" opacity="0.7"/><path aria-label="date: Nov 03, 2023; sentiment: −0.00766866537742; Region: de" role="graphics-symbol" aria-roledescription="point" transform="translate(402.5394668962585,151.15029980661348)" d="M-2.739,-2.739h5.477v5.477h-5.477Z" stroke="#ffa83f" stroke-width="2" opacity="0.7"/><path aria-label="date: Nov 03, 2023; sentiment: −0.0108871690463; Region: de" role="graphics-symbol" aria-roledescription="point" transform="translate(403.6696341636283,151.63307535694912)" d="M-2.739,-2.739h5.477v5.477h-5.477Z" stroke="#ffa83f" stroke-width="2" opacity="0.7"/><path aria-label="date: Nov 05, 2023; sentiment: −0.99763830041; Region: de" role="graphics-symbol" aria-roledescription="point" transform="translate(415.72763223022383,299.6457450615708)" d="M-2.739,-2.739h5.477v5.477h-5.477Z" stroke="#ffa83f" stroke-width="2" opacity="0.7"/><path aria-label="date: Nov 06, 2023; sentiment: −0.936055062804; Region: de" role="graphics-symbol" aria-roledescription="point" transform="translate(418.8186538671574,290.40825942065567)" d="M-2.739,-2.739h5.477v5.477h-5.477Z" stroke="#ffa83f" stroke-width="2" opacity="0.7"/><path aria-label="date: Nov 07, 2023; sentiment: −0.0000182418880286; Region: de" role="graphics-symbol" aria-roledescription="point" transform="translate(427.2682935614379,150.00273628320429)" d="M-2.739,-2.739h5.477v5.477h-5.477Z" stroke="#ffa83f" stroke-width="2" opacity="0.7"/><path aria-label="date: Nov 07, 2023; sentiment: −0.878500301391; Region: de" role="graphics-symbol" aria-roledescription="point" transform="translate(427.40067773726616,281.77504520863295)" d="M-2.739,-2.739h5.477v5.477h-5.477Z" stroke="#ffa83f" stroke-width="2" opacity="0.7"/><path aria-label="date: Nov 09, 2023; sentiment: −0.00604906445369; Region: bav" role="graphics-symbol" aria-roledescription="point" transform="translate(440.46008983824004,150.9073596680537)" d="M2.739,0A2.739,2.739,0,1,1,-2.739,0A2.739,2.739,0,1,1,2.739,0" stroke="#6583ff" stroke-width="2" opacity="0.7"/><path aria-label="date: Nov 10, 2023; sentiment: −0.459063900635; Region: bav" role="graphics-symbol" aria-roledescription="point" transform="translate(444.76892970262287,218.85958509519696)" d="M2.739,0A2.739,2.739,0,1,1,-2.739,0A2.739,2.739,0,1,1,2.739,0" stroke="#6583ff" stroke-width="2" opacity="0.7"/><path aria-label="date: Nov 10, 2023; sentiment: −0.96193241328; Region: bav" role="graphics-symbol" aria-roledescription="point" transform="translate(445.12890137545924,294.28986199200153)" d="M2.739,0A2.739,2.739,0,1,1,-2.739,0A2.739,2.739,0,1,1,2.739,0" stroke="#6583ff" stroke-width="2" opacity="0.7"/><path aria-label="date: Nov 13, 2023; sentiment: 0.806911192834; Region: bav" role="graphics-symbol" aria-roledescription="point" transform="translate(463.0990184254373,28.963321074843407)" d="M2.739,0A2.739,2.739,0,1,1,-2.739,0A2.739,2.739,0,1,1,2.739,0" stroke="#6583ff" stroke-width="2" opacity="0.7"/><path aria-label="date: Nov 15, 2023; sentiment: −0.066882846877; Region: de" role="graphics-symbol" aria-roledescription="point" transform="translate(477.76686558423904,160.03242703154683)" d="M-2.739,-2.739h5.477v5.477h-5.477Z" stroke="#ffa83f" stroke-width="2" opacity="0.7"/><path aria-label="date: Nov 17, 2023; sentiment: −0.931643964723; Region: de" role="graphics-symbol" aria-roledescription="point" transform="translate(486.93949861617506,289.7465947084129)" d="M-2.739,-2.739h5.477v5.477h-5.477Z" stroke="#ffa83f" stroke-width="2" opacity="0.7"/><path aria-label="date: Nov 17, 2023; sentiment: −0.706317730248; Region: de" role="graphics-symbol" aria-roledescription="point" transform="translate(489.139704737538,255.94765953719616)" d="M-2.739,-2.739h5.477v5.477h-5.477Z" stroke="#ffa83f" stroke-width="2" opacity="0.7"/><path aria-label="date: Nov 17, 2023; sentiment: −0.0228170482442; Region: de" role="graphics-symbol" aria-roledescription="point" transform="translate(489.2154462051128,153.42255723662674)" d="M-2.739,-2.739h5.477v5.477h-5.477Z" stroke="#ffa83f" stroke-width="2" opacity="0.7"/><path aria-label="date: Nov 17, 2023; sentiment: −0.976288850885; Region: de" role="graphics-symbol" aria-roledescription="point" transform="translate(489.89254442531177,296.4433276327327)" d="M-2.739,-2.739h5.477v5.477h-5.477Z" stroke="#ffa83f" stroke-width="2" opacity="0.7"/><path aria-label="date: Nov 17, 2023; sentiment: −0.997427897761; Region: de" role="graphics-symbol" aria-roledescription="point" transform="translate(490.6221460789303,299.6141846640967)" d="M-2.739,-2.739h5.477v5.477h-5.477Z" stroke="#ffa83f" stroke-width="2" opacity="0.7"/><path aria-label="date: Nov 18, 2023; sentiment: −0.415313947946; Region: de" role="graphics-symbol" aria-roledescription="point" transform="translate(494.17800101782586,212.29709219187498)" d="M-2.739,-2.739h5.477v5.477h-5.477Z" stroke="#ffa83f" stroke-width="2" opacity="0.7"/><path aria-label="date: Nov 18, 2023; sentiment: −0.00761457276531; Region: de" role="graphics-symbol" aria-roledescription="point" transform="translate(494.6145855845179,151.14218591479585)" d="M-2.739,-2.739h5.477v5.477h-5.477Z" stroke="#ffa83f" stroke-width="2" opacity="0.7"/><path aria-label="date: Nov 18, 2023; sentiment: −0.0165777131915; Region: de" role="graphics-symbol" aria-roledescription="point" transform="translate(494.66149736596884,152.4866569787264)" d="M-2.739,-2.739h5.477v5.477h-5.477Z" stroke="#ffa83f" stroke-width="2" opacity="0.7"/><path aria-label="date: Nov 18, 2023; sentiment: −0.986509342678; Region: de" role="graphics-symbol" aria-roledescription="point" transform="translate(497.3717783370398,297.9764014016837)" d="M-2.739,-2.739h5.477v5.477h-5.477Z" stroke="#ffa83f" stroke-width="2" opacity="0.7"/><path aria-label="date: Nov 19, 2023; sentiment: −0.000340637285262; Region: de" role="graphics-symbol" aria-roledescription="point" transform="translate(500,150.05109559278935)" d="M-2.739,-2.739h5.477v5.477h-5.477Z" stroke="#ffa83f" stroke-width="2" opacity="0.7"/></g><g class="mark-line role-mark layer_1_marks" role="graphics-object" aria-roledescription="line mark container"><path aria-label="date: Aug 31, 2023; sentiment: −0.822208274664" role="graphics-symbol" aria-roledescription="line mark" d="M0,273.331L17.545,268.821L23.942,267.209L38.726,263.567L44.208,262.258L80.487,254.471L86.787,253.311L101.473,250.855L124.019,247.496L151.632,241.225L167.819,234.554L220.205,229.014L230.062,238.715L232.33,240.894L235.356,243.011L236.997,244.134L239.901,246.044L242.401,247.592L243.199,248.066L245.52,249.392L250.736,252.878L255.181,255.777L256.801,256.716L263.132,259.552L269.43,261.503L274.679,263.308L277.348,264.156L293.013,268.495L295.915,269.173L304.928,271.08L305.526,271.211L305.576,271.222L312.46,272.37L321.581,273.106L324.747,272.055L331.873,268.171L336.482,266.452L336.937,266.141L340.108,264.177L370.265,251.394L388.973,242.568L389.038,242.534L402.539,234.92L403.67,234.321L415.728,229.921L418.819,229.133L427.268,227.024L427.401,226.991L440.46,223.853L444.769,222.847L445.129,222.763L463.099,218.714L477.767,215.565L486.939,213.698L489.14,213.266L489.215,213.251L489.893,213.12L490.622,212.978L494.178,212.299L494.615,212.217L494.661,212.208L497.372,211.701L500,211.216" stroke="firebrick" stroke-width="2" opacity="0.5"/></g><g class="mark-group role-legend" role="graphics-symbol" aria-roledescription="legend" aria-label="Symbol legend titled 'Region' for shape and stroke color with 2 values: bav, de"><g transform="translate(518,0)"><path class="background" aria-hidden="true" d="M0,0h40v52h-40Z" pointer-events="none"/><g><g class="mark-group role-legend-entry"><g transform="translate(0,23)"><path class="background" aria-hidden="true" d="M0,0h0v0h0Z" pointer-events="none"/><g><g class="mark-group role-scope" role="graphics-object" aria-roledescription="group mark container"><g transform="translate(0,0)"><path class="background" aria-hidden="true" d="M0,0h35v12.5h-35Z" pointer-events="none" opacity="1"/><g><g class="mark-symbol role-legend-symbol" pointer-events="none"><path transform="translate(6,6)" d="M5,0A5,5,0,1,1,-5,0A5,5,0,1,1,5,0" stroke="#6583ff" stroke-width="1.5" opacity="0.7"/></g><g class="mark-text role-legend-label" pointer-events="none"><text text-anchor="start" transform="translate(16,10)" font-family="sans-serif" font-size="12px" fill="#000" opacity="1">bav</text></g></g><path class="foreground" aria-hidden="true" d="" pointer-events="none" display="none"/></g><g transform="translate(0,16)"><path class="background" aria-hidden="true" d="M0,0h35v12.5h-35Z" pointer-events="none" opacity="1"/><g><g class="mark-symbol role-legend-symbol" pointer-events="none"><path transform="translate(6,6)" d="M-5,-5h10v10h-10Z" stroke="#ffa83f" stroke-width="1.5" opacity="0.7"/></g><g class="mark-text role-legend-label" pointer-events="none"><text text-anchor="start" transform="translate(16,10)" font-family="sans-serif" font-size="12px" fill="#000" opacity="1">de</text></g></g><path class="foreground" aria-hidden="true" d="" pointer-events="none" display="none"/></g></g></g><path class="foreground" aria-hidden="true" d="" pointer-events="none" display="none"/></g></g><g class="mark-text role-legend-title" pointer-events="none"><text text-anchor="start" transform="translate(0,10)" font-family="sans-serif" font-size="13px" font-weight="400" fill="#000" opacity="1">Region</text></g></g><path class="foreground" aria-hidden="true" d="" pointer-events="none" display="none"/></g></g><g class="mark-group role-title"><g transform="translate(249,-28)"><path class="background" aria-hidden="true" d="M0,0h0v0h0Z" pointer-events="none"/><g><g class="mark-text role-title-text" role="graphics-symbol" aria-roledescription="title" aria-label="Title text 'Sentiments for the Linke'" pointer-events="none"><text text-anchor="middle" transform="translate(0,14)" font-family="Inter" font-size="18px" font-weight="400" fill="#445668" opacity="1">Sentiments for the Linke</text></g></g><path class="foreground" aria-hidden="true" d="" pointer-events="none" display="none"/></g></g></g><path class="foreground" aria-hidden="true" d="" display="none"/></g></g></g></svg>